<mxfile host="Electron" modified="2023-11-07T06:34:45.312Z" agent="Mozilla/5.0 (Windows NT 10.0; Win64; x64) AppleWebKit/537.36 (KHTML, like Gecko) draw.io/22.0.3 Chrome/114.0.5735.289 Electron/25.8.4 Safari/537.36" etag="1sJk_9eenH0uX0apmUA0" version="22.0.3" type="device">
  <diagram id="C5RBs43oDa-KdzZeNtuy" name="Page-1">
    <mxGraphModel dx="3090" dy="968" grid="0" gridSize="10" guides="1" tooltips="1" connect="1" arrows="1" fold="1" page="1" pageScale="1" pageWidth="827" pageHeight="1169" math="0" shadow="0">
      <root>
        <mxCell id="WIyWlLk6GJQsqaUBKTNV-0" />
        <mxCell id="WIyWlLk6GJQsqaUBKTNV-1" parent="WIyWlLk6GJQsqaUBKTNV-0" />
        <mxCell id="AZhpOWYJOb6j5qODkit--27" value="" style="rounded=1;whiteSpace=wrap;html=1;fontStyle=1" parent="WIyWlLk6GJQsqaUBKTNV-1" vertex="1">
          <mxGeometry x="-1110" y="222.08" width="590" height="420" as="geometry" />
        </mxCell>
        <mxCell id="AZhpOWYJOb6j5qODkit--26" value="Data Warehouse" style="strokeWidth=2;html=1;shape=mxgraph.flowchart.database;whiteSpace=wrap;" parent="WIyWlLk6GJQsqaUBKTNV-1" vertex="1">
          <mxGeometry x="-1000" y="400" width="140" height="180" as="geometry" />
        </mxCell>
        <mxCell id="AZhpOWYJOb6j5qODkit--29" value="Postgres" style="shape=cylinder3;whiteSpace=wrap;html=1;boundedLbl=1;backgroundOutline=1;size=15;" parent="WIyWlLk6GJQsqaUBKTNV-1" vertex="1">
          <mxGeometry x="-985" y="267.26" width="110" height="60" as="geometry" />
        </mxCell>
        <mxCell id="AZhpOWYJOb6j5qODkit--30" value="Eshop Sales" style="shape=cylinder3;whiteSpace=wrap;html=1;boundedLbl=1;backgroundOutline=1;size=15;" parent="WIyWlLk6GJQsqaUBKTNV-1" vertex="1">
          <mxGeometry x="-1350" y="260" width="140" height="90" as="geometry" />
        </mxCell>
        <mxCell id="AZhpOWYJOb6j5qODkit--31" value="AppMetrica LOGS API" style="shape=cylinder3;whiteSpace=wrap;html=1;boundedLbl=1;backgroundOutline=1;size=15;" parent="WIyWlLk6GJQsqaUBKTNV-1" vertex="1">
          <mxGeometry x="-1355" y="400" width="140" height="90" as="geometry" />
        </mxCell>
        <mxCell id="AZhpOWYJOb6j5qODkit--32" value="BigQuery API" style="shape=cylinder3;whiteSpace=wrap;html=1;boundedLbl=1;backgroundOutline=1;size=15;" parent="WIyWlLk6GJQsqaUBKTNV-1" vertex="1">
          <mxGeometry x="-1360" y="520" width="150" height="80" as="geometry" />
        </mxCell>
        <mxCell id="AZhpOWYJOb6j5qODkit--34" value="Data Marts" style="shape=datastore;whiteSpace=wrap;html=1;" parent="WIyWlLk6GJQsqaUBKTNV-1" vertex="1">
          <mxGeometry x="-720" y="384.17" width="150" height="210" as="geometry" />
        </mxCell>
        <mxCell id="AZhpOWYJOb6j5qODkit--35" value="" style="endArrow=classic;html=1;rounded=0;exitX=1;exitY=0.5;exitDx=0;exitDy=0;exitPerimeter=0;" parent="WIyWlLk6GJQsqaUBKTNV-1" source="AZhpOWYJOb6j5qODkit--26" target="AZhpOWYJOb6j5qODkit--34" edge="1">
          <mxGeometry width="50" height="50" relative="1" as="geometry">
            <mxPoint x="-820" y="470" as="sourcePoint" />
            <mxPoint x="-770" y="420" as="targetPoint" />
          </mxGeometry>
        </mxCell>
        <mxCell id="AZhpOWYJOb6j5qODkit--56" value="" style="shape=image;verticalLabelPosition=bottom;labelBackgroundColor=default;verticalAlign=top;aspect=fixed;imageAspect=0;image=data:image/png,iVBORw0KGgoAAAANSUhEUgAAAewAAAGeCAYAAABWwDKqAAAAAXNSR0IArs4c6QAAAARnQU1BAACxjwv8YQUAAAAJcEhZcwAAFiUAABYlAUlSJPAAAABhaVRYdFNuaXBNZXRhZGF0YQAAAAAAeyJjbGlwUG9pbnRzIjpbeyJ4IjowLCJ5IjowfSx7IngiOjQ5MiwieSI6MH0seyJ4Ijo0OTIsInkiOjQxNH0seyJ4IjowLCJ5Ijo0MTR9XX2nmqWIAADoiUlEQVR4XuzdB5R9WVUn/uuYFURsyShCA91NzqnJSUByRiS0ooyog2uJ44yjwjDqGGbUUUQJgpKDJEFSI91kaELTNKmRnKNiI4YJ//7/Phe/xe7DfVX1Xr336lXV+a611733xH3O2Wfvk+6933TeMQwdHR0dHR0dG41/92/Xjo6Ojo6Ojg1GN9gdHR0dHR0HAAfCYFu1D1X01fyOjo6OxTClU5eFrptXg43cww5Lrt/0Td+0dR/k/t/9u3+35Q/c48e9+nV0dHR0fB1VVwbRoajq0K5LNwMbNcOOoOS+XiMwCRP3WdhNmI6Ojo6jiqpT6/X/+//+v/E+147NwcbMsLHxf/7P/xlnzXXm3I7sKrvu23Dxb+PBhhS1o6OjY+lYRL9VfRmq6Uzp0Y79w0YZbCM6iMHmVt0hAhThalGLU/1zvyHF7ejo6Nh3RB9O6c1ZOrZj/7DR72FjjbH+f//v/433EaAQwx6kGFPFSfiOjo6Ojq8hOhWy/D2lZxOmY/+xUQY7M+kqJFPsRbByD61wRQAD7lNpdXR0dBw10IUmQvTiN3/zN49UEf3Jvz3c27F/2Kgl8bCSmXPc4k5oIjhxq/5VsLi1A4AatqOjo+OwIHpvHrT6EUX38qv+dTUzWCTPjr1h42bYEZw8o7BIaKoxF84o0WE1lPCVIGnmuaOjo+OwIXpzNxC2GmH33/qt3zp827d92zjbbtOKDm0xT54de8fG7mFjizFmZCNcyD2/sP2Vr3xl+Lu/+7vhC1/4wvDlL395OPfcc4d/+qd/Gv7lX/5l+N//+3+fz2hvaFE7Ojo61gq69Lu+67tGA/0d3/Edw/d8z/cM3/d93zccd9xxw4UudKHhO7/zO0cDXpfKW/1ZjXU33OvBxhls7IQq/vVf/3U0zp/73OdGYqC/9KUvDX//938/Gmr01a9+dTTUmXH/3//7f0eDLa0uUB0dHYcdu1XnDHZm0wwz432BC1xgNNzf+73fOxrv7//+7x8ueclLjleGnPu3fMu3zDTUXceuHvtusDODRjGuIUaXoWaIGeiPf/zjw/ve977hgx/84PDhD394+OhHPzr8wz/8wzijzmxaOoQxyAy7o6Ojo+NrqGo/+jdGnPG+6EUvOlz60pceTjjhhOFyl7vccNnLXna8Mtrf/d3fvTUDz6pnRZ7l0fpNuXXsHms12LJKdhrNPYNs1IYYaAKAzJQZ5He/+93D29/+9uG9733vloHOcre4ZtHSiWGWbheIjo6Oo4i9qPPoTvqXPs5y+bd/+7cPF7zgBUeDffWrX3241rWuNVztalcbjTrjPgt0cvR5nvHnOTrac9fXu8dKDXZmvKgaVJAtt7gHlrs/8pGPDOecc87w/ve/f/jABz4wfOxjHxs+//nPj8aaURc3bLvWBp91DyssakdHR8eBw251otm02bVZ9w/90A8Nxx9//HDSSSeNdPnLX35cSmfko/MZ5ejpqqPjVxEeWn3d8Y1YmcGWbGuw01j88jEUjfzP//zP42Gxf/zHfxzOOuus4Q1veMPw+te/flz2tk8tnr0WcWPkxa2sTzV261bDd3R0dHTMD7rYjNss+0Y3utFw05vedDTgZtxm43R6jDJdTdd7DkF0M3/wPKXDO86Plc6wJa0RXGOwkeXs+Fl2+cQnPjGceeaZwwtf+MJxj/rTn/70eJjM0rfGJgBJwzXGO7Ptjo6Ojo75MI+BFDZ6GJlxM872sxnqW9ziFsPtbne74XrXu964jE43Cx9djehvlGfp2NYUhh3o2BkrXxKPkU0jASOMnPq2R33GGWcMb37zm4d3vetdwxe/+MVxxp29aYKSxq1pcc9zR0dHR8fqED1cjXz0MwNtf9uM+/rXv/5w7WtfezjxxBPH/W1GWxhho6trOjm3JFzHzlj5kjjD7JoThcAYO/Vtj9qs+vTTTx/e8573bPmHpZa1+rwitjs6Ojo6ZiAzZjo8Rpxu9+xqP/vOd77zcKc73Wn4wR/8wXHf20y8hket/o4B79geK18SzxVpFA1nFv385z9/eM5znjPuU9u/tkxutAUx3HUGncaGWTPrKbeKLhQdHR0dX8NO+nIKMbgmYtHpjHjAOHtv+4pXvOJwt7vdbbjZzW42HkyjsyF6nB3IRC7o+nlnrHyGHbj3RbIPfehDw9/8zd+Ms2r71oy1sBrdNQT1XmOmQeM2he38Ojo6OjoWQ/SvK31edXLAGHNzavya17zmuK9961vfejxZbr+bnufPYOd8kudMxjq2x0oNtkZx1TD2pc8+++zhVa961fDUpz51+MxnPjM2OgoLGi9uFS2LrZC0WFGROjo6Oo4sGFW6Nfo1xjluMbx5ZpydIr/DHe4w3OY2txmNts+eCkPHswuJgzp2xsqXxDWK96cZ6xe84AXDX//1X4+nwJ0OhDQeqoaYe56z/BJkH6V1hxUWp6Ojo+NIohrjTKjilgNjMcLRwfS0g2f2su9yl7sMP/zDPzxc97rXHU+EV12f8NLq2B7f/Khj+Lf7pUOj+OAJY+1w2ete97pxSTyN2hpX4UMwFQZ28u/o6OjoWC6id12jd1tdjLjF+Fpl9elo/3oAy+K+Ux4jn/hB+9xxfix9hp3kXB0ke+tb3zq89KUvHZ797GcPn/rUp8YG1JiZVYNGSiOLh+JXIcxe2O3C0NHR0fE1LKJL6Wh6lH5O/FYvZwVUmNyzBV73sjx+z3vec5x1m33zB/GlM6Wjaz5HHXOtQai42jAt+DnpbQatgZwAf/nLXz6eBv/sZz+71YBp7DSABo17aArb5d3R0dHRsVpEP1dd3Opl/jkFXsP7H4S3g0zg2AY6vxrhGjZwn7TyHDqKmHtJPJWa0VAqr7oz1mbTL37xi8cT4RpKpUOtbGEZa4h7/Do6Ojo6Di6qbqfrTeYcPrZE7vCZ75L76Ipw/AP3MdBxr/7QPh8VzDXDVkkqP5UZA2tGnX1poyafFfXVspe85CXj/rWGSgXXhkBZEqmHFTo6Ojo6Di6i36u98OxXyb5q+drXvnZ8rdf/I+IXgtgWqDPxGuYoYq497FRiKk1DMLRglJSR0ste9rLhmc985nDqqaeOP+8Qpy55Q9LKq1xJZ5U4yg3d0dHRUUH/rgp0LXsgD/q96l73P/ADPzDc+MY3Hn75l395/DqaD6gknHixE55R7AU/cF/TPCqYe0k8laRCU4GpZD/r8LlRexSvfOUrxy+aMcT8Ez5xXIN639HR0dFxsEHnx1ZEv3s2caP/vdbLXjgx7vOlF7nIRbZsRUtBnmPMofofBcy9JA4qLJWbBtAoju5b6njjG984fPCDH9xaCucnPHJfDXS97+jo6Og4HKjG1H3Iqirb4HscJnfvfOc7x71tdiWUOBAbUdM7qnZjLoMNqVCVHkPt2UECB80sg5tlq1wHzVAMNSS8qzDSiPu8EH8e6ujo6OhYPWbpefbA7Jqb+7e85S3Dm970puFv//Zvt+yEQ8uxB67VfoC00FHU6XMZbA0AOQSgIo2UwD+tVf4HPvCBcaadRkqluhcP1WcNURtjlTiKDdzR0dGxH4hunyK2g2F26MyfGn1Uy32MccK16bBB6Kjq8l0fOktlqahUlgo3SnJgwEGzpz3taeNrXD5FmorXMOLFyIM4Md51NDUvugHu6OjoWAyL6t1FUW1H8mY7Ln7xi4//0f7VX/3V4QpXuMLoxp/9EJ4NyT3b4T4Tv6OGhU6JIxUHKtP+w2Mf+9jhMY95zDi75ieMSq0jojRWDLiKT1h+rvMg6e0WlYeOjo6Oowq6lh5eJVqdzhBnkhabYGsVXe5ylxt+8Rd/cbjpTW86/iQk/mxE7sGKrjSOqsHe9Snx2sAqL5XJWHvn2t712972ttEfEjajIc/SSAOmATwnvXkxb5xF8ujo6OjomB/R62xA9PwUMvnznfFLXvKSw2Uve9lvCJ/7pDkrrcOOuZbEsxyB4uY3mX6X+aIXvWg444wzxtGSWTcCoypuDhrEiEMqXBrS8xyjHtQwAbc8u2/TkZefqLtmFJYwHR0dHR1f1+fIjNfMtepZqHqTX+tfUfVwjeceRbe7jwHPs6svnl3xilccHvrQhw4PfvCDR7tR06k2AtxX/6OCuZfEU2EqUEOfc845wyMf+cjxJx9f+MIXtkZLwqJUbDXWUxCmZSVLHxEmYWpjpxHBAMHH5I877rhxhHbRi150/Ik6f8a7xuvo6Og4bJhHt9HTvkjpHw9er3LNAWK6mt6ke10zAXM/Kw/6FQmXe3kI38abSkf47/zO7xwe8pCHDD/90z89XOYyl9ma/DHe/MXBo3t+RxFzGWzISEmlfe5znxtn1f/tv/238VWuvEsHGmUnIz0F8dKgrmmopKXx3EeAGGWHFozOfDHH/gejbXklM21pCNvR0dFxmLFbdU6HOpV97rnnjl+j9DMO9JGPfGT4+Mc/Pn7UBOjOIJOxIDpVWtGx7l1zP495Eedud7vbcMoppww3uclNxgkYPe//2bEDeHCf1dOjhrkNtuBIpflOuL9xPe5xjxs+9rGPbTVobbB5IE4aXkPJJ24BA5z8Gevjjz9+uOY1rznc8pa3HK5xjWuMBjt5ozoS497R0dHR8fWZtJVSxvrtb3/7+E60s0j0+d/93d+NupZxpG/zRk/0aPQyXQ3c+UOu8+KGN7zhcNe73nV4wAMeMHz/93//yCODnbTDc7UJRwlzG+yKV7ziFeM3w32txmdIJaUy06Aqd7cQh3EVB1W2+Gk0/kZ+7h1OuN3tbjfc4ha3GK51rWuNn7fTiDWs5zQwmoefjo6OjsMMOpYxdjXb9mMOy+Qf+tCHxt9g+nmTV3Szmhn96R6ib+vkSnrR4YvAN8bNrn/t135t3NqUR5bmIfkcVSxksEXRSM94xjOGxz/+8cNZZ511vr+u5DpPowlfR03iVtYY4MyWr3rVqw43u9nNhtvc5jbjUrj96iyVI+HSyNJYoIgdHR0dhxp0JZ2L6HMrpPaILZO/4x3vGE477bRxMuYLliZK0cnRpzHYcXe/F4MtvmXwq13tasPv/u7vjldbm/JJnsIcZcx96Aw0hk+R/umf/un47rW9bKfAoVboHElvQYNroLq8nsa3J+0fqpZM7nWvew1XvvKVR+NsqabOqhHIX/yMAOtIraOjo+Oogj7MzDn6ks7NHrGrZfLf+73fG/8NkS1P8ULiRp/GTdzcz4vE9U727/zO7ww3utGNhotd7GL/5vu1PBIGjqIu3/VGgErKSEpDWzr5/Oc/v/X7zDS6+9AikEcEgwFmiJP2hS984eGe97zncOc733k01jHuRmHCict4x8Br0PDWjXVHR0fH10AXRifSl4iejL61YnmJS1xi+NEf/dHhute97hiHLq3xouejh6Hq3nkhLaDDP/nJT442JnlIN/f1+ahh1wZbA4Qsm3gNgLE2s1ZxizRQC41e09EoBgfcL3WpSw3Xuc51xn+oOg3uFQDuKALjGmEK0qjL4K+jo6PjMIBezMoj3RhDGx3sesELXnBclvb1sZNPPnmcGEWfViMdtzzDIvo26bAvTqpnMhh3abZ01LBrgw1pTCMgH0wxAtLoy4B0pZ88ECHKEo1lEocRzKz9Q1UjJizkuX3hvt53dHR0dHzdYLczV4j+pUudD3Jy+/a3v/14z1CLE92bdGq8oN7PAwbbz6ScUg9q2m0+RwlzGeyAETXDdjgB2tHZotD4EaDsR7vXgF7XsqfhHWvLNgQnYcRpqQofxK1Tp06djjrRizmoa5U0M2Z+Ve8yxk5u3+AGNxh/zOFtHH5Vx+a6DCMqDXmyL1/5ylfGZ/ygmv4y8jqImMtgaxikQo1+vAYArYFcpDKTtriEJ24OmvnqzYknnjgKjE/YxS9Insm35h/eqltHR0fHUQZ9yAhm4hP9iaJbY7id3PYa7ZWudKXxEJgw9CokTgvxqo7eLcQxUPATKfZlKo1F0z4MWHiGrUJ92WyqsRZFhICgxNAy0ATlhBNOGJdkCBf3VmCmqDbslH+nTp06HUUKcrC3utOZdHAMuauPVNmOdJaIW/RqnfnGrerdeSEe+2L11ptIJoc1vUXTPSyYy2CnUdsZtkYDRjSGdi8QP+mYYTtkdpGLXGT0k7/8jAwjKBDeWjdhw19HR0dHxzcierPqTPfRsyZOJ5100vgZ6Ap+qOrsvSC6mm2xJF5n2a7JDx1FLGTJNIyDZ3n9apmI0QeNYvRnZu3EYm2s3TbYbsN1dHR0dJxfZ0bX2u/2qdALXehCWwd7q5EOJfyiSJqWxadsTL0/ilh46tk21LIqUjpm8BrdaItweP/aPkqwzPw6Ojo6OrYHXXyBC1xg66dK1WDHFkCM9aJGu6bZpt1ejyIWMti1UpeJ2th1ScaoLgb7KDdWR0dHx36APqaDUT6ush32oqfFNWlDy7YxBx1zG2yVGYO9CuMZo518IK9xxQ0tOoLr6Ojo6JgPmTyhnYz1MkDHtzYmOv8o6/49zbBrZS4TST8E1ZB3dHR0dOwPWh28LAMqnVbP5xq/ZeV1ULGwwd7JcC5SsbVxkgdy8MDyCOyUb0dHR0fHckHv1glUxbJ0crUZ0f257/gaFloSr8ioZxEDPQtteox1bbzegB0dHR3rRdX1rY5eBrpu3xkLb0Ysu7GmUPPoDdnR0dGxP6CL7V3nMPAU4u46K8x26Dp+ZyxksBdpjN2iHWW1QrKoMHQcPEQWdksdHR2rwzx6d6/9cSqv3s/3MMNeBWKYa8O4ViM9j9B0HHxEFnaijo6O1cL+tb6Wa/pd9HOel9EfW51f01xG+gcVcxvsVOKykQaq6U81TBum4/BBu4eWiZrestPu6DjMaPtkrrvR2Yuipl3zqPdHDbs22G0D5aV27rlWzNtwSQfNQvLuOJyIzJABbwakrbm7b/fPcu9a3UGcKoORrSpn1b+jo2Nn6Gf5vniQfsSt7XeLYiqdqX5+1PDvdlO5ywqzE5aRRsdmQxunnafuGdI8+yPcu9/97uHlL3/58IxnPGN48pOfPPz5n//58KxnPWt4zWteM3z4wx8e/uVf/mUrDUga9c2CIJ09Hf+od/6Ojnkx1W/0s7avLQurSvegYqP2sDuOBqY6eNyQH+p/4QtfGM4666zhla985WisH//4xw9//Md/PNITn/jE4S//8i+H008/ffjABz4wGvak55rZc9ygNdKt0uno6OjYdHSD3bE2xIAylpkBu6/ulr3NnF/4whcOv/mbvzka6le96lXDmWeeObzvfe8b3v/+94+G/PnPf/7we7/3e8Pv//7vD294wxu20hN/6hOK0u5GuqOj4yCjG+yOtaHOeANuWQb3S71PfvKTowF+8YtfPLzzne8cPvrRjw5f+tKXxp/Z53d7ZuD+x/6hD31oeNOb3jQumZuJC8dwb2ec6+Cgo6Oj4yChG+yOtYChDAGDmecsYduPfte73jW89rWvHY323//932/9D1f4b/mWbxkph8/4MfCnnXbaOON2P7WnXdE+d3R0dBwUdIPdsRYwsFmiZjTdu5pVu0fnnnvuuPxtyZvhjYEWLgb6n//5n8fZtpl04jHUZ5xxxnDOOeeMM+8cOkMZDATS6ejo6DiI6Aa7Y21gLBlPhjTghix3W9K2R/3Zz372fAYXZhlgBp9xZ+wtkTusVv07Ojo6Dgu6we5YKxjTGF2z47zT+dWvfnX4/Oc/Pxrrf/zHfxz9GWNG2n2MsLDigXSE4Wf27bAagw0ZCIQ6Ojo6Djq6we5YK2KkIcbX9R/+4R+GT3/606MBDuKHvvVbv3UkcdvZtvuvfOUr4wz7i1/84lbcxAfhMluHDAA6Ojo6Dgq6we5YGxhJBjSzagY0M2gzbEvi9qjh277t27aMLSRsjC6/kPiW1O1lS8NsO8Z8lmGuaXd0dHQcBHSD3bEvYDAZ1ZwCrwbbc2bhMbrCtQbbDDr3/C2pSyOH0hIXbSo2nb+Ojo7NQTfYHWtDjHSMaV229rUyS+IxzGbMMc4txOVX/d0z1NkHl4Z0A/coea8bUzxzm4ef/eC7o6Njc9ANdsdaUY0o5Jmx9UpWZtyhWZjyZ/y8u83wM/hTYabcVgl5MdLJM+UNH55d8a7sCevKLQYdBfHv6Og4WugGu2OtYKAyqw4xQJbEzbJz6ns3aMN5ZrDtZcdgt0ie64D8Kw+1vKEs6zPAlRjq3FfErU27o6Pj8KMb7I61gsGKkQoYacbaK1lmmTCvMUp4e9gf+9jHxjTrknuwTmMdYxtDjbjHGAd4tGfvFDx3g424ZS8fxPXOuTpqy9XR0XH40Q12x74hBsdBM691WRKfWgKeB2bYn/jEJ0bDBskj6cVwrhrJJ3llZgxxSzmz9A01Xkg84dz78ltO2Xd0dBwtdIPdsTa0RpjR4WY5nMH2tbIYrkWR97mlKa1q2GL01mXsal54icGus2M8cecf/iBhIfXGz+tuDHbcOjo6jg66we5YG2KMILNGy7uWwxnrWfvO26EN7ytpn/vc58YPqDjIBskLKg+rRs2rGmn8hCdulsLz3rk6wLdrBhzt8re48+z1d3R0HA50g92xdjA0IQbb3jWDzRAxTNU47QZJCxgyXz0zy5Zm3GHedPcKeccwM7oIuAF+8IvXt73tbcOznvWs4c/+7M/Gf4D/0R/90fDYxz52eNrTnjb6eV1NOurLte5td3R0HA10g92xVjA2KIaZwfLeNOMat0UhrrTtiTspbj97Kr3wsA605a2IsX77298+/NVf/dVorP/kT/5kNNR/8Ad/MPyv//W/hsc97nGjn3+DM9r5fWg76+7o6Dj86Aa7Y18QA9Ya7Ip5DJKwmcVK8+Mf//h4iA1i3KqRXofBlmctQ4y3g2Nmyoz1i1/84uGJT3zi8OQnP3n8F/inPvWprS+28T/77LOHJz3pScNjHvOY4dnPfva4R9+XxDs6jia6we5YK2K0cs9wMU4OibVGdR4kXWT/l+HLv7Erkn41pKtCmxdecvgMf29605uGV7ziFcOZZ545GmnGWD3867/+62iQ1Y0ZtQGNWfjLXvay8X/hXlvrS+IdHUcP3WAfQlTjVTHltt9gmBjWHBDbiyFlCFEMtiVxRq812rBug526R8r8gQ98YPibv/mb4YwzzhgNslUAvDLogXhZHRBGWMvj73nPe76hTEm7o2NViHxN9Z3WbSpMx97RDfYBRaucq8KmzDNDi2Ln5z6vD1XEbx3IsnWAR6e6zS7xYeaY2WPL506IcWOwLSebuauHlC3+MG/aiyDlzGlv5XI1OLEnfeqpp46n2tNebRuIxx2v0rI3b1Z+1llnjQf14ideTpW34L+Osh42TNXZbupy0XhTSLwpWjfkGfmypVP7UdunyGrtax3LQzfYBwgUczqFzuCem47U+rWdxjXukLiJl3CrRnh0tfTLYDHW+UtXaBEknvrwqphXuzLL3m/gTV0rs9m/j7vgL7xNlZmbstRyWY346Ec/Onz4wx8e0woyGIAqCx2LYTf9QR239bxdvKnwU9htuHVCuap8Bdxa4xz+N60MhwHdYB8QtJ2gPkdBh3SgfBGrhq2dy3NV7LXDrRrJ0/4sw+o1LDNE2IuxES/lMgAwwzZ730+DrV5Tt3jD10c+8pFxhlyNccK14eOfcplVOwH/3ve+d+vEOKS9Ey7ukPQ6dkattxa1bSq2iwNtvJ3CgzBtG07lHewmzb0i+iT9KfxUvnK/Dn6OIrrBPiDQERhbpDNQyhDjDAwAih9EyetkrQJIemhdwAOSP+Nlxlg/mhLaC6QtDbNrs9l2FssfrQvJj8LTPh/60IdGgw2zyjyLP+HMzi2pG+jUtg5q3HWW86AjAx3X3LftEnBPu27XVpWmwsevgn/6ZQ1f0wp/QU1zFQhPyZss5zk6Rxju9FF471guusE+QGg7qmvc0llqp3JNR0Mt+KGksy4kLyeiLQubKeI3vO+Fl5RVuQwGGLcMBmrdrROpZ2Tw5JS32X+wE0/iQcIx9g6tOYhm0MO/Ks2Uv2M+pM5c632L3chQG6amw287Spg6AI97MJXeOoCXdvDvvtZZ+F0XT0cJ3WAfEKQDtB1B54iiZrBrp4G4x5gHtYO1aa4SNR/71wx2lsMrf4tCmZKOGXb91WbqZF1o65TyNUgxiMDbVL1Xt9pGgWcza+Wyl21LAaLYYSpex85QZxnspP7aNmrvZ1H8g7hro9xP+ecehA3FDX8tj+sEPio/4SO81PJ1LB/dYB8Q6BDprG2nzalNnYRx0mkY6HSctvPErXa8dSJ5Mjz2mM06U6a9QpmQ+mDM6gx73cADJG8DFLNiy/R4q/WfsEHLr2ekXcE2wrvf/e7xNDzU8FNx5dWxPSI7qS+UgVDctVNtq4Sts2FkFhqKOzkk656TVu3PqMqMfp2zCdWvRcvTqoAHvGQLDrgBfkPcfB9/HTwdNXSDfcBQOwYDYKblNR/v6KK//du/HWetThBTEqDjCB9lUsEd1tW5qnJhsC3vZo95GTyknK6M2mc+85lxNktZxtglzDogr5DT8Iy1624HEWm7UJ4thTPYBiSMQJQ6vxiIgFu9HiUo8zwURBa5RZ7qcys/NS6IHyMb0kZpJ5BGDH0Meyh5oJpnDYPafFcF+URmlcEVKVf2rOMWXjuWj26wDwjSGXRs7/GaWVHYr3/964e//uu/Hl70ohcNL3nJS4bTTjtteOtb3zrucTJUMdziJh2IEqnP64B8orAYVF/4isFeFlJX6smAwCzefRRo/FP2VaLmY1ZtgIWXVqHtlpeEs+9/zjnnjPvhBm5QDUFNP227rjbeFCzavrW+QpC2VLeMJbk1WNLHDKBsd2gLA1Gyrb31QWcpnFlwX58NrFH8DOTEJR/al4GMIU+byr99XrSc8yD5fvu3f/tw4QtfePiO7/iOLSNdByKpq/DWsVx88yMf+chHpZJ3QsIRLp9INLonoLuNvwgIxy1vecvhMpe5zPA93/M9/+Z69JRPoEN7LegFL3jB8MxnPnN4znOeM86sfXMavfGNbxyfKXOdCn3nd37n1ihYvdW606nyvI46TR46/1ve8pbhNa95zaiwPIOOvigq/8oqre/6ru8arn71qw+XvOQlh+/7vu/bKm9olZBXlBZ+3ve+943t45UsCn6WQgtfs/iLO6X+gz/4g8PlL3/54Xu/93vHZUjgX5Wn66y0Or6OKdlQj22/IVcMKd3HKDO6BoVWc+hE/dNK1/vf//6xzesV6ZvI2wIGXFZdDCz1A4ZeH89hQpB/+i9iHPm5rzI2L5L+biCsX8AaVOARf+TPNX22NdqLQnzlvd71rjfc4AY3GL77u797TLvjWN0cq+zzdqrgCETCEbRf+qVfGt7whjeMe3LcFxWanXC5y11u+PVf//XhJje5yXDpS1/6G3g5KtApdI43v/nN42BJ3ef1IH7qI3WiYx133HHDNa5xjXGwc7Ob3Wy44hWvOBrudHBha4ev8VcN/Jo9+CvVH/7hH44yZKYC4WcvUA4dXj4Xu9jFhoc+9KHDHe94x7E+KFrl5r9qpCxIns9//vPHn3z4WhlFzx2vCQNpB7xXRBGmrT3Dne50p+EBD3jAcOMb33gckMS9Te8oInWwW6QdDB4ZIwY5BjRXbmbSiJurGbFZNpkmx2Ss3oePtGnaIzNTA638Ex2RTVcTFANOBuuCF7zgeL3ABS4wEr8LXehCW+4G5uLN09bzyoVyGIwYdHzwgx8cV/h8JpceUjfKmzIK28rwbkGGzeR/9md/dnj4wx8+XPSiF90ajB51dIO9AdipTPwpBKPxZzzjGSNZWqVYdPjsLRF0nZY78sxg3+te9xoV+/d///dvpccvo9Z11WnywZsO7veRDLZ7bpAwe4FyUHjStEJzt7vdbbjPfe4z3PzmNx/rKkpyHVCekL9u/fEf//G4XZEZlHbgV5U5apUdnoVlAGoYM5C73OUuY/msIihX/KSbsGjTEP4qZrnBvGVIvFlQR4wMIhf6GEPNCFu2tl1Dv5k9u88sOLNMlKVrsjbFO3BDbZtuB+EZLYaYQbaCYkCGLnKRi4wDUe19iUtcYuzX/IUTJ0QW6ANysx12U6/Khn9h3euzDLYJhG05X95TT+pGfabuaxskn+rWQhj86r/VYGeAvRteDzP6kvg+QyeIcoW2XOnklt3+8i//cvxhBIUfI5244hH0GL4YY+2jc13zmtcc61JH4Cc8mpXvshFegdGh/E4//fSxs3PHO75qWcLbblEVk7hImlYWTjjhhOGqV73qGCZpL6PM4XFWWtyVTzu8+tWvHvsNg5C6gLac7XOQto6/KzfKzAyb4q51iBJ2GWVdJsI7hLeUL7wHZJrMRG4TJkgZIe41/cgFt8R1ZaAtY1u+9jc0beOPaH6w8rznPW94+ctfPrz2ta8d/cwkGaV8o16fMuiqs0rphuQ5dd+G246UWz83g2cIDRroXP3fQVNbSvqPfvS6171udDOoN9jAkzTIBkqata5avncCfoRLH7KKd9JJJw0nn3zyuDUjH3VjECNt7QXyTJw2n/ZZGnQU9+te97rD9a9//XEgIm7K1MY5SugGe58Q5YGUBUWg05HAPcWgI1Ii/pms/lP+dMB0COHj5kopCatjUejqMP7ca/6rRvKihMgOZfOOd7xj9GvLHt4WRcrjaqbBWFsSj9IPLQtTaYX/GAb79WYkdQayV0jHLOxa17rWOPsyOIG2fKn7TUF4yTX1Eb7JQe0H3MhIIPx2dVjTF06d6zdWpjIzdEDTAJixY/x8Pc5yL8MsXPaU9T+kHZHBA+NV+xqE99wHud+O31lIPchTGeRvwGfAwIgrEz6zj+4/8JarnZNwpkV59DVhsqqjD2SFKTzjrdY3hO+U03N4kQa5szyfFQAzfqugDDnDi0c8B0kv9eC5GvUKz/awDQZisCFpQL0/KugGex+RESuhjcEiqFWg3ZuNGuE7Cc5w6wQZNSe8e5TOFZKHsJe61KW2KPkmfvJaNcKnEbhDN5QkxVLzDt97QcoWSO9qV7vauMpAUaWul4E2rxbypijNimwhmQUtE9rbjOQKV7jCuExKWVaeXFOnO/G6nwh/UczKheKWgRakPEF1DxgVxo3RYKwYMjJngGjg9MpXvnL8FzljzVCbZVv+Njs1o619M3kn/fA6C1N+Lc+7QeoCpFkJpKeO8GoQTC9bAVAWcmZwb3BCZ2S5Okv46geB8oU/6aV/oLgj4cSRX/qR8NwMFsngla50pa09Z7Yh7Zi8wntAN4Ew8cv9DW94w9FgGxiEp9QJftq0jgK6wd5HELoIYkWEMX6MmplADitBOpnO4zqFpKtTmHk5TXziiSdudQjpJ6+EXSWSlxmCZca3ve1t4yGWqjBmlWVRKCvFTZEw2mYEURKrRuqU0TA4QWZvygu17hepf3GkoTz6yQ/8wA+MZz5mpRdltwnAt7aByHn4C/+pJ0hduaLEQTGucdPe+omZplP5Xnd8+tOfPrzwhS8ctyUYMjNo7cKQJC64zxXJS/rpZ8k74aeQcEHuq9s8SHqVN6jpqcuEUW9kwrPBooGIwYo+55VP/c4EwOBEuLxhIA31wU35xE/dSpM/92qshfGcOPbOreQdf/zxw5WvfOVRZ+vv2sNAQVrChufKt/iIPyPtfIZl8SyRh4J6f1TQDfY+IfznSnDBcwTY1WzaLMC71mYJlFEQYYeEDwh+VXiedSDLwsJ6Tt5Q71cB6YcsM2bPzYwAL3iv/C8D0kWUjsGKGYDRP6WyTlBW+ovyUp4pL+yl3hPXlZKjJA3I0rao5pPwmwK8ha8pXlFF7SOR/aShX1iJsgxsJYNhRgz2mWeeOa5wqHttwYjpV+SiphMk37jHLzxV/1Ui+WyHhGnDhm/lQ1YN9DtGWj3ZovE6mQPEls3zfQDGNwYyaSRt6binV5K2a/SMZxCfrma49TcH45xmF5a9UO+QflDTzDN5zh52XkvlnjgJh44SusHeRyhDypGRLErH4GZvytKdwzAUTZDOIhwhBs8Qt+pOQdnHvfa1r701Qk5+oVUj+VCap5566vhuqvIl7712wjYuJaCjq0f7a2TIDNSrMuuCMlGQDjIpL6W5LNR6M3sxIDEoMyBplWhkYZOQ9g48A7fc5wrpF8qiTRlp+oc+suzLWNNL+oslb/vUDLX6F1Za6kV89+lDyaPlJe7AL9T6rQLJq0XlNVT7MghT210fAG70AMNc68w2AV3OXRrCIOnEUKLUP0oduK/1iTwz2vae7WlnoAxm20k7FP6TBminGOysiglTEV6OEjavFx8hRGAJXRRJdWegdSh7UowcQSfQ8QdxGeAo6EA4y1u52r8ywzCjzX5SRTrKOiB/CoOCAHmj1MOinbDWSQv5UUoM26JI+rtBwmZ5Vr1bguWurK74dA3Ni8TJwM7PQChh9RtZigxsGpQ9PKb9obppq+y3ek4fEZfMa1NLvI95zGOGX/3VXx1+7dd+bXjWs541Lvnas01bJ476ijFSZ56lyRggz+Gltkd4TTqB+9BuUMPvRDCVJ1Q+Q5BypA9xV3f2ravukKYw6kAdkU9G+y/+4i+G//Jf/svwn//zfx7+7M/+bKxHA0xxpJeBvnQ8SwMF/IThJ1/pg9m1A2Q/+ZM/OfzKr/zK+E0EhlyYGGJhU1754bfKrjCQdhMubkcJ3WDvIwheEOFL54DsfVq2qh0Oavgpd+AWd8LvtRBKPYosfgmX51UCHwx1liZhmfkqfzqzepEfxGgq+17y203cGkYb5jATxRmFtCxISzmVy7Km8w7yCeQHy8xzmdBOlQL3MQjKkDY1W2akfeXvCU94wvghGjNq+7P6iaVeRibtDuonfUQaSav6ofgh+SZM6rhNoyJht4O4uyVIfiD9UIvEYczCZ0WNi/gnbGClgpyqQ3v86vTP//zPx48bPfe5zx3r3KDQADR5JJ3wmLqTR66gLq2OevXrOte5znDve997uO997zvc6la3Gj/+AkkPxI0h55b0g5TjKKIb7H1EK3TpeAScAjZLMMq1dy1s7RgBt3YkOosYbAdxdDpoO8I6IG8KlQGthiXYK08pK1SFEsNpsMBtL9iOx9bPygZD6qqdKn97RZuOAYlTwcqqjPxj8PajrXdCeMJfZDoK2nN4V29kRj9gOF784hcPj3vc40aD7etxypx3j9MPxEv9SK/NK36RkchE8k3eNY3wxo1fC+4Jv1ckv5Qnac9KXzj1hFLWIGUOzwkrHDdlDfipa+ctvEbKYPvgjzr3yWOHJtW1fiyN9K/Km6t085yyMMKWxm1xMtjIQdCLX/ziW68jhicz9RjtuCfdPB9FfKPUdawNBLAKJOFPR2JcLIfbg6Pso0DSEfKcuK0AJ+2ER0bIDDZDWf3WCQZTh1cmnb7mrww6NloUs+KbQRiwIPto64I6p+SsJuAr5a18clukHWqba0uzTweIMjCJ+7rbeFGQfQNV/SD1w3hY5ndI8Td+4zeG//7f//vw1Kc+dXwVy5I4CBejm7LWNNI/ari4B/HHQwyRtGYZbv5Jt6Vlo00fL1MEeK08C1/LlPj8gVtddVK2aowNrA2SLJc/+tGPHg2499f1I/72qpOWuKkb8cOXtMk/9wwOvNFw+9vffnjUox41/NiP/djWp5NBGuJIl+Gu4MZPWuH5KKEb7H0EgYuQR7hDZhNm15SS5fAg4SOsbTzuSbdeEUNpHzfGA7iLlw6+ahgsMNZ40Klb4GevSJlCIF/lt2rBeK8L2s8MmxJMW6jrKJ5gL+VO25lZO/lLdihaaSbddbTtvAhP4VM5otDJiMGqw4leybL07dS3QawyKmsMTS0nVLfIQIhb7T9B/IF/pRZJe5WoPIcv2C7vhJsVpnUTvg3rPvWD9FF1bavBq2DawDmBxz/+8ePqhhP4dWuLnDOm2rKi7q3z89qWT6w6JGlP+8EPfvBwi1vcYjwYyl/b4iNx0hbySBpHEd1g7yPSKRAQQsJI6O0lMdg6AzeI0OoQrhA/V1TTDEXQKUHLpoyIPNq464CZX/LHU817rzy08VOfYNCTZXFXSP3Mg93GEUa9GyQw2BRQ3Ctfu8F2YfmF5OEjIQ4pmm2Hz/hvIlJPAQOB9xgHy7L2q/2dTp+o+9NtXOCWcge7LX9tl6SdvtNikfoMH7uhNjxsV674TfHdphPstlzcpGdlyiDK/vYTn/jE4SlPecrw0pe+dDw3Ycatb6dfZ+DlXnxvLjDaEF7Ut5PkDqT96I/+6HCPe9xjPBVuiZxf5R9SrsSN+1FCN9j7iAheFU7KyAyCwkIElH+7BOQ+Alzvp5B8KHRLtD6ioIPFb5XAWwgY65zW1qlzqhSEcb8TT1OdtY2X/DJCB0ab8WRE+afuEjaofhXS4Ta1HOcZVT6U0cyEoaHI8E1pTQ24Kqqbe/FQELfcgzTBSoKDig4XtvUUHlveV4Gd8uGHN/UQA0zh+5COb+b7KYyfw/hgkDar5Z+V9pR73Kb8KvhNtStMxd0urVlIOrsldRPyXFH945d4bdipcJ6n0MaFmmZmyga99rQdTLNNYVBFr2hTfVr6qc+0XXUDYaXH38dbzLRPOeWU8Uc2DqhxJ89JQ/icHj+q6AZ7H0EAUQUBtexHyVu6pfRrZ9sLpEMpMpgMpzS5LSv9nSAPHd0MSqfzHIKp+gjiV6lF0qnpKlugLg2GLBfDVBpB/JLmbpF8lU85kVlhFFXqGm2XP6ScCd8iijB+ruTHnrlymhF5XqeCw0Ot85Zvz+pCGFfQLmQ+h5xcDTrsXRtc8U9dLAJ5tnxMYbfhjirUv3aL0aRLrFhpK23mcJrPJ5toWBlMWxusRv5jeCPX6Q8Mt8+bOoTGcJtxO1FuZi4v8cXJzD3pHTV0g70hiHBT7jkZzk3nINSLKKt0DJBW0ovBBnlWBbtKyN8gxLJtDHbybsu3XXnjV8NIq1751fSB4jdby2AFhGvzat0SNmj9UNyigDI4UFb3CRdFU9Oo+U3dJ27coKaRMnKjHClRM3uDBYpTnusCHmqd59m1Ep7Ui7ZwENKHTp72tKeNe9V+CqOdwnfK2bF/0AaMrbakQ7Qh4+lK3nxdzm9/nTfIR5HywxHhqwzW9uRe5cP38C2L3+9+9xs/TWrJPPICZu/h4yiiG+wNQDqDEWteXWFUq2AvorQIOoibDkGhm4FZEif08s2od9WQB4NtWT6zvvAIlc/qDtVd58195dszcKtlyr2ym7UpO2NRFcUUxEkaNVzcguqXq/Tlpazc2jjAjV/4gNoeyH3FVDoQd3WTk9UMoXpu01gl5BVFHqiLtDc+M0tirO2B/uZv/uZ4iMn7vxRyVcoJW+uoY3+gLbRfZFa7Im1lhqx/OYTmdTunv33dz6DV6W9xyWb6XSCtyHnkVFg/KfJpUzNsB9TIRCB85P2ooRvsfQbhzejRSNU7pYy2peMov3SSRSFu4uswBgNOS+d05zqEX/7KqVyWOavRhalO2LqpCx24fnoTpvivbrk30jfqN/N0AK/ysJ1BmEq/opYjUM+MpvwAv1FINb02Hr+UDU9VuVXM4tkz4yhv79Iqc62rVUOdRp7xgmrZ+ZFvrwZR7M95znO2lr8ZcEq/ljv3bTk71o+0a9ueaR9Xg0Xta39b25p1O6RWB+mQdpVWZBbc6wOMtFfG+KP0mciB/Hfql4cR3WDvMwhglBxB94lAwk3RRnm7RlDnhXg1rnQZa2QvN51w0fR3C+lTxjp0DHbcp/KunTH3DLUvJtnr8j3wqTBQ7ysoCPu68m9n+ZWmkDRnpR3EP7P5GOxFFAxeUk+JW/mr/OYqHDIo866y8tY4q4R81HFtW885WKROzLiy52lW7dvflu/Jpfaw5+4+WBfvHdtDO2hXV21Z5TnGF/E3WNW/8goYo22bTztnhi1c0oKkHflFyaciYVr3o4JusDcAhNByuCVMBjsHNiLYiyIdCtLBpGlZ2my+fqpzr3ntBB3SrJaxbA9htUiHrcC/zxh6TzM/E5gaeYN76adMVRmIY6Bij5SBiFKo6dS0KlqeWvCXlnwZSgY7AwMUftr0xUvawmQgEdR8Ezc8h+Lunp+BglO72lh7T9XzMiF/fMs/y5fqPXVPztS5fWqHk/zMJmcJUoaAmzKYYWV5vGMzkHaOjObUOGjrDLbizkgz3E6SO/1PBrKyl76StnaN/LbyEMS9uh0l9J6wzyCchN/s2vuzrlF8hDIKb1FIp3aCpMmQMCgU6TqgTDHWU3niKwYtcF+f8z1iv5D00YWUp4bhBnHLM7inSBiKlD3+rqF5ILy6Bfx7Zqztk6PMcFs+oeVbOnGzJGgVwXUWT3GfStdMldHO36pmpbFM4D9ypr3xgTLb8u6u38Sa+VvhIYeQdhcvfHLj38pEx/5Au9T2BW0TSluH4m5VhRx6C8CetsHaa17zmtFwg7Ri6BPXs75JhqQB3Du6wd53EEQjTh8fMMNul4vTGdJJFoX4ScNVJ/LOK8UOtSOuAjofxW0PW3nS+QNuKEiZK0/++uOThieccMJosCvasBC3pO1engy295Qpk5pPpVmYCpP7tJWVhLw+lkEB94r2uaaLR8v+VhFcU0/JZxakiaIsrdo4E2GWvWqEb1d5k2H1q80th5pdeWfXCpKBDHkA/Arr2qYhTPw69h/aJgS17UC7obgH7vX7N73pTePHVnwEh0wYtMUo5xrZmWr7LgfdYO87KHQzIMLs9HbbCQIdYV5II+noCO6jFBls+VHq/BZJfx7ogBS15dko5UoV4TnKgT83r3j4Gf7lL3/50ZDhO+G2Wx6v7urWoMgI32Al9TIF7q2ftOQXxL+GTd3Wpb9axp34tFd/2ctedrj61a8+/sM831iuaSS/mgYkHfVBtpy8tmozJVPLhLTVpTyRJU6rGJTzr//6r48za23PHQlvVoUvwDOqdZvntv461g/tpa1aQxpZs3KVZfC0W5a5yUXa0CDWTNuBQ3vbGUxaSUp/Fi8nw8WZavtVyvImoxvsfUIUHCVGaClW+z0VVVD3IqDJyzX3ZpmMlpGvTrhqyCMfEZF/KEhZcw2vIWCwvadpWfzCF77wN9RPDQu5Fw55xgceGFUGNYedUj/BrPuKxGnDqlszbIZrKp3qFoQ/Vwb6cpe73PgRiatc5SpbBhvaMnuuBs2V0gTls2rDcOZU/Kohf/m++c1vHl74wheO35v2Tq5BkrpWJ/gQDv8pA7ivPMYfdew/ZrVH7c+1H8Wwk09X7cxf/6Dv/AGM0XainB6sYVxDcY9fno8iusHeRxA+hsPeNcVKkKN8Q56BkO4GU4LMTfzaIRgtA4QYrt2mD0lrHlDWDLYBgvzbUXquIaj5cGOwLRObZTPY2+3vViRNacnXqkL203eaZVeEnxo2catbBkOWhIPqP4WahnL90A/90JbBVu7IQcoSuI9fkGf5O1xohm0AUfcJK6bcFoU9e6sLZlFm1z6Coo7xaWCEpxhsSHkQHtq28Lzb9ulYLWpbBWkzbYpqf4i8pW2BbBpQWm1jqBlsqy++jsZok5GkEyRu0kmaRxHdYK8AETCo91AFjuD6HaIvAzFkgaWlCKTlIc8V8XPVAdrnKOz63N6b6Vieso9tn7F2tp0gjPAJW69tRwtv8rOSYKZX+VEHCZeZYZB0+blnuOxdO4xlSdxsu35QYRZSLumgHMiyj42fLL1B8nSdKkvcXVOf6gK0k2fKyCCMcRI26ST/SiAtBMJK45KXvORw0kknjX8zMjhJ3ZCH1Bm4Jv+kF0UpnLS84uWDFoypsJRiGz/PKVsLblN+KR936ZpZ509OBqGpk4QNkk7SnUp7v5B6nIXadqvEvHnM4kv9o73yrH1CO0EY+WnXyGfuyad7VwNJsvI//sf/GGXUQJqfuNJIXOCWshxVdIO9IlTBJoAoz64MGOH0zXBLhpmFQA1LYD23aDtfBLnmm/uW4mdmzWgxXukg21FF8m/9qnuAf8bLzNPstvq196Eg94wqg+3gGSPgFS8z7RjsGmcn4EfZ84nWqXwhZXFt7+tzwGCpS7NaqwmeoabfUoVnZbvABS4wlu24444bjbV/BVtZ4F/lIYqrTSvPCU8p5vvO+E086aCUQXj3NX5F/DILci8+WVbml7zkJePM2mcq5ZkBAsXsCvKWTvLcNLR8ecZzBj/Q1suykTzbeop7/GYh8UJTbbkutHnnGZEJ+sBKH2PtlT9vE3imD4VJWclZ+tNRRjfYK0KEst5XIpD2Fhlsyo0wEkyIMoQox4r4JTzM6pz12TUKGlG0li8ZmSgjmBU/EDYzvpp20m2hDIxFlqBrnClKOknL1azaa12MmfwZMp8vzAGm0G6h7Ax2RvRt3JaHwHOtK0gYgxKrCE6/Zul/Ko2K1t9yeE6IK6v9a0vjTsdDjF/ibZe2MuEBP17vUv/ihv/4e046SXO7uox8Im1rRcGrWpY3fRPcqo26iH/lWV5t/W0KZtVleE7dJNys8LNQ44da7BRmljukTYB/eI57/DYF+CEf+iIZNdM24HOC3ICXe8opLFkNNq0s60I32CtGOk6UFEHjRqF5xcXSqVFmEONR40AEN4gAJ3y9F7aGr24oaePBxzXMjpJn/NuwSWe3CE+u8mEsLMEz2BU1zXqf/JHBgRm1X/AxYp7NPp2kdqIaZvE2y50yMGBisKWXGZT8IHlXpDwV4Q9RPgYBBkAxavNAeIMSy+HKx3gbqFzrWtfa+t1gy1MQfqf8rSIYmCkv3gyelEV6ZvRtXNeaF76q4bWqobzSsO/ovVrL4N50MPhUt+KHwFUcaUpP3E0DvkK17Mqs/Gl/ZclSP0rY7ZA6FQ+18hZIXz6VgtavoqYjXA07hd3wvFfgIaj3FdzVLR1hRcbvVB/zmMeM+9sGgql7/Kq3Wq5ZaR5mdIO9AhCuUPtMyCg+hsJPPixJ104VIaydrcavsEScD+Qn7SiSKbQCriM4HMVg6yzya/NoUdPYLqxw4V/aDIVZZ0bNiTuVXvzzrEyMNWNmxsmdQfPVsxjs7dCWG7QB46IdKIUK4WucPIefoA0nTe3pTMCisHJgNq2clHoOoFlNMFhhLLVv8k7+U7yB8NqB0XYy1wqAdGu8mk5FdZdnSByyY1bkd4pO+5oVqUvukLg1XfdVrjcNypUyVnAPQcpRy5d46nbKGCdsyp/nmmeIW/xbxE04+YSvNmwbP+FmhV8HWp4CbupEPzSo900KqzWMd1YfE7ctx1FDN9grQitQVVgZLjMxP2dgLHW8FhFiqOnUdB3AyjvJMdox2MkrqM/uhdVBKFkjWQY1HaNVRlDzrYhb9UvcpMNgM2Jmdq1xDJL+VHrqRxkZ7BgsBvzSl770aNCi5LZDLQswrgyO8pv1p67Dewtulb+EqeHNEnImAHbiqSJhDUQYaEv93FwdrmOwLZPHHVK/nuOW5/AVpa4NrOgw2HXffzuqkE5kS75k5u1vf/v4g4fTTz99TJf8hJc2ndynnsPvpiB8h4I8R8ZQypH6Tzhhari4xw8SVz9wX+NVA7wdQc0L2jBxr0ic/cYUb4E6cRDUINDyuJm2wab+GtnZlHLsB7rBXjFq50YEzayWIDpcYcZJESYsCJNOF8EUN/4ReN/UvtWtbjWeJjYzS/j4J436DOEl9wyMV38YnPhFoSTPIGlMIWUNwotlUwZbp6vugfv63KajfqwkOHCW+jDbNGBhxA1W2jR3QkbzDA/eGJuU23XeciNtmRl2G3+3UE5L/dmbVy5lZcSvdKUrbc2Yw09bdyAOEj/taLCUr56lrrijxK91HnDLQC7PjL83GyxdStMAlD8/+bV1WNPnJn/laPleNqS/W4KUofLuWt0B/xm8hIC/ukr5IWXN9oZryp5000Yo/NS0GfJQ8hInMit8/EJJB3JNfq77ieRfeQz4KRe89rWvHf7wD/9w/FkMHaVc+E/dHkV88yMf+chHtZU2CwlnxOMvO2aJlPFu4y8ChuiWt7zluPxJOQerzHOvIHQhfFYBJXT2+pyodeAsh7BmCWGND551Tsvh6uUWt7jF2B4OaaCptJKGK4pb7s3g7JuarVMqEL+KKbeg+iXtkNd7zMYsydqvT9iUS51UxD1X7X6d61xnuOY1rzkaLhCH7KlLBjLnABJnCsk3UE8GPb5NzlBSpIkf3is8t+knTA4R+guVwQ/jvRskvvIw0ieffPI4CDMYyUCOn/IZYKjDts/lPryJ574lAzKDAe1MfshRhXTSFsK7d42SRFYk/LjDf6wz+1FW4UAa4Sf3eQ48h6dVos13JwjfGsaahnvu6pfhJTP6jpWe448/fpQjX6a7xjWuMZKzB9e+9rVHyj0ZRp6Rr9l5196bANpGP5SmFSV9MTIQow54CF+13tv65Fb5h1XX+aLAZ+QxPJJXso5sEeU1zto+Rw3dYC8RtTPoYHhE3HM10/F/WMs9ZipGkxlRtuFRRfwodkri9re//XDTm950nCUyFvUTlImbK7d0dPfgnpsZHAVBkajjqhACz61bxVS6Ce+VIobVATuGjTvlX8OD57gF0rH8rZwUm9edQBx1mS/EMSTiJq1ZiL+r8PaLKUoDAUqYW3ivabV8xT9h9Amv51nK0x7KV+PPQsJQQur+5je/+TgI0yb8pBN+KDD1aMmw5SfPwk4peWBYL37xi4/L66ju/0tf3IRveSej2V/8sz/7s9FYZ9UEj0F4rWif5dHyvwq0+W6HlB/FcKQu84YCXWQgxXA4BEgerXp4V54xvv71rz/c8IY3PB/d4AY3GK573euOdL3rXe8bKANRacRok0VyaUAgTytLeDDIyiw9bZx6dFWG2n4pU7COOq8ID2gnCKNMeExZ8E6+6A1tYkuILiC3nneT7mFDN9hLRAQt91EA3FAMDINtmYebcNW4t3Fj2PglLR3YTOxmN7vZOFuiwAm1V3dqXPeQfMA198CP8FMGN77xjcf6Tj4oqM813VxRda9hza598cpWQDvzTDgQtj6DZ/u6t73tbcelfwOL1Bfjb5CCyGLQplERP1dEAZvVUJjqAJQ/qHUFiVd5dcWDcr7uda8b2yN+OyHhKCFGgLGm5OuSMX4oM8rLPrTlQbIU/5bH2vZQw6lLgx51WQcFCaNuIc+ukQdLlE9/+tPHd2brazc1LMin5u8+6awT4We3EB6v6gAxjOTDzJkxvvWtbz3c6U53Gu5617uOdIc73GHsg9rLTJnBpacyS2Zg1Dcit/oWg4Py1gN34QygfI5WXl7jY8j1R/JgxeUmN7nJmIcw4pGP8Jn6jcxkAFXboCJtMct/mUgb5LodWl0HnhF508etiKnPrAQeNRzNdYUVIUJJwAgcAcy+LT8zal+CskTMHQmb0WKEs6YD0koYRNEasWdWSNEbjVPq/OWbTgtJJ+nXe+EYGHubBmJ4DF8QXlrUtGqYuAVmZvY4c4I48ZB4ylbju2+fKSKdNAaVksK3lQYzEQqszXc7JH1xzBqVvS7rVoSfylNQFaa6o1CSTtKq91OIvzIypBS4cgVRXNz4MbSMAdS6q/epnzZfz2RHXQqbcLV8NU78tZ+Podi3NsN3WE855Rn+W+IXCrhDzW9ToH8xopa2Gcr73e9+w0//9E8PD3/4w4ef+qmfGu573/uOBpofY2rpW1h9j4FmdLUPWTSxyKzYUq7BmPZD7vVZfpk1axNxxM0yuzSlbUBuJq+/W335kR/5keH+97//8O///b8feXvIQx4y3OMe9xj5suomHXmo39oWyjfVFqvGdm2+nZt4ZC9ybDXHZCd/+qKn+B01dIO9ZERAdQ73UegUnJmRpUQHk7jFgOlMU0haVbApAMualtGMyhnpKAwKIPlG0JPGFBLO/ijeKGLvS+Orxm87VUX8pvKRhnJLMwYbEraWC/Jc3dQNBUcZKl94QhSgOjBzqXGm0KadNGKw1UGrABIG2ri5Jo7yZe9auBoXEj+knaoCZbCVRTkTHxLGlRGgvLV3RZteNdj8QD2qJ0uuZoLqThgkXsIFKZt6US5bON639lEUq2qJNwVphafct/Wx38CTvqNO9SeG0Z6y2SwD+JM/+ZPDz/3czw0/8zM/Mxrv29zmNuO+NCOqjfTDtvyzyp16rnWQcAkL8a/En/yn7QwWbIU94AEPGB72sIeNg4oHP/jBw93vfvdx1c0sXFnoAwMBcpU8kl+L8Lpq1HxyP+WGx7YeyDSj7bvjp5122vnO/xwlTPe4jrlBcHRKSKegEChGfgyiJWvfDid4IJw4ZrSuEdbAPUUrPmNHaI2i7X1ZemPAgAKhdCzfGV3XNGCWUKeDyJti1gkYMDzLLwYWhAvCZ9yknzJUd8+UO2NmBop/qP7VuKDcJwzFaEaobGYj3DNbqEZOXXNL/pUg4ds8lJdBwl9mjTVe6h3iFuBDvmDJjjETtg0H8guSt7gJq92smCgr1DoRxlW7WC4lA57l5QoJm2dQFnHwSXmboSH7rp5T1sRzLyzIn7/BpfdhkZWh8OWqblLvFfGvbRskr+q2V+A79QjuK095TnkB3+TGzJXxe9SjHjX8zu/8zvCIRzxiuNe97jUaZzKX+gi/SSPPNe1QhefISfzDQ0WbTp6TV/UHbtrWCpPl+nvf+95jGR796EePZbjnPe85DuoZetBWaVP81DzynLSXDbzKu8rClFvuqxu4R8qgn/p86VOf+tStsyKJU+PFrb0/6FhNCx1BEP50rqpIgTuj4EMpjLXDQxXCprPUeBE08dOpjLIZbMt3UQIMkaU0nZcbzNP55GO0SiEzPOIi+ULKFQrqszAh4K4ezK4tqdpzneo0Nb0pmF0oq2uUp6t8XC0BMnIUU/zDQ4uWV9AWtgSUOzPHlEuYWg8VcUsZxUfSm1WmpJv7tK02M/gyCGNEQL4Jj4Rj1C2bM9hmULW8NVzkwjP+1B8jbTmVIZJX+K/lEz7lF89hPvvWfpPJcBvQkDXhkbgJ34JbaJUI7xCeqluAD7yrNzNRS9xmqGand77znYcb3ehG4/6xGbQwZt4MovSClDv3FdWvRfxm+U9hN2GFIRP6AJ7xbqneAU0G21K+VYL73Oc+o86IzKQfRk5qG3pOHc7D77LQygsewg+ZNLEwMLa16DO4zu60mJLJ/SjLKtAN9hKRzp0OQWjcGxmavVoOZ7wC/qgKZRsXcadsKNos3Zl5QowXg82YCwdJb7dgaGKwQfw2jXSC9ioMPtryK7cZLEPoPuHngTLb28tABOSH5Kcesu9Xw0DNz334gpQrSsAHbBju1Dm05Zri38qCQZh6E59Rq/nMgjDylgely6gyxMqasiUccGNA+FPM2lq8hMVb+AvPnuVhCd2JZbNrg4Kad8IF/BA59X1wsxkfRvEsrDoWLyQd8d2vA8m3vYc8xw1f6sJgz6DOnjPDdZe73GX48R//8XEfmGHjZoVK/SZuTWfW/SZBWbWbVSiywWgblCjjT/zET4yH5MzEtb/BLdnJ4CttDtp408qLJwT6F51itdJX9kyCDJjxj8/UA+R5E8qwLHytFjqWhiocrhQaZe6b3V5v2m6PM8h9/AkggaWoTzjhhPGkqM7GPQqTwuFHOUFNezcwwzaoYLikWTtJEL6nIGz88RXelJ2yn5efwEzHzIChkEYI5Ke8li4tjdfBSovw1PLBzew/3xWXZq3/9r76A4NtJqqcmaHzT31MoaYhnOVpAw6zZ/c1X+lVGKBYOreX7V7YWi5XMpY2ZITMupyyN7Dhr63Dn7gGLOIAA6c+yIIT4RRi0klcVxTZ4x9DvmrUvOSd+uGOPIeAYbLyZI/3l37pl8YlY/c5JR+ZURZIOtJH9R6tEzXf3VCgXshl2tm+9oMe9KDhkY985PALv/ALwx3veMdRhsQxkIZa7lp/cUfrwKzyQPjL0rg3bbyt5EBkXpElxwkH4ib+YUA32EsGQSEwBJ6g6DS+BmXphpDVmWYVpoSvHUNaGQVTzvbbvNbASGU2mY5lKdXomYGr+e8W+GJ08rlOCkwa4TcdIFeo9xXJO2nWVYV5Ybkvsx+QLqr1pexmp1G+Qcuf8BX8kU6efeza2Stq3PAAFKPX1cyyo/Rn1Qvwq3koh1mztjM7qm3nHrlPe3g2Y/YamrqJf0X4k57VGK8dWRLPDFI9iRceImPiuBpc+jiK17fUSYx1DHTCIqj3q0abF16UBdQPKI/Bif5iBu0Amatlb7Ns9afOhUscA5XUR9A+bzpqmyqP8tEb6UMGKV6RdYjuoQ996LhX7/3xbCfVumyxrvaFWu/yTX/gHh65mWl7zfHlL3/5qF8NmFOOpCFc2vgwoBvsJSJCTVgICQVHiAiVfZfMfCAdI4LVKkMQJh1Pp6JwLHfxT+d0j3RKiojxYtCTxm6BX6NUBznyyVQ81QGG/ELcct8i4RmzvRpsS8XtciXIIx1R3TDYMeoVLX95Fl8domqwa5lSjgpu1V0Z6+w87ZpwNb0gbvzVseXaLHFXBZP2h5qv2bj9VvHEafNxjdGioC35mr1zl2bqMulJwwBQWShBr834klm+D87PFV8pX/IC6fBLequEPGpfSZkCWyhWW+zV27N3oOyUU04Z35c201afyo+UC9/SUF8pU9I9SAjP6sI15dS28aMXbKlZbTHjtn9vtu1wGvnI2YZKoK7X0bYVNf/IVtpcGRF3K0G2bKwEmWxk9SVYN9+rRjfYS0QVcPcMgZmXvUB/nYlfBE6YCGAVMoifNCzdmRkYDVPWZu1RNBlR6piMtWVzBmwR4I3Btpedg3EReNfcy7t2IvcVOo0yUfJOxxsILAplt+SdNEMQfpQ3S+J4odBTfwkDtb7CN1LH2gevGaBUSlxI+nFXT/WHH2nLGi9uQfxSDuXTvsoIcYfExzcS1+DMjNzWiDYXRtn5Jyx3WySUs9e4xEvZIeVIWcTTTt61diLcV9tSPzkwKC6q/Ce9uK0a8kleylMNrdmklQSvZf2H//AfxpmkFQYrDSlL5RnyXPmveRwk1HIpq7bNQCvlceWm3qzS/NiP/djwq7/6q+OVvET+yWIGg6imvUrIC78gz9o+aUM8hk/9zwqX1w79TCnugbjr4n0d6AZ7yYiAEDTG7+yzzx4NoBlYBCmCN4UqrEgcMwPvX9rLpZQoKpBHBBrxM1PLq0HzQhp4trykI0g7I1Z8hJIfVPdAPM/S2MsMWzkZbAY5xix5p+zAgJkhmI1TROERKl8wxTvFxuAaXDk45rlF4tT4ymdWTmGYme4W4Uk6yqi9rBDU2VB4C+KON3Es6dqbzjvZbXgDALNK8hCDFbhP2NShcvjsqG/cG2AaFJpxy0/4DJgSt9K6IP/UQ/qA/PFmxcHBKofJXPUXg1eykcGMcK7KlHIlzSm05ay0iaj8KZOypXzclNmVmzrJQUdy5AtuP/qjPzoOdiyd21oTfp3AF9RyoGDK3dWAkp61l22mbeAZ/5rmYUA32CtAFIAvXxEgCj1CFL+qNAPPCZMOR8lQvk54Ml4Ujs4WCJN0LIGZdZmxLQJ5MlqWmRxE8iyv8Jx8wh+E5yB+yieNHMaaF8qlPBQHxRIFHchDGFcGycqDclvWC09TfFXEn2LCY057G6UHNQ1Ivkj5DHAc1EsZp9q1In6u0jLIYrCz7J8ySQcF4T/pK7PDRAZz4sRdGHXgUJpT4eqOW+XJPRIv9WpLgMLzcRT3lQf3wiWdXOOHVo3kk7zwTjbVg9UGn/D0BTCzaltH6tMAKPWJ/zroQEknYeZBrc9NhPIol3K7Qnj2rC7UnysZsW1iT9uJcp9gtSqjboVJ/FUi/LriMxS/ivosjv5q+8ZX+LzqpT9aNYs/aO9Nb7PdoBvsJSJCRjgIjJmqk4xZEiZolHI1PokzJUyEzexS56GAda4oySid5IcoKHtUixpsaZgpZsYYoQd5pkPlOaj3KYcZmtkqI8iwzQt5MdZmkmZJ8qh15Dn5qlPhGC/XisobpM6CpKPT4zWfFw1qPokXJWBWyrilrmpbBNxm8a09rQwgfHuOX5tnkDawH2lWmcNqgXszJNsnljylKY0o58QPn/zMpB0wM7vOiX5+6jUyl/LVNFAGdC2fy4b0ax7ay0CHcf75n//5cZ/avQEQfg3ChMmsEnEHZajliH/KFDpoqLynTCh+GXSpB3Xjqg6QZ9soDur5uhvD7atv5DLprRrhvUK++Ez+abNc09bufZTKl9CcwXAOJ22fMIcB3WAvGQSEcrMnymB/+MMfHoWFgIF7AlRRhTHGnBuFacZsWZMR9hyBds09iEtZMVoOG1FI1X+3MFM0a2S8DDTwmg6T9NIJIHygGtZyMeXvHUn380I9UBYoKwstwoe8GbAYvvAZvoKEd23BjeHV0RkwzwmX+xrXPYOtnS3JwSweUeUlykYb4Vl74Z9b8nAfmUkakDz42SLR3pbFY5ClRdH6IlpmSNJKGqGkrY38tMQ3Aig8Ay3++IhSD9yHP/HlF/+kt0qEd3JudcH71A984APHlQSrUMobucdPKEh8/qGUZwr8DyJmladCvShfwnqmX3I+wnvcvp7mFTiThap7VoWqG6far6KWMeWgrwygHULznnaMtDSm+uZBxOp72T5gNwK7SlDglJ+9a4YPP4TGlRBV/up9BIsbosQpXgbbMmc1wsJFmLkhnSpLwzrevEIqT8Y1hiv7uVM85xkP4SnuKDNsdUHxJ8wUwn/uQVmtLjDA6iFlbRHelN3BsxhsFN5Q+A2ST/wRfmOwocZp75FzCRSEOhN/u/qu+QTh2UyRYYWkPRUeapkYKAY7r/p5zvKwlRZQj+LEMFWDq+5sAXiXldG2j1/Lnhlq5cOzNMRX3qRXwyyCWfGrm3urLsr2wz/8w+MSLqPtWdnxIgzewl/up9LHN4LWL0i8lg4CWl5T3tRN/LjlGZFFMnW7291u3GIwAFTH6r7qoITP816Ah1aWptotZQi1/iYctnYcQMsh0ra8syC9TcehM9gqXcOjPK+rIQgE4bAETGgY7Ar+OoMwUwivwrmaWeosTm9GUUIEz3MUakBxO0iig+UQU5tfws+qG8bWPraZdvIMwl86E7hyT8cAM2vxGQD+CQtJA1yrsnAvHYrBPqSBR8rp2vIrDjf1mm9x1zDJJ0j9J0zyAh3cie8YYH6Qe5T83Nsrc5pafSVcRQ1f2849yhaGmXKQvGpa7kPhO/cOVjkJbUDn3lkHs031xr+Gl676RfI3QLEK5D1WA8yECxLXNTwHFKGVpLijhJ8X8owMVITn1IerJVt/qPK6llk2N7yAtm3TCNq0Wrd5MSufTQDeWv5qWatfLX/kJf50iW0Xr4D98i//8jh5MCCu/VXfSZ+FNv1FEHmb6vPhEeSTsO7xQRasatK/+UJfjVNR3asMI/ebiPkldcOQCk4lp/Eglc4vjb9KYpwYKnvA3r12hRhVwi0cRLAjdJAyuJol24ukfO0tzeoI6SiBZ0aL8s4yVmgnJC0Gi9AzYOmM8ZuVHp5TDn6Wp6wuRJkmfMJAm0aFfJXbzGm7cOFNWfMeuripSyR+0kj9BpVvbefwCkOmLaUrXsLUNBgrS+IZlHDTzkHiuUonaSBh8ahsZtgO/SRO8tgOCYesqHiVidG3dOm/ybUOEj7txy3yaNnQK1wGKVZCGLzw2KJ186wcwVSceVDbBW+Be21r8OYksxm1MhqcZRUJpXzKlr4+hZo2tM9HEeqgUqBeyaZVG4fSDJJMIEwIGHNh1TNyn4HvMkAWQrPQygs+tD39ZQCaA5Q58JswqE23zavWwybh/Nr+AEIla4Dco1R2GiBh8rwKRFgsMVKEyJIpcAdKJbzqDK1Q8Is/g5tXubIkjMSp5QxVUNjim8EFU+FaJP3WYE/xOqsu425pKieup/KNm/BTbaPzWxKPwQ5VxA3flDrjZbBij5N7m657beGatOIGdf+eAav5CReSLuPOYNs+SJo1beQearuFJ8aRwbGH7TovkofymqUb3JEXh83MtiH5JyzIX5tQYv4vbDlcGUA7i5N460LNM3yGZ3KgD1hF8NqRX0s6hKmNU6/4dg/KlzpedzkOOlLnIXVKTtW1wbAtCK/MWeXImRp1DcKmPdYJeUZu0/bcDLy9oeN1L3oIX5GJ9PeUc7v7TcOBN9gaKA2QxgMVHgFy1fHzvAqSLwE2ovMnGco//PAPn1Ei3CJAeQ7Eo4SdeqXMPUPCRDChxgsoOHtQOhoIm3xgKs8KBtuX2Xw5KLPHiuRf06yQbrsfzG1WfjUtV0RRZEm8Qho136SpfRkvZWfoIwctEjfxUhZQboMsfNd3x1velclyOFLOyF/lK0jcGh8YVUqPIlzEYAdkzoyHMnVQyGBNXShTlTdXRJasDjgVTqEZWFrSFzYnwfEamVsH5Ke900cDbWgJ1qzOTyz0h8zuhKtlTDm5i+fa1nnH+VH7XeC5uqtD7UKX2MPWFv7BbcbtgCP/bL1pC3U/q++tAvIiO7Wt8U6mHQh9xStesbXdA7W8taziR2Y813CbhANtsFW2Cq4CkspGZhI5GOT7yJn5roKk78MTXuNC2dfER4SgdoRcq6AgnYOhMouwf6SjCNvGg3oPSYPBsozlSqG34SBhK/AHwpt1MdhmnAyZumz5D0HSS5oMGYOWJfGgzbNCWuEB34xvjFnygZov5F4cBosRpERapV3va3wQlpuZNb7NoD1TQuEp5WewyZSRe5TUrHKJk3jyCE+Un9m1JUcKp/KzXR21ZUhaZtba3DP++IUv90kfL1YGLIX7GY2wSZNfeFw3aj3LX1uqH7++9PlMM2zGW/8Iv67C1rpL/SZMx+4ROakEqWdEp9h68c67Q2neYiFnwgoXWV9X/cuP7ATyDg/OEhmU+hBQJg9VNoRBUN03Gd/8yEc+8lG7ZTThdHhLad5ZNZNcZUEJiO8hU0btTCSCQZDSSIiRwCP+jK4YUoeDzBot9a6CHNJygCfftY2BI0ypn/AbVP7jbubl/dnb3OY244yCggpqOpB4SSf+DAAj60MCjIrBQ/yChK88uU+ahNv+uZm+NohR4R/kvqbtXrlf//rXj79mzAw0PLeocQMKwPK25TcKIYMWYVG9B89x0+baOe9Tc8MPJG4L7imL2Zs8kRPY6eT8peOezL/xjW8c3/dkuNUNxL9F8pSGsglnD5aR1caMdlum7ZAwyY+MSIORU9dIPuGr5m/lQJ/4i7/4i3GgGWUnDBIPUmfrQnhUHnwbtDLSp5xyyniQzuAtSD2Fat0hiFvH9tiujtr6TBvRUSYT2snA1gCXvuEfeRIv4VeF8Cef9IU8R47pP4N4KzN0SlYDUFDjodZ/k/BNxwp63k7MpeITjnHyqzon8TRWCrsKUJy//uu/Ph40Uek1nzQSMEoayTNj7W9Dvi/rxwyUFAO6Kh5BvvJnoOSPN/khipJ/eK1+4vB3z51i8l3fu93tbuM/jLknrvuKml7uky5D8tu//dvDaaedNrYXf+EQJM08B/hBDJUvHnmtwwwnp69TlspL0om7ke0f/MEfDL//+7+/VfcJF/7y3IIfA+1zidJwEthz0pd/7hPfM+JHJl/wghcMz3jGM8Y9eG7KAm3+FWkDgxPf39YG9ksZffVBOSVfS214c7raQDCGUjmTTsKCZ/f8XIW1tOh/xQ5R1bqdB7Uc0kw+yQvwAXFzGNLHJf78z/98PBQZf9fw4Br3VQNfkLIYfBiYq5f73Oc+48lk9aOOEyZxgtR13NUFtzob79gZqd+g1l381Gvqlq6zSvPYxz52HMDSOdz5p8+vCnhLn9Tetf25gWf3VgS8BvizP/uz4yA8Mp7wNR5dob8rxyZiPg2xQVDJKt4VqWAzHwL0pCc9aXjOc54z7iWbXZsBM9wEynWVlAM8gC+NTzgi8LmPwLgSFMQwWc51eKgdnECeU+aaTpBnaeU1p7gn/nYQRgcAo1PGPjNVFF7zDJUHHVVHRpaXhYWpvOOWuAHejYot9eqUST/h2vAVDK46TLzKW82vpuE+YZWVIcu337Vf7eDKZxBiBq+tucdATIF/4D7h7P/lD11Q+dkt2nIE+JVPVWTydtDM7Fq/MDPiHwqf4lWeVw28xrC62tc3YLLC5I9beY0IUo7Ud/iMe32WbsfiUIdBrdfUrTbw2qmZtg+s+HiNfqcNE37VaOWgykDu8WM53GoY2c9B4MhM4qMqN543EYdGqiloJwPNKBlse3T2YM280yi1cVZBUXxVsKsAyL8Nk3j8GBtL0F7Tobi41XBJp2LqGZmRMNg5GJKyt0j6CMIjEO688iPudukAf3HNbBkEo9Uadipe3JK/K0WAb0tv6q/WQ8LkPoibpWGKg9H33OY5lR/EHc/kSBkyuxYGD0Ce+FEC2edmxFMvIci15oHIqpUUJ/nd80+YeZA8xVVPbT7hmTse9QcrAk7O1lPwwga5X4SfeZH+ESL/TrvbCrFVoA+oH6g8KlfKXhE3aaXdOnaH2u5T9Rb/tFXqWn8ze7Wf7Ted+u466l3e0Zvy84w8Q8qBV5MH38TwcSAD7YSpaYDwDLw4/DYRB9Zgq1DKlSJS6e7tHT/3uc8dl6QjWGm4zJTyvGySdg464YcbHvHniiIYwrQKxb19evt1jFVmiNsh6VYkTQbbDI5hqHnVPMX1PMuPoOe3kzlEpwxTfCWudjAzNwttw+W55hPET91YEsX3lLKegjhIuuIy2JS/OsBv/KcgTuKC9lJexs2ARVtWqBMz8Fon+AuPbf1IN2lzpxCsetijZZC0zU7lm4I48mplylUZQF7hxzaFWYYVJ+XCO/cqG+GjrZNVQPraB/CLD9sf/hZ1gxvcYGz/tB0+Ug73ypWyQuW/KuCO7aG+1FXqNm4Vea6y4F7fjHFDTo07iObtlHUZbaj51DLgCX9kS/nIv3M1BqsG2ikzquVPetVtk3CgZ9jpzGZClr3f/e53j6e1Lf3FUCZMGmeVFEUZJZxGl38EG+KH+BEsHcAhL+84EnhhpRNEkHKdQs2LMrRfQ/HlNRjpIWGEDdyHAmHMwmK8bDfMQo1HYTIIwqf8bbp4qeWo/vyUn8FVL/yksxOkJ5yyxiBKR/yaF1Se6n3C6dzK7YQ82Yo/5JBNZAzEQ3ifBWkIo10Yakv+VgG4b1e+yl+L5Cd+5D28VJ60iUGstxeyxSFOSLiK5Dkr32VA2vJ21WYOmNnX92oamW1P+ddr7sM/xD1+q+T9MKGtt1yh1mHc1Td5ih93OsWBLjNsZw+cO9B3a1qrQJWPyk/lVRhkgGq7lH3QrzPYxjt/8ZUrZatpbxIOrMFWmSpVhVNAlvoYbfuKGiMjK2GgCtkqIK8sAcfQJL8IUQj4pQyMNQVuOdwJ8exrtkJT71skv+QhTYpPR7IP6Dn1FSQOaiENdchAmVFmb77lqU1DHTB2DPastLeDtBla9aEed0LSd9UG4phl1y+ITfFQ4+U+ZYuBs+yd068Jox6sOmSGKjxKXFRR4/LTtgYTBiTapPrPg5qnckfe4xcIYwCiDb173S4JIuETx5VbwiwDlZ8K9ay91Id9a2+D2A7KALPWaSgI77UMUb41XMds1HoNtWjd1bV2Ix+13g0+nbtxQPXGN77x+Eoe+Z6V7l5R08UHxA3hD5+RB/2Y7HszwvJ4toTIX3RiLZN4m4gDa7BVbIjBdqDMzC4Vvl+Qfzs4IAgh7oSBMJtt4ZUSd9DMAQ5f9hJGWHCf56SZq3QikLmHxPFMGVqmkoc0MisE8ZIWJK3Avbo1KmW8hCXgySeoaTDYDBrDFr6SZvKrZeEWfxCfwbU6kEFGOv4UatrhC4/2h9sDd6hNR5zEwxfSgRlshwjVV41jtUGnpwC4o9rhYzQqki/SDlZSzLJB2Jp+i8SbQtJNGRK2VUD6htm18wh1ORBcU+48L4rKZ+4rf/UZ5GlAaRvIzMz+dZt/+KppQ9JEbb6hjr2hrUNtwy3yBZEfINsMtZ/P3POe9xwHpQmfNofaPvV+HrRyC9XNPaJP6mDWltCpp546DmLxlDjuY7wrr5uGzeVsB6ShGUfKE0W5qnTkPg21zkaQr/xcIfd5jpDEsJtReifXnjOhqWFcUY1fUd3ae2Smam98ajZX7yHPScezevVes891QtKtqOF1EAMnS8bQhhVmVr6grtQHY5s2bNPYDsIaCOWjJHHLtaZX2wjCm3q3SsDQxTCDwQt3h9KUMxA+ctaWLUja2sFgRLtAy8MiED91lfxdyZc+of0cuLH/7rnlsX1eFG064Qe5J9txSzs7Ce7AkgFW/W68MFX+UQthE75j9Uh9oyq32im6TBv66JOtDQMx50m4C6v9IwPiV3lYBLuJJ0wN53yN0+L6RFYNA7yEn/TnTcOBNdhBhIUijAC0BlsDpDFWieSBCGSoPrsPz5Qn42LpmuKypMS/RdKcF+IwfJRhZvNtOvW5CnaE1tKRmSZDlU4Zf0iaiL+lYh1BvKDNs0I6IeG0IUXO2LqfF9LISF8a4S08pA2qWzpnnpXDoMMSmnKkrJb5DVx0+mqw23rJfQvp4007m30sAylHypV6BHzh2VaRwzZmFfsB9RseA/JoIOlbA14J0uY1TK3HWfXZsX/QVpEz7aONkT5r1cQ+tu84MN50sXZF7kHcer8u6A+2h5x3slpWy1DlTVk2Ue4OrMFWoWY8KtyozozFa0CeqwDBOhpAvgYNgC/GmIBSTPKlPJFwVXjttTpwYzmcEhdWmEqQsswLJ84twWb2Iv1aD1N1kjwh2w1mlWbNqddanwkvrNPhjNrUDLsN30Kd2AtTD/hOh54X6pxRJBPSbMsMcUu9hqeEMxu1DaCDa0ukXNwYbM8VNX7Ni3v8yIfzBFZSMsPeC2o95j5Xdads2s6WBqOtfdaF1EH4IfvqDF+Uuja2b+1EOAXPLXWXNknbQS1rx/4jbaVdtJ22Shvpf9qUwc6PQrQ7GTDQFS/33MVdF/QB/TdfKazyFv5da3k2CQfWYKtMje1KQIzkGL8YyNrpheG2ashTPsnTM8H0TKgR95CwlkcZbAo8Bl/4VmBm3bdo/RgIeeg0OZWcepsFYWo5GF8nKxmrOrMMhAXLxwydGXZOYbaYlS93fJlp4dk+tudFoJ6Vl9HPzC085gopJwgT3pRbWexj69yMtmd7855z4AxqetA+p1zSVCYzf21tpp382zjzIIZQGuE/so9P31FmrN3HfV1IuSJvec6KkkNmDlqG76DWSdsPOvYPaZO0R9rJs3ZCcdcH6R2ve/lKpX5I/qIjQ3leRxvLQ370mb1sZzoyCYF187MIDrTBjgFkpB2sOuGEE8Y9kyj6CJEwobgtm4DylEdVUDHY3OIO3AgxhUV5WR2A8Jj4rQDluh1qGDNro12DGV8Og8pzIE7iyQ/CN4PAUFkaZ7gqhA0xCgy2WXZmc0mroi1D8pYXo4YMLloed0LSlY7lcEY7e+FBrc/KW+KGF+3GUFtZUKasNNgaSPyg3rfgl3Iw1LYntDvZlc5U/cwD8fFa03GvzfCdmcS6kPqrUP+ROfdWGChx5zbIZhTmVD1OpdexP4iMpT08pz+lbSHtSafRbVZS6GWn/0H89IlWdlcNeevLjLV9bBORulrmHv+bKnPzacQNQpQSmK2YlTnk4LUCyprwmLGq+AgIyvOySX6UMMRwR4g9ExLknkAwSPbvTj755HGggVdlqmlCOgTEbTcQNh2J0aYkzTgh9RC4T/3MAsH2c5Mcwkoa8kgHtUdqVipM+K78B/VZGupIeuqPUcvgZV5IK6Q+GWsDlaxccM+11kHLJ3fPyqNj28/WdmaqOXxXUeuiBbcoJfXv2/jkteVhUYiv/pJO0jV4siJihm3QwW1dmCqTtlVucp+DZgaQ+NI+ygC1PJErmKrbjvVB/WuPtEnkiWxHpwXaLwNSK0q2PXy5zoxbu6a9I//CraN95ZH86Cmvd3k3W9/GC/e2LJuGA2uwQSWn0cFs1Q8b7nSnO41GMJ0erVogpF/zqflWhUphUdpOUXr1wetcZpQRGJSwUMu3KCjK+ipRWx9JP255Fo4AA0NlRMoQwBRPZtbtiDVlCtpnSFo6suXSrAQsAmnjGxhsB5uswLSQZy3DFF8GHg6o6Nw6tRUG9zEu2yHphx9X/PhcLGXGjf9e2leaScN9lCdYEbF37WDNug6bpRzhK8ATmSCHjLUPbKQehA3/waL10bFaaJfaNu61XZXhtGPctLlXS+1n5xsT2p1fbfN1QZ76Hnk0GDegzQHZWp5NxYE12KncCIpGoOzNsv3lx1eTGClLMdwpS7O3VZJZfg5MIW6eGcosSxtIMNa+l3yHO9xh3HtXhlBAsFBGootCGgyWQYJ6kMesUWQ6UK1Tgs2doWKwGOVqkCu848tAZJ+7lmc7pOw6snoygFkUeMW3q/pnsCmJ8JIyBrPcPSuHWWpeU2O8LTNrD/4ttajlVzYyYUk8hgoiw1Pxd4I44iJljsHmjm+zB+0Vt1UCD21Z3ENkzcoX2XeCWBsnbNorqPETN2l17A/Uf9o3beK5nSnzS3tyQ1bMrCYarNGFWfGq7YzWBfkiK0/vete7Rt0WnaZvKs+m4kD/D9usByI0GsGV0vdLNUsxloLNvBlvVwZyFWQPXR5Oe/sAhNGk+7gTVvt2Zv+WAw0sKDDCTaFGUCIsrdAvinQg6TtoYURZFXjSjhAnv/hX6HgOkRj8WCkIEserEn6zZ6kpM/FZSL6uaTvtS6H7taaBVkXCb4fwnHIYOTO2Z5xxxjiY4F7D1GsgXvJSZ/ab81qc37X6LGlrAN3XckDll3wqm9eXfFTCCoK0axhon7eDfLSrOKjN17/QX/GKV4x91EpB5XcVkG9WHmp9hDf9WJ984AMfOPaPfM0s8p+wUMtV7zv2F2mPtO9Uu8Qf+OWe7rDSYwBppc4AOHFdtf+6kVPqdLPBfQ6oVr42DQf6f9g6urzT2QkLih+F7cBNDkFltrgqyBsfGUCEH0RBUdpmWWbi9pUTB8RJ/aYsuQd8Twl12zYt1INyM6CPecxjhj/8wz8cT3FnFizf8Ag1P/fIvXAGPL/yK78ytoX9qJo3evaznz084QlPGH/Cos7jPwVlib+03VuBeMQjHjH+WtFgp8YPXztBHCS82b4vfOHZ/rsyx78iacc9vJmZM9b4IYd/9Ed/NBpAfuor5XYvDmqNOX/pKNvP/MzPDD/1Uz81ykLynGrT3WKq3eRvEK0d/vRP/3Tsn+sy2CmLvBA3hEcHzAxWH/SgB42DsfCbcJFDz9KpcWEv9dSxPES+tRdMtTXkmV/Abpx++unjf/KdB4kOChJ3HYiM0WMPf/jDxz5uIAnhfSNxrJKO1en2EKaGOzaDOu8e97jHeRe/+MW1BoM/XldBxxTlec94xjPOO6Yox7xbXtwfE6Kt+2PG6bxjCmq8es59kPirJjzJN+Q5fp6PCet49Ry+hElZKpJWwlYkzVmocR/3uMedd2yWc96xkeR5xwR2pGMzx/OOdb7Juuf+rd/6rWM4bXzM6Jz3W7/1W+edddZZY3opV/J54hOfeN61rnWt846NpifTq3KSNJF80PHHH3/e0572tPOODbLGNFO27cpX0YY7Nmg47/Wvf/15J5988nnHZrVbZa58uJ9yR8p+sYtd7Lxjnfm8H/uxHzvvuOOOO5+/OPhOGYSfSvvYQO28G93oRuc95SlP2SrPdm06D8jRscHYmJ60jg1Sz3vPe95z3sMe9rCxbafKtUqqdYK+5Vu+5bxjA5Tzjs2szzvttNPOO/fcc0de8d32zbhN1cle66ljOahym3Y8Nhk6XzsG/COXrsdm2OedeeaZ5935znce+1Xkg7xMydIqKHIpT7J6kYtc5LyHPvSh573qVa8ay7CMPrlKHPhh67HK3xp9594eiavn3MOxhtgaEa6K5JF8KmoYCK+u9Tm8VsQ9YSu4TbmDvJKue1sF9tDN+IJjAro1sq1puYrDTx0eE/Bxlm5f1N5PhTBWMOzvOpzmueU36QW5r3lYgXCqNIfOwk9NZxaSDgJX5bSiYRRt+0GYNr3ECz/V75iSGWeryuzXfO4rkl/SEB6kkTYDZbM6gZfEgbRL0lgE0tA2aUerSn6EY7+dG7/wsWoody2PZ21gO8s2h71rWync8VX7JsSttkEw5daxfmgvpD0ie7Z3WhmLHFTZJgt0kG0hW4XQxls18I3fwDK9bUL9JWUCPFfaFKy3ttYAlR6qz+tCzb+lwH2EfreYJ2wQQUv+DIbTufZjpwSyzSN+6XSMsiXhfKYUxOFvT8o+MaPGr00zz0HSDnRmWwWMdR1Q7BYpYy0DZcJAGAQYDED1rwg/lSf3ymwLwUDk2Gzi33y+joRv40Lc1LeldXv/8k+4KZ7ngXTEJUtRNAy25X+n9Vt+Vo2an7rHm/r3YSADRW0QPqfK3j53bCam2myq3apcRjbsE9szNoC1LRj3hFs15Bd9hvRp20YOaern0WubikNnsLdDFa5VUAR0NyT8OiG/vFbEgEA6yxQi0ISbELtGuBkvs+3E589YIwYjBhulbiD3ea5wKMXBJNc6Ap4Hqdear7J6rcQMG2r+9X4K0jFLZbRRyrtbqDMwADHLd7ClzS88bMfHLIQf5VZnng2YHPrzWtd+ITLOaBuAOWDp4KVnPM5bjx0HD5Hpquu0u/7IWCOzbf7cF+0D80Je0We5Z6hjtDMo31QZ7QZ7ibTJIIBm2A5PGeVSnnEP3CuHTlQRw0O4CbUlcaevuQvP3ayb4DvglPBJK+lJPxQI4xlPXvkwIwtvi0De6YxAQViSZSyh5j+rzaq7sMqnIyfePFAWZZviIenV+3mQukt9G0QZTPn9pxk21LpYN7Slw3Zm2AYsHUcHkUsUPQDu9XMHvLJFkrDrlNP0cfka5FoSdxCO/oKqAzYJR8pgHzVE6HQERsfs1fKwGScjwr8KZjpM6+4+Hc6eD2PAaGc06mpGl1enGKnaQWeh5mMmZsRtNspt0c4rXo3LYDMWVhfwVBXDdnlU3to0dwvx1bNyeQde/Usn6db0F1FY4otnFUBc9e9751kBgXUrQpAneSNrV7/61cdT4VHMeE65Ow4/tHnanVwg5xRMHPwYxDaYfrluGQX5Rid4o8Qp9hjs/eBnN+gG+xCjKkdCyXhZdjbbc4UpBTr1HDfGof2uODcC71UuqAZbvrOEP+kiBptR05lhLx0mcaUrPYaDwVZ+qGnvhre9QD3bv6aY5C+/qXQXLa/6ZRzFt+pRP26TNlg07XmRMskPkTNK2XZElPIy6rRj86GNI3+Rzwqv6PrincFsvjG+buAvPNJpDLaB7nY6a79xpAx2FMmqaJMRI6pz2D9iHMN37VyeZwlswhLufFcczLAZbDM8/vJyTVqoBX8UMNj1K0iLQprKkrTt7VqKljbjGd5QypjngHuIe01vHogvX/u3UUrcpJf6BmmHr3mRtMS18mH/Ou2yTtQy5N55CcvhVk1aGVAPHYcb5ICxzvkPfTGDZgcQyYfT4gbT6wZ+qp4z2PWp0hya3VQcKYNNgFaFVaa9V+AtBkKnsRxlPxsisMIgz3ELItxIOpZcGQYnwwl3Zt2ZYdf47pN/DAu0eTkxquNS9HtBylHzsRStvLYCMiCo/kG9D1+Vx0WgTL62F0VV86iY5b4d8CVeDulpl3yQgnv8F0l7EcQoq2N1bYZtJpVtjtBe6rPjYKHKX21/MmvVyZYJGVkXKj/4ILOeGWrnc0w86lfYNg1HymBDGmzZtIkgkFGOeHTPIFKkZn6zZnWJE0SwXYV3uMzSqyvjwGAzFoRemFAgTjXWQcLxs9drBhzjsxckH2m7lyaDTTHEcFYI0/IG4Q8tAuVisO2hTxnsvaQN4mYgZOBk0OTLfjlbEAO6DqQsyGqCVQVbAZbDlZ2s4bPj6CDyqf9Nyb2BtFe86KNZumiZSD9PPuHDs1Ups2xnQEw8NlVWew86AiCUgdmOQ0D2jhhJgkmxxyAHrXAHwhiBMtBGpJbBGQjCnr9CMR6tsUjnaCF9B5KMtrNkvSiSfuU5bpbFKYYpg70bTPG+HdSrcrUz+yB1vijwkzZT3z5aY0mc0TaA2g+kjihi+5MMdouEaeWq43Ah8qmdY7Aj82l7usj7+ZbG6zv6q4b8q/zlntG2LE63bSqOnMEmSKugTUQVSjx6ZrAYL4aEgfTMfaoM3JOGzhTjzkAz2t5d9DoXQ81geAdbOjEkiVvd4h6SJgVvJoYY7IRDe0V4kLbDZ9Vw8puVV3hDSWMeKIf6TT1n5SD5SDPpLpJ++APtQckYNGkXdR0sow53i9SX9vTzG/UNaXuo5e44vGjbuW1/pI/QRSYQaNHB9G6Bh0ot9KP8TndTcaQM9lQjLQurTHuviIDqJAyHmbVDZ2Z+OkmMEmoRdyRc0nKQhHCb1VlCMtPmJlwMRuJB4gVx12kdODPCto8dI7QIavpQ82ew2/IGiZdr4tX4OyHhEif7uOo5KxkVwrR8zIvEpWjsvVE07QdeaplWiZRH/VotcZhI2QEPbR13HH5E5tL+niMnudo+MbCr5zxaJN4ygI86oIXIpH5kSdzkY1NxpAx2Gn5VtGmoyjGCGjdL4pajGBa8t0u2wtU4rpZeU1bLR06K28sm4GbZwjDA/BM/z0HiS4t/9pcp+fDAf15jFh5rGeMGZrn2khlPPPELL20+Na2aXg03xRuelSeGqx7uA+4IpJl0d0LC1vDuUzaKxlKe1Q58JdxO/O4V0qykTdWz/WuDFQMw7mnL8By+Ow4vtHX6eGRDu0cOwD2YXfvWvC2kyEtkBk3pkPSjRVDTikyCrSTfl3A2Z1NxpAz2UQNhTIeJkKYTMSRGtfaRPHNvkfjtPZjJGY16d5HRzvuLQfJs49VnVwbOsliUe/zD7zyonbyFkbx8zPrqN4y3Q3gJdopT82WwfeVLnq3CWTbqKX08aoeW7514XxbIlYFKu1qyyvJ3bCZm9cUg/g5mOl+SlajdyuqiMtWmn/6hH5l8MNjt1tKmoBvsQ4oIIRDsKM8IIUOik8RQxpDvFmZ19rB9BvP973//1pe1ap6oNR7gOf4Mtg6rs8ZvHj4CaSnjVIfnZ/Zu6d1Jccvji+TRQrpB7pOugVAMduo+fsKGlgGKxuy6ntJvsYzy7gTl8fYBg52BIFpWOTsODrR5+uN24G9VJv3SQLeV1VmyO69MVzl0X5+lpR/pQww2wz01idlvdIN9iDEl0BFShsTpTFfKFSLEVZArpBfKvqlfOZ599tnjgTPGOQOC2lmlVztuzYchtSSms9b4iyJpVF6R/B2GUmYDhEVQ+UaBe3no4Dq9vAxArGCYcXoOHy3C63aoedZ0pMvNakc+XAM1PFoX8JUPxVC8tS1gP3jq2D/Udo6sQq5kA5xfYbBto2TgHkTeI0PgPnEXxZQMStMqlcObSF/eNHSDfYihk1QQ0rjllSMHPsw8WwGeEmhI52Gc7Fvb8/nIRz6y9XUtfuImHHgOBfFnsHVUnRZm5bsbJM22M8doGJjYxzai3yukF7Tlsvyubg1ElGtWmZJGTWseSFc7GCxZEjc7qHm5D60a8mCkldvKQnsmouNogmyjVg7jTn6tsuknbX9JnIStbougplFR8zH4NfA1y+4z7I61IUIYQQTG2n4q6CQMdTVgCb8bSNMsm2Cb3WU0WvNsBb76hSeK3b5yBg34awca86CmXfMDeTEmyst9r5Bu8qg8K4uBEOPV/vSi5a9eF4E2YKi91mUAVdNKPuuAdlNuZUbZt6/1krKvk6+O/UXamyy0cs49g+tsIbW6qMZxT57adOZFlb+kmXQzEelL4h1rBwEknASvCmnu80Uqy5itEO8GhFzaRqV1VjsVv6YPnoVjRJ0Qt1ztOXHb8LtB4sdI5D7GI7N5y+/JZx7gqVKQzp6rbQYfDVG/0Jalxg+vbZjdwsoG5YKyygHaI7Ro2vPAANCbB4y1cxHqOvURPiBlXwdPHfsP7R+q7U42EP1BNqzOZGsM1i0feImeYLD7DLtj30AIoXYYbtVgV+yms6QTQpRxUP1ynUpTJ7UEhoywa7xFUfOrZUWMihE8g2o2qIMuA8kLycceOYOdAzThYyfsNlxFlAtjrR32Wn+LgoFmsCncKL7wMlUH+8Vnx/rRykFkgXsGdRlMG7x7FoY81/DLRNKtFD6dEHeIs+9hd6wdtVNAFUwGxcEoS9I6DPDfC5J2UPNtYVYd44mXZSDlTSes+XI3OGBQ0SoMtjzMMhnsnep0yn1W2IrkBfavN2E2EIOtfqHyWKF9WhnpOLxo27uVCX1Qn8kKTQZ8MEuGloGabjswsMXUD5117Au2U5DpJEa2Zp7zGjCC3s6uCX3tAFNhAoY670XjJdiO552QuJUPcOVuT1melt/mHSSIXwc/LbgzXAy2U68x2G14zy1/iyL7bdLBW4V8Kq0SZKe+nkfZpd3xlXrLfcfRQvpf2j5yH3nQ/630Mdj6zZSMLKPPtH0h99JMuvoUg92XxDv2HRHYCD5jqaMw3DEwO6EKOSTNuCdtzzVM7sGzvPNamQ7Kfy8dUjwk7SiCypMOSDHIs/2u+G4xxVvyYbTqCXEDAu7hIfAcXvO8KCyFexUl9VbTDabclg31atDHYKuHWsaUr953HH5UmWzBDwVkhrE2iNcvI0NQZWZWevNAepWCyKczOZbFu8HuWCuqcEcYI6BxZ1QY7PoLyKAKM9T4QdziXvMM2nh5ptzNymI4E7eNv1vUeNVgc4+C4MawOJEagxrU+ym0/KUcSLqMlj049ZlyxT/IfXWDWe47gcG2hBflGCWYdMLrXjGL34CCVa/5EM9U/svipWPzoa1DeYYqN5FVfvoPfcBg2yqr/bfK014xlVZ9dl8NduU/tJ/oBvuQgmBFiec+HQQoWAaGUFoiPvHEE7dONUPtLFDvIfc17SrMyTf38Y9hc29EnXd2+VtGTT6JOw8qf4F0lFG+DLR8zIAvf/nLb327GKbiQuqhBTd1iLL8q/585Ut9cpd3SPhQjZ9nqPe7BYNNuUztt9X89gJpqAcUxC3QptneUBept7RjDZ866Ti8qDKTe9fqR2Yq6AE6Qf9MeG5T8pK05kXSSnz38so96FPexfb1xsyy+ZFrlHD7gW6wDykIZGg7EFZLxGbY9aQ2oQxV5HkZQmskbVaWjlt5RvMicVrec1VW5GCULQAGuzWau0HC1w6MlEM9qs8gebdYtIwtGGoKJrOBmuasvJeBlBnkSbFqzypDoY6jie3avspGlSPyk1c8t8OyZbvyok/5vkEG4jvxsk50g32IUQWtCmSuKAbbTFdHoXi5xX8Ks9znAX7kZwk5RnOZHaPyWNNWNstuRvFmg2bd25V3O3edmaFM2uouBjtuyyzTFCiV+h588qt875WHpJX0grgZqFC0VhgiP/Ks1NGxG5AfA+mddNCi2E2a+pJ+lUFwsAny3A32IUYVrFbQCGKUPKPpNSRGjBFlQINZwrloR0o8St7yl/1e9/JZZLY7hZTNVXo6f9xBGeWrvPbNkn9Q7xNnyg2SPsqSuHQratxlg2KxdJeyhoK95D0rbtyTp/pTdvW63bmAWm8dHVMgPwbS1WCTochRladFkXSnwJ2hNsNG7UB4v9EN9iHHdsIJ/HQSS9OMNuPNbdmdJAg/ZmQMttloNZjxXwQ1buW5TdvAgFLIH4J0yhhdEL4t8048KY86NMOWpvBT6SwblIolcWWQV8qwLIT/qXoNYrCR+4o2PnCbSqejI0vircGuWJbsVJkMuMVgt7PsTZDZbrAPMSJoU4IZxFiZaZodMqBZ5m1pu3R2C2lIK8vhjFs1lIvmIV4dDYfqMyR9isGfu/CgvIw4PhJuJ9Sw0lQe++LIYGDRcswLvFsST36V/92WZRZqfOnPyoORNuhTpzHYU+VfV510HFyQoxhsaGVuLzItbhs/cl1lMwZ7uxl2G2dd6Ab7ECMCGiJgGTHqEIhAeqZsr3CFK4xLxTHiiQOuiNuiCB+MI0Pp8JdZGSSfvSBpyGOqwyNlQ/bK8vtLYVLeFtUt967KkCV86SmP2XWW2NeFKJdl1N9uocy1XtSd+sz+NayTn47DA32q3Vap2ItczUqzhTxy4Axtkix3g30EEEGNAAbco2ApWzNOBowbIW0JxNmt4LdIPAbNK0B1dp3094KWL2m2HS5hKAVL4paxIWHasFMUCBvy3rUBgAFIDQPt8zKR/HNf23evSLot2joA7Rj38DQrfkfHLJCjDISrHEWW6v1e0cprED1Zdcey8twrusE+5CCUUwqWW+0cDLaT4gxpO+utcZYBedV/YFckj3k7SMrT8iidEL8Qg+1rZwy2OkiYKbRpQjpz4jDYBjzSDZLXuoCXGGz5zirPMjBVrt2WtdZbR0eLyEbkqZUV7ruVtVmo8adkse3fLdr4s8ItG91gHyEQssxogZBF8Mx6GR1GrH74A/baOVow2PKxjNxCXqF5kTgxWsCt7UzclNd+vS2A8JF4NXytg9y7Cpvw6tTKhEN7thb4h9YNeda62wsPiVvTgzb9SoEwO8Xr6GiRfhX5IDP1Pmhla1FsJ6M7YVk8zINusA8xokSrwDPEkE5R/Rz2YLQdnGLQ6gwcJeyiSH4ZHMgPpmbGi0K5sk8fvpN28kfK5XBYjHYdoLRInCB14WrwkXqzaqBsu8GsvObFVBkrWt4XQdKeBeln8BJMxWl53CtfHYcPU7IUVDlfBraT0akr3kL7hW6wDzFa4WIYq3GsftwYGzNFe7s5+MGQLcugJr/Mbutp6mWkH9Q0Z/HOTRnrAKXWxxRaXl0ZbDN0Rj+vqMVvKl9IOjvltxvIoy3jMtLdLZIvJZtBIKT8nlHlD9bJY8dmo8oGGXLgKzLTEuS6KiSvZem9ZaIb7EMMAjdL6KpfvfeXqStf+crj14Z0mjranVeIhasUZA/bF8daRb9X4E/6Nb/KQ8oa5P1zcQK8VH4Sp6aDhOFu7195nBAP+M9CTWOvMKDCey1T5X9Z+VSkvaSblQmvluU1mOSdtq3Ic+qzowMiC2SofggoEwYgO/V+r5BH8oHIqzwMvBE/bgkXCsJHdVslusE+wqhC5p5QmnE67WyZl1vtGPwXFVDhkVktw8ZQ5n3LmlY6EVoEyWcWWj8n1fOrzRi/GgZ/lafKGz8DG69z5bR54ibMqoEHfK8LbR1AfW/V7Aj4py3aOp9y6+gAMpQPAZGh6JvI2yrkppVnfYqeYrBb/bTf6Aa7YwuElgGzJO4EN+NVhZngpiMtIsTiOIEuD5RvBtdOUfNbNeTD0CovXnRQxm+qbMod9ygRfCuPGbp0Ujfr4h/wkGV4WKRdFoVyKjMjTdGaZef8QNDy43mdPHYcLJClzLCBfKVfwV7kRxpVNitquvoTg51B/F7yXDa6we7YAqG0TG3GaYk3e8yI315Hm9JhGO315kf1U1hHB8ELRWDv+aSTThpPxuuo9UcaCYPwg191ED/KxfNlLnOZMR33lE3c14Eol9RZ20bLqEdlrajP6kZ5zYpS9oo2/2Xw03F4QYb83z0gX1Xe9iI/rRy3kDbSp7ztEYO9HdYtz91gd2yB8BFQS9VmjZbHuRH0ULCT8E9BHGkz2DqEtNMhk946O4A8DUrs28doc9NhUTornpDZI4MYw60c/qt9latcZTTYyiJewqZMqwReDILCYx0oeN4rattUVDdlNdD5p3/6p/EK6yh7x+GDgR+DTaaCKserkqvad/RhK2cGwrNW3IL4rUveu8HuOB8IHkH1XXFGqApkFcpFBdTMWroMjTSmllC36yDLhHzwYWBy/etff7jiFa84DihirOtsNbyCOMhe/w1veMPhhBNOGE+KC5NOXhXOKmHgY9ARZdPW3V7qc7t41c9AhaGmaF35qYvarhXb+XUcXZCjf/7nfx6+8pWvnE8vVBluZ9yLok2j5lENdh0Ab4d1yXM32B3fAILKeDGsBDGCDNWIzQvx7F3X95XXJegt8KIsCE93vOMdh9ve9rbDiSeeOBpce7JRGiHIvQ7NyN/jHvcY96+lkxm5ewZ90XqaB/gwCEreFNq6oHwpo6XwL3/5y+OSZi136q3FLPeOownyoM9ZpTHwI0/c0k9dPcdgVxnbLcRJPGkgiHv89N2caZE31LC53w90g92xhXQGwpofY0Ar5HsRWCfEM8OGtrPAXvPYLZInXryLfbOb3Wx4wAMeMNzudrcbjj/++NHd4CUzbjNZJ8LNqh/ykIeMRl498cNv7dzLmglsB+kz2A4IylueNV/X0LJQ26m2G2X7xS9+8Xz7j7Pyjtsy+eo42DA4Pvfcc0cyyybHU9iLzFTZnULStmpFT2UQvJ0MQ+73wttu0Q12xwjCppMQagLr3WKGlUHICBf2YojE0xEMBHQGacbItViH8Msj+TDKV73qVYd73/veI93ylrcc30c347ZPjfjf5CY3Ge5yl7sMD33oQ0cDb3YrjSgYZarPq0YMNv6n8q1lXARVyblP+YLIBoP9uc99blS4CQdT+ccv144OM+ovfelLwz/8wz+M+9hVZqbkd1myM5WOCYtVtwzEa/7C76c8d4PdMYKwRfkSVALrMFa+erYsMNg5zAZ1MLBuJN90QLwwfieffPLwC7/wC8MTnvCE4dGPfvTwX//rfx1+4zd+Y/it3/qt4RGPeMS4DG5Ak1WC7HVlMOOeAV11uaRvz93+OV7kG/BDrXKZB/Pwz2B/+tOfHhUuzGrXWtcdHQH5+exnPzv8/d///fmWw2Evk4SKNo0qn/LIYDd9Sh8G8ZaR/zLQe03HFggwodVhGG0zbH+gMuMOZininSCOdBjE9hOe6RC1UyySx6JIXsqGRwMKr2qZYdunZsDRNa5xjXGm7TR5jLS4rm29rIt/fFiqZ7CTp2v4WiYfNf0geWWG5MBQFF+LTVJ8HZsF8mNLJfITuQrITXVbRI5a+WvTi9zmXIj+08YJptzWgW6wO7ZAeAltDlsx2PZyM8PmP8sItG7ts3gMi5Gr2XsMTDpE7QDcp/JYBWpeeDRQMZhwxSPjnE+PGmww6LUO6pX7OlB5xo9VC1c8h4/wWGletG0S1PbKPZlhsC2JZ4ZUUeN0dLQgM5///OdH+YEqt+SmPof2gsRv0/Fshp0l8e1Q5Xmv/OwW3WB3nA+MFQNNGO01e70rS78EOMacgFajECMBVXiFReJKj8GO0Yt/TSvgvk4kb1e8pjyVp/BZqYUwNc6ykfSTh7o0kKBgzAy4hy+Dr5RlkfpM2+VeepmFQB3cZQ/7C1/4wtZrOdDGD99x7zg6iAwEnskJN28XfPjDHx5n2VW+AzJMlsWJjLdh5oF0Kkkr6etP+Vxx8q08cav5V79Voxvsjm9ABNDrSk5FE+DMsoNWQPPsWoU5wk34Get84YwbCNempdPsJ6Z4qtjJf51Ql2bY2sphGXVHAaIoo1XWZ9KneJ0QN0tiuBlwPMRwQ+psk+qvY71o253smF07Gf6Zz3xmPAMxS14TNzK3CKZkz3PSZJzTn9zHv42zX+gGu+MbQHAZ1Bw8MzOOMYAIcIQccoUq4K7SMnPPJ0nr/nXCtajpdcyGurTVYN/dUp56y6wFYrhXDXk43WuG9MlPfnLrE6/JP3LQcbSg7SN/U/3ds8EdQ22gl9cCp2Q2blWuFkF4qPyETxMTOmo3S+L7gd6DOrZAYGtnYAi8n8xoG3VGqNsOE3fQAeKfZ36E336w2TrFnY5SkbSTVsfOUJeUjHZSty1q26wDDPZHP/rR0WDjrV1OXDc/HZuBWfqCjDDS3jBwSry+x1/Ryk29nxeJGz1Veck5G9QNdsfGoyrXCHD+RgVmdNwj5AnvuaX4g3gx2NzazpJrkHgds5F6ZrDtuZkVqDeKJm2EuHleNeTDYH/oQx8alzjDS0Vv16OFtHdt98hlZJPMfPCDH9w6+5CwCZN7+mIvqOkG7vUNfnQUPYdMUNbRZ+ZFN9gd5wMhrUrWoSYHz/LVM0Id/3QA13SuUNwD8Zw6rx8aaY12IF6N2/GNqHVtHzsGG2Kwg9TnqutU+k6KOzxkidPeZGQlbbwOPjo2C2nv2u6RXTCzPuecc8bPkoJw8U8Y1xjsRWVoKg43fQXpR3QUg10Pxm4SusHu2EIV6HQQQuy74pZcW6QzTSGdIGnGYNel9e3id+we6tZrZzHYbd3OGhgtG9L/u7/7u9Fgf+ITnxhnTNzsUdZXvVxXzUvHZqHqlmok3du7fv/737/1HXrukY88J351nwfCh6bA3UpV+tG86a8L3WB3TCLC7VUhS+KWsxnvHGiKP+hEswRcWB3OoTUHoyyxC5tOmHiz4ndMo9abdqFozAwoHe2RNspse9UGUl7I3rWvVeUVHZB/q3TJ0ap56thfaN+2jeszGTDAc0gRGdhBDUNmquwsivCCIquhDGb1Hed17F9vKrrB7thCBDrQUXKgKfvPCTPVidIBAuF0SgbFqDUnmYWpSjxx2vgd2yP1pX5tWSArGJB2XIay2y3kJd+vfvWrwwc+8IFx5hRZqXxwoyQ7Djcig0GeI7cGd1ZiPv7xj4+DuwziYkCDhA/4tWnvBpG5pBdKWpbBfYo553U2Ed1gd2whnYIA556iNTv2tS9fPSPUwD9KOOFDoHOk4zH02WM1AIAav6Km0bE9Uk/qkaHOiX4GPGiV3zrgwNl73vOeURF71QvaNsVzx9FDlUVy8q53vWt8q8ByeGQ1hhU8x5BXGdqLTLd5gJUofcinmLvB7jhQqJ0hHYUxsJedGXIL4aY6EcXs/WsjV8vhOsZUuI7FQPEg9aqeDay0UQ57RQlOtdkyIY/kxUg7RPSRj3xk6/BZ2jy8TA3WOg4vtHtkIHLCSL/vfe8bX+niVuWhDugSb68yMxWXGzIRsRSu/+QsyCaiG+yOmdBR0rnM3PxeklA75MQtwt5CxwplX+iEE06YNPbpjB2LIW0EDLafllgRUff81lm/4YOB/tSnPjXOnPIRFai84q/jcGNKP0QGyMSXv/zl4W//9m/Hz9kGiROqMtymtVfUfEwmHIpF7jcVvdd0nA/pIIjizUEQf6ny/2cGIV/UyoEmAp97sCTrHjHw/nJ185vffPKjKfW+Y36oP3WqPQyM/GFMW2i7IO25DhjM5ZUYM+wzzjhj63UdPGQAmOd18taxXrT9XNtb3nbPSL/3ve8d37928IxfKHKCAvdZGl8UrbzlXn9xRueyl73s1pYf4DO0KegGu+N8iIDqHECYPZu12d+53/3uN9ziFrcYR6IJW/elhde5GG371ne84x2Hm970puNJ84TrWB7UeQZBWdIzMMo+djtAWiUycMgSuANFZ5555nhq3IyKWxum42igGl/ySDbe/va3j4fNTArojYop2Vi2vEgvAwEHNp3Roeeg8rtJ6Aa7Ywu1QxDYGGDgxyDc4x73GO5yl7sM1772tUfjQNC5e/3LUpJ7hzaMVm9wgxsM9773vYfrXe9644GOtlN27B3aKJSDZwZT9TS+66oRHshNVmX8CMQsKu9kQ/jZVIXYsXzQHdEt2p6BtPry1re+dTzjAOvWDfiIwXbVZ65whSuMegwqz5uEbrA7thBFirJPTfm66mRmRQzBrW51q+E//sf/ODzsYQ8bbnOb24zL5cihtKtf/erD3e9+9+ERj3jE8Cu/8ivDda973fEQR9LpWA3UrbZhsK2E2M8GbYpWDflHduTHMDsFbC/bsjijHWPtagVgHXx17D8ig4h8WHHx2p8T4mSEW1b01oHIYIiRdiiW/sovakObhm6wO7ag48SoVqGO8OberPpqV7vaaKwtkf/UT/3U8DM/8zPDQx/60OGUU04Z7nWve43L4Iy4WTfjL27H8pHBFNI2ZtkUjz05qG26atR8tLfnc889d3jLW94yfl/coC1L4XjtOFrQ5gy0pXCnwzO75r5OOYXoMtt0VgoZbHotcrup8tm1aMcIQqrTENQqtIxt3CxbcXc1a3bA6ba3ve3wgAc8YPjxH//x4UEPetBorO1xWxI3i0onTDody4U2Qwy2ujZDOPHEE8cDaGnHtMGqUdvXPaKgzzrrrPHTk74znpWWdfHUsf9IW5NRJ8Nf97rXjTNsz2QU1i0PkU+HzEws/Pe/vsWS66ahG+yOEQSUIU4HMhOKAYcYbIaXu3dto3gzu+OP3Cd8ToyL07E6ZBWDwfYKndP8frRS22+VSJsnH+1NNhw2cyL47LPPHpfGvXsLGWB0HG6Qg/R9X8D72Mc+NrzpTW8aP6pDP0TPrANkM/0hfOkvJh4OyPILbSq6we7YQhXYKN4o1gi4DgY6W5COEBJHONeKrqCXj7QVUr/axT62GYPvi2evuCqrVUDelSIv7g3uzKje+MY3jvuXGeCtkp+OzUHa2kGzN7zhDaPR9t/ryAdaNcIDinzqK1YK6xYSf1gHT4ugG+yOLaTzENosYRPsgKKNsuUP7mMsAnESFtIJcu1YHtRpKG3gtS57cnmvNP6rRmRFXlVuwIzKqWAfU6Gs64Cv43AiugQM2rwxcPrpp4+DtjqgX4dstiCfXuHK+9f1kCZUfbZJ6Aa7YwQB1YEiqK4McQw3MltzSINfvl4FhD8knDjCocSVVsdykbZSv0Hq2gzbwUD7ctAa0FVB/oxx2j3y47Uuf/CisB1AC+8dhx+Mtdn12972tpEY68gI+ViHbiBvocBK1JWudKXxvEf9uhm+NlVfdS3asYUqpFWwKXvPUcLCpcMF8ROuhu9YHWr9pr61jas9OXtz3onXVmmTVSL8ZHAgP4Qnbg6dvfrVrx7e8Y53bC2NdxxekAft7k0B+9Z+CONkeD6iE//crxqRR3npE/qIA5q+HZEDsviJ/G4iNs5gq8ztGk+ldiwf6pxirUY7qAKs/gl79kaDGAr+dabesVrU/pI2VPdeUbE3l9lD2qOGD9pnmHLbCYkjrxBZSJ4+UcpYm2XZ084BNEj43LeYcuvYP9T2gqln8JaA78m/5jWvGT9DSpfUg2bRFYvI27wIT/KyVWQVygxb/0j++Krl2DRsnMGmcLKMBiovlYg0cDUgHatBDDCqs+m4B+65Be5zMrxjtYhiSb9IH9E/bEdY8rvmNa857meDtsp2hfu0XSjIc23n3UC+4rSrL1UJcve50he84AXjKz7Az+teCeeKgjwnjY79hXYwSyZzeU671fZz74M5Dpp5Q8BfubR/lsGFAW6LyFsgXo3bPkN9lr+VJ29T2DbSH8Iv2cWL+03ExmnVNHjFXhqzY++Y6gDbYd7wHYsjiiX1nbqneHxExY9XfMe9KiL9K0bVM0qcpBP3ebFdHH4MMyXuAJoPqvgSGqSPV4KkV9069gfkJhOmtFfkBNVns2g/9bCa8spXvnL47Gc/O+5lQwx9lcEYzHmxnVzgMXIvTK5m1z5D6tVHy+EMOMxKZ5OwcQY7QpHGS4OkMlPpHR0dX8dUH3EK1i9RL3e5y43LfpSX/kWZJkyUJbQKdFG0ije8cWew7V/7reKpp5467mtS5JWf2sc9u+fWsX/QDpViCCGykjYDbepwob1rr/N5BzvtG/2+V3kTt+YZSI87/kLgKk99Qb8wkM1qIEpa4qNNxEb1gtoAtSHqfUdHx9cQxVKVS733UQh/IDrppJNGo23pL/41HHiOIm399oqkG8VpwOAvTS9/+cuH1772teMrXxQ8pV0H6x2bAzo4Bs9VW6WdIjMoOtxbAQZktj/cxy8QnxzAovpdmpWP5A3xC3lG+PcK13Wuc53xm/t14MF/0+Vvowx2oNJVIkolqnSoDdTRcVRR+0BVUih9Rf8xy7b85ycs+XWg8AnTznJcPSfNeREegjbdKEgzbcuklsUp9pwar3FhUT46lo+0RdoyiJ6OATYAMxDzCp+PpGhz/jVenoHbXto56eKjyjOKnMeNsXYY0+lwBzPbfPPcum8KNspgpwFVPEol1wMO6fwdHUcZVbGEQN8Ipf/kV6eUlSVAiCLTz6DGqenNi6QDSSduKH0bGO13v/vd40zbErnXf6CG3wsvHctHbce0CyMJDLal73e+853DS17ykvGNAK/y2SNOW9Z4FXtt45p+wA3i7tlbE/4o6CCmMx4JAwlX09g0bBxnKg2pSESxeDUg7+6FOjqOOqryS79pFZaBrq85OQ3rJwc+xcg98TKrTdzEj0FfFDU99+m38kueFLn3cv1m8bnPfe74vXHKX97C1MF5rh37B22gLdNGtX20pWdfM7NiYhBmAMaIe31POLKQA17u68w76cyDyBaIT2YMAt1H/uSBkretIf/nz6uObd5Jb1OxkUMJFRhh0OBGaTm0kMrv6Oj4GqJ09I8oqige95bCfVfcLNu+HcQ/8ZaB5Bt+gpoXSt+OgtW/LZ86Tez0uPe1Ew5cE6djf6EdtFvaNG3jc7MOmT3/+c8fD5p5ZU8YlLZL3CDt6bpI24oj/diDpBO3DAjkyVh77/oqV7nK+EEhJ8XDFzoo2DjLlwpMZerQXv2wx+VZI2iQg1TJHR2rwlQ/0D8g/QX5vviNbnSjce/OYbQoOWFr+CBuu0XSqWmlD0N1zz1F6tnqmZnZq171quGlL33p8JnPfGY8hJY0ajod+wdtkDYJPJtU+TgKQ/1Xf/VX47+uYzAjZyCesEkH7QXikyV5RKbyHLfIDwPNWCOGO8Y88fbKy7qwUQY7lVcFQsf1L10CoWMHB6WCOzpWjap4Kmp/sndNWdm/s6edpckoVWGlk75XleBu0YZPekmTf9KtVwT6+Ytf/OLRcHtXG2+2wyh59/Py07E8aMOc5Cc7MbzgFPhpp502PPnJTx71tIGY9jLZEj5tXNtP3MTfa7u28eUNmc3j97jjjhtufOMbj9tCwm+XN7e98rQqbNwMO0il2f9wIMXH4+v3h2uDd3QcZcxSOvoHJavPMNi+7mSGfa1rXWtcJk8fCiWd6rZbCBvDPEtBt9fEQTHO+vmLXvSi0QA4YcxPOtVAdKwf2oDhc40RJlef+9znhhe+8IXDK17xivFzs4w08Esbo1YmXHO/l3ZN+kGbLrly2JKhvva1rz1uDeEx/CRcoGx74WfV2HiDnSVx36H1tx8KqKOj42uIcoIorygcV/3HlbJFDt3Yy/ZKCyPOj5KCquziNg+i7JJOTQ/4JT/XuHmOMncIzXenGQBLrDm41A326pB22Q7ahry4Msauzh54z/pZz3rW+HGUnPKHhAFpu88ztM/LRsrDYFsCN0j1KVKD1shbDHblczd1sZ/YKIPdVpYKzajOSVLLZTp0sFPl7uTf0XHQQflQjq6B+yglM2mK1jOj5+tOlgadGr/IRS5yvv6xjL4ijeSPZqUZ9/RxvGVWZpDBWFtidf3CF76wVQYEU2nPyms32EvcgwzlrgSp51CtG/faycTpda973fD4xz9+1M0OmQmbV3Dp7Bq/ti9Mpb0IWsMvPfIjbXD1g4/b3/724xsSZM0HhKqxdo/q/abimx/5yEc+qhZ4OyScpensMzkduNv4O6GtqFRiGhfZi/D+nG/ABmn08DElBMvisaNjkxBFaCbRyrjnSpABsNmQD5f4yEX8As/rUlrJO/uO+q68KX57o75HjWeDi3z4JUuaQCekv8dNfaDoj91gt+EOC9RZ6i5lb6+BcOQs92bW3rNGPnzjmXtkUJqhdUFe2hvl3qtbzmv88A//8HDLW95yuOAFLziznwSt36ZhY4YSKioEKp0QIKBg7GX/9V//9dbn7vglHLjPs2tN03NHx2FDlX+ocp9n8BwDRpE5MW7mYfDbKrGEXQfwh/CAqtJlCKyqOXn85je/efj85z8/vvLFYAfp6xXc6myuYxqpI+1d27/WG3f1qc6dJ7Jn7cMof/EXfzFO2jwz5tos7VfTWjXwqhxQ88WL5e8b3vCG43fDbQEZ+B10bNQMO0h6ERxX5FCKWYF7oyW/DzTqboWEf57ba0fHYQLZp4hcgZxX+YfcU7zuLS87iGPQywhacrbEya+Glc4qgef03ShditZ9eMEHfeMAmtfRKOFLXOIS5ytvDAUI7766dXwj1Jv60ca1vj3nbRx1mNUMfgZQPnDzmMc8ZnwNj+6PrCWdyFjSXiXCc+7lFzIQ9UneBz7wgeP+teXww4CNM9jpbFONzc0Im3KJsAibPxF5bgWGwLlyixLq1OkwUJ1ZVDmvSH+o7vpK/oktDuWrX6XPhNaF5Bc+8QzuDUYYEHukDIb7GO4cmsM3uK/9v2N7qKegtn2e40/fn3POOePqpi+YmWGTt+jTWv/1ftUIf/Wa/Bnrm93sZsNtb3vb8WR4ypOwBxUbZ7ApE5VbOy1wd8/dwTMfVzBDAB2YHyFxzT6dZ4LlXpqeO3U6DKQfxDihzIqimEA4iPznHvEzCzHYPeuss8Ytp6qE14VZecU9fxjzpcOPfvSjY983ULGnrd8z2ilb4qSMHbuD+qv6MfrTUjf9bkD36le/ejwN7neoVjozWBKGbg4ycQqtGvgM7/LGl4+knHzyycOd7nSn8atm3/Vd3zXKtXAHXS6+6VhBztupEKn4hPMJul/6pV8a3vCGN4xL1NyX0TiVD+mlglU2VMHSOA6eObLv7yv2Krxn5z1Ty+XCRaElnWXw2NGxKSDP6TPuI9/kvaL2KxCOgedu1upzks973vPGPyzpV/oNo7iu/oIPRkK+8nQvf6QsnhE/ypix9j3ou971rsNtbnObceAB4uM/5W/5b+vhqCP1DbXOsiedD6K87GUvG1+1M0lirMXjL6x79erZNc9oHTKUvJG8DeLYgwc/+MHD/e53v62T4eHpoGMjDba0NECgIYC/DlnzM0OwH3eZy1xmJK+tWALxKUb72+nAibMMPjs6NglkOwoLGDXvW/tueAwdCJd+EIPoIJGT4k996lOHZzzjGeOpbFtO6+or6ZuQPLnlPso2wLNZlL8uMdo3uclNxgN0Bu4G8IkH0RUV7fNRRuoKkZ20BZnw1bkzzjhjnFlbgXGGICfFQXjxhA8lrdRxnlcJeeE7cK7pPve5zziYM8uGNsxBxsbOsDPSjxKKn2uMsFmCK9KRgZHWef2hSAeu4ZNWR8dhQmQ88m3Geetb33rcv9MHIvuMXyAOw0wJm5X4WpX3nn0AI986WEd/Sd/ER6vsuVsSz+Ci6hhlUU6v7dzznvcc3y23umb5UzzpZJ++on0+ytC+6kO90qXagLE2k/ZNd1+c8/tTy+KgXhHU9qi6urbfOpC2lrdJms/v/qf/9J/G/78z3pHh8H3QsVEGO5CeDqmyCUYaBXnOPX/CEoHhB2YY4nMHYYN1CVJHxzoQgxcFStbJvv27+973vsN1rnOdrSVjYYVJvwH34phlv/71rx9+4zd+Y9wr5p6DbKtE+mZ4r301wCtKH48O4MYoO4BmNuXjGJbILZmrg6m0ptyOItQlI60O1ZX69yVJ71Uz1Paq6XZhyAFjLg607RT3yEr8Vi07ED2PT1/wu/Od7zzc+973Hv93nfMP28nWQcPGzrApoTZfz4TDc/J0TdhQUMMlXkfHYUBkuV6r/Hv31AcjfuInfmLcJqK89BP9QJgMgt0zgPYmGWqz7L/5m78ZFXbCrgq13wJ+qpvnStzCU41DaV/qUpca3yt3luWa17zmcNJJJ43L5gbvFcJ3fE2XMsJWWRwi9octxtqX5fyX3NZIDuymvqs8xMhzg4RZFyIT5CXnGqy02Le2h52P7CRc7g86vvlRx/Bv9zPRFnjqlPgyKiVKBCII3KAKR/KLkFRBAvf8xTX6Srik36nTYSDyHNm2r8stzw4MeVWLEfPRCAcxA+HqlcGmgC0nW0L3XraPFNVl6hDkCtV9HohT+zYkndrPhfGMx7hX8Fd2y/gGHPh24l2/t9TvGqp8TvHc8rET5g2/X0gbBp61LRmhw32IypaIw2WMNp2eGbV6h8RPmaNXs9qxTLTpeW7dtDviTradYzC7vvnNbz7KQ2xC4rbxDyp2ZbBBgdNY1WB73SIdD1KJCTsPxJmKN+W+2/TTcLDbOB0dmw6y3CohbpUoU4rX7OP444/fctMn0k9RlB+jLSyF7YMqX/ziF8f4WXYMEhfiLu1F0Marz+53Spe/8oQMUizv+751DkoZhNgWwGvVB7X+uMX4tO71OUi+8Z8KE0zlV8E/BNulBclzNxAWn5A4yuntACspeUPgbW972zhQCw/Q8lPrrt7XOHtFZDGQt3aLm7wSBg8Gmd65tpJk39qpcHGQMOE914OOXRvsCgZbY+sYDDa0jbvMRuzo6JiN9DUKTP9jYIFituRpj9cBHG9UxK/2VxRFaHkx77JmQG5plJ8wyWOT+nflRZkt75tl01MOUNFTDBTjbdZte6AOQMSpxhqBdFGeg+peqfIBbbxq5KD6J43cB8kr8Wq4KSRszUt45VMnlr79tMOhMjqcobbFaYVC/QibuDGM3JLuulDLSGZTJqh8ec/a1o+zC7ZAEjbxE6emd5Axt8FWcB3h1FNP3VoSD9bZoB0dHedHFBWD656hNeNkfM0wHcTJVwGjnKsiEwd5TdJM+5Of/OS4l6m/C8cvCjDgtimoZcEnA+X/2j784ZvXDiapG8B3FL+wDBo/z/Gvyj5pcw9VwxFwhxonV3nwb/1aapE0gX/7HHBH+M6VDNDRzhp5VctrWr7P7qtlToBbSTGog6SVcitbDCDe14m0A5DXlA2P/Ay6rJx4G+Jud7vb+fatw6uwtSyHAXMZ7DRouySuIiuES9iOjo7VIH3MNYaDggrplxS2GSdjZTZCydU9PhAXeaa8pUP5MdxmXoye130oQn6UOBKnprMJqHWCsgxuudfs8q1vfev4b33lMYjxKlBm3LUcMa4odQtJtz4H1a+6B6nn1r/m28ZL2BoHb7Xe416vyqPNGWQz6r/8y78cnv70pw+nn376OBAjF7VN8QVte/JLPewX8BQew6d2Y6y9DeENAUvjaUPlFp6MQuJwO+hYeEk8M+wsibc4DJXT0bHJiCICygqiXPlVBYYczmGE835qlGBQ+6x7+4EUulm6peUYc0g+ud8ktOXAX10m911y5fEaE8osM4ZbnYhXSRrVmAnjHvGfF0k39xXJC0HlJ8gzP+FixK2IOHz3jne8Y/xy3Stf+cpxVv32t799HKgov7LWslQkTYj/VLh1IGVEeQbf2PBDD69veW3Rc+VR2ZRBWyYO/9wfZCzNYNeKhcNQOR0dm4zax2JAgHsMD2SWjSx1+9hIFFqNFzfPiIE30zYjt8+pr1tKpxCj8De1n7d8hWf8M9wMtS94Zblc3fBnzGLQoFX6KTOq5c/zdkidbYfkEX6TV0We+ZslG4A4IKgcVhF8oYyhdurbSqgyWmGoe9TulQ0qT/zJgWt42S+Ej5Bng6prXOMawx3ucIfhjne84/g6X+oLEjbtVsvg+aBjboOt8A5wGLUx2F4NSCWlgjo6OtaHKKX0vezTRulHMVPa/CyLO6BD+VHcVUG7ekaeHdLKrwmzF1qVY/J0v0nAT5ZE8YvPlNOzGWn2d822vXfuu9lmojmEJYw6MmhRh4kPSa91E0edZsbLLVfh8hx/VCFMqBodvCasPK2YMNT2pc2m8f7sZz973J/23e98+MRABKSTK5IGHsJX/D2H4rYu4Kki9YtPbWkLw69VfXbU+9YGn4njGr7dh3d1lvIeBnzTsQLOZWFVgNHpr/3ar417I5/61Ke2GlxSrQB2dHSsD1FOUV6IsqP89U2Hc/x20M8RLn/5y2/9KAeEpRw9iyO8ZzNry6mMwUte8pLxPmdXhBVu0/p9Ww8pI+A1/nEXhpvBjC0DhsE/CZB7xsH77Mcdd9wYxh6qfVMDoBjzpIMCaQa5nwoTChLGbF9dG0Aw0FY3LXsbfDHI9qPdW9ani60eiNPmUZF81AO+Ixuz2rHyvUrIJ4MUgx7An3wZa/+K8K61L9r5jjz3qTYMeQ7PCXPQMbfBFtwhlEc/+tHjSM67jiqZu8aeM7mOjo4lIEoKqtKNQos/Q0zxPexhDxtudatbjd/fDsSj7IUxs6x9Wh+3J+oDG5Zb80qncIx6FOwmQrmjo6Kf4sbgmr2asaaeQLndO2Fvj9TX4mwl+KmKZViG3HkARlsYKxHSyuAI1fRccw+1bnOfesxVWzDADLTlbgZZvdO/VjcZbCucwte0Qf5Q8wHh6n34lQZKuUG4ludVI3WYQYc6jMz6OMrP//zPj+9dq3Ntxg+Fb+FB3Jb/en9QMZfBTlBC89u//dvj/ojRdipMg3d0dKwHFFCUkj4InvVDV8qrNajczA79ivaUU04ZP+cY5R5E6UUJJh+zvHPOOWd40pOeNA7W9X2KU9qM3qZhSkGnrpQnhiwE6iLlRe7VYYhBQZbJzbjVJfKuO8rs24yQMc/X1tRpa0RTb5atGV71iyzTM9SW6s2o+RkcMWIZXLh3rW0UvoOUIW788ZH849bGw2fCVPd1AH/4Ae2UwdDd73734f73v//4yV11jy/+kVV1ge+0bQYf2gq4JexBxlwGO8JhGeb3fu/3xpG2Qw4qiV812K0QdHR0LB9RuFFygb6HWuMkHCVmdni7291uuMc97jG+FsPIVKT/ovrMkHg1yg8iXvGKV4yzPMYj6Sf8piB1g788twYpRiJhotjb51o+9cqQhLzfzpAgzwwNAx+jEoKkQ19mMOXwWA4Gukfq2rP6FUaclKfyIl1uUN3jBnEXduo+SPpQ3ev9qlD5xZt6tJJxi1vcYviRH/mR4aY3venW61vCpj6hthW/lKuGqekfVOzaYAumUhTayO+xj33s+LUcJy0pAH4ZxQuDUokdHR2rQRSUvqaPum8H0FWJuQJ/y7v2s3/u535uXGZkbLgLE/KMpFnx8pe/fHjmM585zrTtoeZQlDySj+t+o5ZjFhgAdTTLKOYZ8ix86jfP/LbLJ2FQRZt+/Lm14RN2Kg2o4eVX+WrTqX6z0ox767cKhB8gb84OWAn66Z/+6fFkuPMDBi/82JzwhWrduk99HDbMdUpcZagIoz4nKZG9lHRm/lAbuqOjY3VIH6t9zX37nCtlhihpy6xmcWYyToKbzfBL2ITPjCZu7s3Q/Xfe/moOQ1WjHqUpPEQn7AfCw3ZoDVobx3PrrzwpZ1DLmXuUem39tovf5hnMcmvd4zblF8xyD3byXxaUmZzl3uDRq1sPechDRmNtu0Fd4ce11lvqrNJhxa4Ndq0EoxwHIPwZx4nxCEQa9zBXWEfHQUb6pqsZpb7M4DLaTkJTlAxvFGIoBi3xzXDs0zLcZtfeAzaQr7M1aWT5Oc/Sjv9BR+piVTgMdTQvyKFXDn0f3DK436V6kyFyEwqmng8z5pphpzJ0UCNq7wAiS0M6asVhr7iOjoOMGGSHdfJqJgPMaNuPtf/KYKQfxxCLB/zs03pNjJvDUr7PkINQMdAMdjX29RBQR0dANhhlJ/C9svWgBz1ovFoGB7IUmSU7ka/I51HBQl860wEZaT86f+c73/kNxrqjo2MzwWCiul/LqJohO0zq1SWnnxlvM2ZhsiQeBVnvHY4S3jvdPmEaww3iVt1Qn8Xt6AjIJONsGfwBD3jAuAxuZk1esuID7A7ZiUweNcy9hw3psP456ys7cYOE6ejo2Dykn1KE6cfA8HqdyL62mbOZtitFmjDCJ37u9Xcnd/NKE+UqLcvsVuJA/KQhfHRE1xUdAbkhQ7e85S3HtxfcZxk82yqRWRR5OmqYq9TpYKlcI2t7WDq2SlWJKrOjo2PzoG+aocSQBvo1PwfQfMnM2x9WzsyY409ZotbI5t1kh9a8fuOzkRSumbpZepRrKPpBWh0dFWQzsuhKXtgaIC/8I0etHB4VLLQknk7oK2fIa172rrinI6ZjdnR0bAbSJ9N/geJjcCFK0Yc6LGv7f7ZlSQNy7iBu0okBj/KUpgG8r4KZdUvHMru4iU8BHxaFm7pYFR0lkAcDSbJoEOjLZs5SpB4ia5lto6NYT3MfOktl6XT2q7zW4eMpltOAX0dHx2ZB39Vno+BisIP4U4hOjuvbDC7laXnc6d2qLBMnOoFCRcIw1gw3Y08BWx63TM4/4aHrio4KgzoyQQ5POumkUX7IU+QMBe5bGT4KmHuGnc6pwlx1RL9z0ylVeFuxHR0d+48ouBhJ9+mn+jFQjmbADqRZHvfKJjcG24EgxhvS//lBdEIUrjTy0wzxHGijJ1A97BZeOjqAPBgskiUGm+xklh355ed6FI01LGSw09F0TJ30zDPPHJfQdMijWpEdHZuO9Nv0YX2V0aUEPevLiLuZsSVKS9oMtyVK51bsSycuqoZXnLgxzHmnlvLlx3AbCPDrBrtjCmQRfCrXgM/2Sh3kRb7QUcTCe9hIZ1eZfgLgbzKWx1VoR0fHZiJKr0X6dBQmMN5e7bI07gAao2vW4+Mqwsa4g+dcc08/mJVbHncozVV4syiGuxvsjhZkglyROas0PplLhsgUvxjso4q5DHY6WO2kKtdyuI8vOICWyqydkVtbydVtyr+jo2P50HfTf/XRqgTTBxltlGcrZwblwOh6fSvL4a41PXE8c48OyEz7+OOPHw+wSc+Hlwz26wCh8rAIEn8vacyDmt8q6KghZXaA2U9l/NbU+/3eRrKaS1Yia3AU62jXBlvnS+eKQDHW3HTij370o+N72XFLZ03nrZ3avQbgLqy0agfv6OhYDfSxUMUs9/RdSjQfV8nvJClSECc6oX1GdIKrw2he97LMSWcY5OdzpiBMVchB0qlo3RI3eqQtR8fmI22vLbWfmbX2vPKVr7y1FRPZEra2cZWFw4yFlsQhladCLZEZEenMRs46qOWzVGJb0bVTcUPuOzo6NhP6NOPq9DjDzcg6xcsIp6+nPyc85Dn93AxbvItd7GLjkidFbKZtCTR72wbziUdX5F769EeUdfLznDAQt46DB22Xtszetc/fGiSStfhlopfnXA87dm2w2wpRYTqFzoV8IcmrXQ6oGI3raKDC2xG0K7ekUcN0dHRsBtLn9U/9VB9lWP2lz7K2GZDlcYrUsrdwIF6UrfvoAkYcOflrifyqV73quLctLP3hyj/hIfoiaXkOL1DTFya81jAdBwdpYyBjbAlZMcBzCI2/dkXCeYZcDzvmmmGrlFox7lNp6TTeyTbLdkglo2x+SGfiprLdQ64dHR2bg9qn9fHMbvRds2RvhfhbH6VqeduvNvnHaCZ+NZzuDe5dQRiK+EpXutJ4uIif2btBAT3BP/rCvZk81MEAij6RrjDuxXPtODjQlgFZ0H7aVlvaRvG2gTcXhONfw9f7w4yFDp2lcvKcjoh0ZPT5z39+q1LTYd0LW+N1dHRsHtLH9dH00xhPMPPJ/7Rdnfy2vM2YTynT9H2o/d8sXTz74d73tkxui41RZrhjrDPg91z1SfxcQZhQx8FB2jJIm2pHK7fkwquF2YJpbUeNe5gxt8GuFZuO4VnH01ndM9Yf//jHx3v+6WQqWUOkE9ZKF66jo2NzkD7qykBn1ps+rx/r65/+9KfHq+Vxy90McDWw7tPXPYPnuLlaGqeQTzjhhHGPWzgDgcCz2ZU0w1PIACFh8Ajhs+NgQHtFHiDP2tBbSPawnRr3uVxGu4XwRwG7NtjpfComlA6RDqRjGilbDteBv/CFL4xxGPIsY6E0RNLr6OjYLOijZrr6aQwl6OP6M3/9FzGs+rslcuEsc1Ow+jYDKg4ISw9wzywcSQsl7A/90A+NJ4MtlUvPQTfpuze7MjmoOiQz//AI9b7j4CDykPasbez+Wte61ihbCYtyfxQw96GzWkngvlZwOrkK9qpXDpMIA/xyLw54Rvw6Ojo2A/p2FCVDWvu9vps+72oGbibk/Ip9aM8Mu9e/xBUOVf2Re5S+z5DTIWbclsgZf/vjDh4x1vixbx6+xG11S6jj4KHKQ2QCDBrJmdcCreQw2rWNxTkKWPjQWTpHnhllFarDWbKwNPaJT3xi3M/WiY2KIfFyn2ckfkdHx2aAUdQn9fF22bn21egB+9jerTbTtspGB1jGjLFHmW1D3KKYqx5gnBltH1s58cQTxw9oiMuP8oaqP4KkkXQ6DhZamQDPBoDIdon9bIfQEjZhjgLmMtgVtYJ0jHQeYJyNgJwetSz+/ve/f2uWnVOcKGm4TxodHR2bgRjC9E/PDLd7fdeza/qtvu2Z4TZYR/o/PUDRmjnH2MZwJ27SkTY/aXsW3r1ZFcN99atffTwtLC3vhZsQZJlduOiRzMA7Dg60IaTdtGdtU1fbI1ZbnHXI1ggk7mHHwgY7UJGp4DqS1rEZbX5GRjqujgxpgMSDet/R0bH/2E4JVr/0ZW76NtLXne6194xsjdEJDDdFm/i5VsWb+4BeySSA4TZrp7QtlTuExE08BpzxhjaNjoOByEMFN0TGrNw4J6X9XW27JMxRwEIGO50z8KyDZGSsw4LOaVnL9SMf+cj4Coj9p1S+cLWjTuGoNERHxyaj9tn6jPJc95UZZ8rVT4HOOeeccVsM7GkzvnQFqhAPVUSncI/hrkvliMHOzN8sHwnLeIe/nTCV90HErHIclPKFzypbaX/ta/JHBmy7+gKaNxJSroNQvr1iIYNdK8Y9iuGFuBll28dycMQSlkMpfhDShoWpjiVcDTsvknZHR8dyMcsQps/FsOu/lKxZNsOt/zPs+dcxZEk7cdsr5D6K3DPFzVgz3te5znWGG97whsPlLne5UYnL04w7h5VAHPzUdKG6o6myxW8n7DbcspE860Ao5eBnQJNBzaYiZZiq/7Q5MvHzjv61r33tcQCoXBD/2t6HDXteEoe2YlJxoCMY8drH8vlC8BtOHapF4lWC2oDzGPCaRkdHx+qRPlcNg2eG0xK5vs94+/cApas/W4GjdNNXXfX5KOlAmtyqcWWcLItaLneqHDmQ5JCaE8WWzemenJ2ps+6kUZE8pwx4G3Y3SFrRW0kztAzUdNo0k29QeUm5NgV4n+KprX+yxM3WiGVxE0Kywb8tb9DWy0HFUgz2FFSQzmQ0DfYcdCad8zOf+cy4XFaNtvAtaZTagNzmETbhc819R0fHapB+lr6WPhpjTKlaGjfLNtt2gIi7GbF+TV8kbNv3wTM/YWsYOoYbw02Bm3H7Trnlcu90Z4WPP8NtZp5l86SbAUby4Oca5N51Fk0BX6GkXcPPigc17HY0C8qYWXXqqtbvpmG7ssSvhrGCe6lLXWo8gAaRixDUOj8MWJnBhlQWwVGZOooOZe/BXrYfhQgTgSZYVbjEjaC32G0DJFy9djqc1LFcTNXxdqSvMggxhC3SrxFla+D+3ve+dzj77LNHN4bbbDhpQT0BXt2Fz3OMK7ccOsOHfU7Gmr6xZI6cMrdsnlm38GZsrskjPIakj6SZMLOoRdKoeg3NQtKRT5uf+5bHFuETWXVAtgbip5w5a7AdH/sB5ZqF1k85rNRoX9+hd65BmdVz6iv1lPvDgJUZbBWVyiNk4JpRsL0H+1g6C4HKZwgTPnEiVNxrx5xH2A5LY3V0rBPz9puET99PH01/DaVv5yS5WbfDaT5x6m0SYRhTs2JI+BjjVgd4bik6JAeUKHRGmoJ3spzRNgM3O/NFNUbd+710Umb8ykA/Bcmz5l1R+RG/5an1m0IN3+ZV7/kzUM4BZDsgZbnmNa853OxmNxtucYtbjPd0qwkSPStvSDqbhFl1ElR/bUN+rNg6x2D7g7wo11T97pT2QcE3HSvgSlpOsioVVJZKNLJDBE1H8J7mM5/5zOF1r3vdONJ2KC37EyB+0hAf8atpT2FWkQ5Lo3VMY1a7dyyGefuL8LUNEr9tl8xY9eEoV9tjjCWjc7vb3W647nWvu/UfZEaJARcmM8iqGzy3vEZHuPILVRgAWJbPp0998MWHXwwcLNvbZzeYEA5lJh6iy5JHrmjKYMQP4he36o6i6yD3yljJxMdAxMTHYETdmWnaevQbSnv4jLhzAn/yJ38yvPSlLx1XMgxgoodTf5sCZU9d7AbC2/K46U1vOvziL/7iaLTJCRlJ/QXSTb0fZKzMYIOkdTLC4cBZGgQReH5O/Pmwypve9Kbhec973thR8jlT4WscBGmQatwh4aGG7+joWD3S9/RNfRT0Qf0fpvpmdWOIzJIYIT8CucpVrjIqY9+Pti8NCc/YxEhS0jUd8Jx78Jw47kP0jJkaXYJPOslM1MyfbjKJcFDOCgADjjxzZ+jNXMUXR1zphC+oPKiX5Ms9FJ5Sb4hhNVAx2zeLtDpgZZJhRoyx1QLGmcFmvMWjZxGDrj6VgW598pOfPOrXGLLkvUlIvewGwqojZWS0H/GIR4yy4l4aqc+UE6X+DzJWarAhI1GVmwZBEWoV7tvD9rPPPPPM4ayzzhpHgka7OoT4Vcgi3FA7BnAPJWyQODV8R0fHcpH+x3joa7Ufcq9KNP0U6AHh6AphGClL1Fm2RmaQlrMZrjoBEE+cKOToBTx4DuLOLeRZnq54SLhMKBhks1SGjz5y78AsA51rDLyr8JmJSzckTSTP8BrjjAw66MgcjHNVBwYwyD3jHSMeQ+4a45y6AM/yUgaDjKc//enDU5/61PH/DgYYKTs6iMC/elNeg5k73elOw33ve9/h1re+9b+F+LrOB+VU5wcdKzfYEYpaWXFDKpVwI/cM9mte85rhDW94w/ixFcY8nYDgC6eRxA1yLz6SF7eEi3uN03H40Nt3udBn5kH6GEp/T//LteoBzzEwjI6+rZ8nDH+GxwzSq1pmUA6NMd6ZWTLc4lHewoobA5nnYEo+Ks/uK+KX9DxLzxVxj1GP8XafmXYo+o07hFcGOkY6M2MU98yaa74twjsIkzylU8t+6qmnjtuPL3nJS8Zl/vCfuAcVymFAY0XmIQ95yPDgBz943EZRb8pW6+AwYOUGm1Ago0aQXTqp+1SqiifUEX7LTmbab3nLW4Y3v/nN48jQd4OrEdYoSR+4Iekl7YRFHYcX2jly1bEcpF/uBsIxQvoigwHiI/0UtE/6L7gmDHdpCMvYxBB6jlEzm/TuLeVsmfx617vecLWrXe18H89IOlO8Rx9UOQlvEL62gzQTLve1XLlWiluFuOETUg/hO36u4qvXpMEd3/wqPCfPei+8FczTTz99+K3f+q1x25F7TfOgQrtnYHbXu951eOADHzjc4AY3GI02tHV00LHS17oCldYKU6UahmHPPpalDu/ZOUDhAIqTnZbJNIZw6SgIInzSSV4t4t7pcFHHajBV11MUpC/Wfg3CpK/GrSLxAoP3uDEsDLhlZ3vHBu6WeQ3ivc9t+8zpcmGivGPsal4tTzVMDRdUvxqm3icvBhTJP9csc9fZs4FHKDNpJGziVv4r4h6/1l8dc+MfJJz0uX/yk58cl/bVY223g4ZaTuXQ9upOXTopb7ug+qduDjpWfuisVpIOyC0CF6Qjq/AsHwkTwQczbqfKnSb/4Ac/OHzoQx8al8wJn6Uo+zLiZdSYNGvxVljUjg0AmcnMjCwEtd3JXZeDr0F96V8GyPoa7LVu1G9bx3mOW/p/dZt6hjxD3MA9wrvl8Wtc4xrjyXJL5g5jWS43I1cuadS4y0Kbbviveoe/8iLuED9IOZJO9XMf91wr+Ncw0k9acc89GOi88IUvHJ7znOcMr371q7fi1zQSdlMQvqagbWtde72LHDzykY8cr2SAX8IIX9NLvO3y2DSsfEm8hezaCqosuK9hcqWALbXFOGfZPKNFe905vcmP0haeAU+D1Xw6DhbSdlOygyhEe34Gcd46IAfaXniyI4x74dxHeR5FqAd1YJbnAJflZcaNmzpLmE1D2g5SBu2IZ7NXK3JW4bze4+qQGoO+boTHoNbldn57RerDtRonbu7pTf3jcY973Hhq3OCWjuSvbhNW/MRt+d0k4DEEyuC1tgc96EHDHe94x/FDOSkP1DpJXYF41T33m4i1G+ztMA8rKjuzqZzSRIw1IazGOo0Woew4eIhstJ2JO+Ju2c9hxVe+8pWj0SYL/NL+wkTph44ybDv5t/T973//cevJbHuT60T7pd3Sjto2Rgf/ZlVeezIQsd9NJo4S6Dz1wjhB2lPdqSM68vnPf/7wtKc9bXjHO96x9cGq9JGEh/QXfmjTgL8Q4NFSuJUWe9l3v/vdx/ZXF63uFydlrToBapqbhgNrsFu0FV4RYYsQdxw8aNtZnai2/Yte9KLhKU95yvD6179+nGVXRZM0UI1zVOE8iD9cWUL0+pQZ96bXSfhrZaG2J79WQR8F1DqIofVc64Kb12df9rKXDU960pPGswBg8pO+EgOmHu0JGwQYFG0a8Bk5SNnpeEvjp5xyyvATP/ET44w7Wz4JAzUucE/5N1l+DqxUq2CCFKqVnQoPaSwkTKeDR2nfXFE6WG3/dMLIhis3M690zsRzPYpI/wBK2uqU5WQzkdSbLYScB0l9bwKlzSqfWUmD9PfIwFGEsqsDUAfqDVzVEz8fobnxjW88bhvYRiIHENkIbTpamYhcGKh7PdgXNK3Apj5SN64JX8Gv+m8iNspgzyMktfJDgcpuOznMk37H/qK2a9vOqA2D0gnT5rlv5eAoI/VQ6yuKKuCXOt8khPfw27Y7bBrP60Rb9lov4F5f8PEVXwS70Y1utPVlMINadZo4oQzcNhXhM4hMeHPAa2xOxRuUxi/X3IurfK6t+yZi42bYqbTdEAHL7DkdOA1YKUicTptPU22Vdp7lXtvYFSio2iHjF/+jiPSJth5SP7VON4mC8FnbPaj9/aiCzENt39yrH/XmgJ4fhDjDYMk4BjthwJXBll7S2SSEJ3wiz5ELf4J761vfOrznPe8ZDyRDHbi3ceO+6dg4gz0PNEAaIY01Rfw6HTyqaJ+DuLtqa52V8nGtcVp5OCgddJlQ7tSJ8qsLdVUVVvVP+E2h2nbhN2VwBe4GaBmkHTVUnahO0g9y78rPeQV/8vKGgK/IgTqr9Y1AHJTnTQBe6qpA3MAgwzK/t4Ze9apXjQdQheGWLRTPwrf1AnHfRBxogw0qNw0F9VkDRIBRx+FF2lpnrct4OmM13sKlYx411H4ClBKq/aP2n01D269dw2+llKvja3XW1hWoHyfqr3zlK48HD+1lT/WLhOc35b+fqOWq4M7Na2xnnHHGeMjOX9i4Rxe4R+A5aSTNTcWBlupa0UEEaxZ1HEzMarvqrrMx1HnNh2xQTLWTxpC3cnPUUOumVVL8Nrl+8BqeK9+5D/+bXIZVoZY7V3WFIP5I+3tX3dK4j804Ea4O+aUuM/BJ/E0B/upMuYIbvg3c7WUz2JbGzbDJO7/UScoZ1LraRBx4gx2o+DRAGlHDVGobtuPgYFbbcU9b64yWyfLuJZCFzLjTOYWPET+KSH2l/O6h9qFNRPjCb5ZDU4bwrp3RJpdjlVAntV5APaR+gB9ST17tu/a1rz1+l927+C1qOpuIlAWljLnX7z1bEj/ttNPGJXJlTjx+BvcHSU4OxbpRKrw2Xvsct47DB+2PajvHrSqpKDOI+1FC+gm4p7wotVovqbdNRNq3beegtnENcxRBviPjdXCqvlJPYC/b7NqJca95BanHTZUFqGXKtSVhPv3pTw9ve9vbxu/OO4BG7rm38YO4byIOhcEO0gi1MYK2UToOFtIBW8Q9fvW5Kq0qF/FLnKOCtm5isNVJNXJo01HLAilDpaOMKve1Pmobx83+tRm2E+P5NWXC1DreNIS/lBXCb3gWxu9EGWunxv2pLAa71ksND3neNBwKqVbJqehZ2Mm/Y/WonWk3FMy63y3E0alDHV/vM9k6CGo/STvslubFXuLisyrcjq8j7VrbMvUV5Fl/cPUxFb+lRF7zSpss2j7rAN4rnxWea5/3z4mXvvSlw7vf/e4t/xapE36M+lSY/UaX9o61oSqQnTArbOu+23A6XzrgJnbE/YA6Sj1N1cmsup3CPGGDxFkkbsf2UKc71as2F8Z5ALNsM+yb3OQm43fYufFnwNBBayO8h8CJ8RxAO/vss7c+pjIFZVXmTUQ32B1rRRTJTlQxyz2Y5d6xd9S6344WxV7idiyOGDOGKT9I8T62Gbavn+XvbXtt302BrR9L4+9617vG/wyce+65W8Y85UudeN7UQUo32B1rQzrEbimY5Q5Tbh3LQa3zVdA8mDd8x/aIUULq1rKx/et8Z9wvSuOODmL9tzx7/uAHPzi85jWvGT9Z6jvjU1sHm2iog26wO9aGeTrCrLCb3JkOG1ZZ1/OkfRCNxUGANmCMs1/LePtk6U1vetPhqle96mjAuUGuBw1Vdhhne9kf+MAHhje/+c3Dxz/+8dG9DkrUSQ5jbqLcdYPdsVboELuhijy37sFUnI7lIHW7bNoturFeHdRtKHDgzCdLr3GNa4xL5JbLMxOfp902CcqHd2Wwl+0742bZ3s+unyqtxG0T0Q12x4HALGURA3BQlUnH9ujtuxowSmaV6tUBM7NPBs31ghe84HCVq1xlXBq3l82d4T7IbaCsZs1gKdwM2372F77wha16CNSBr75tYnm7we7YE9qR6bKoYpY7bOfXsXfU+l01dewPGKYYJ8aZAfcRlZNPPnnc02a0N3WJeB7gn3E2q/YBFQb7TW960/BP//RPW+XnD5torKEb7I6FscoOHCW+G9LJkPuO5WHd9dnbb32IkW4NU9rgEpe4xPgnr6td7Wrja14H7ROe28Fyt/K8733vGz9Zapad2bcyxmhvIrrB7lgb0hnmpcSr8atbqGO5qPW9Cuptt79o96W1SWbSloQvcpGLjAfQrnjFK45hDzpqGSx7Oyn+lre8ZTTcvjPOP2HUxSaiG+yOtaKO7OehKJfQVFody0dbx8ukjs2CNonBYrQdQLvuda87XP3qVx9/DMKIH2RkYKic7n08xXfGTz/99PGjKpHJTZbNb37UMfzbfUfHFgj0lOBWod8JwmbUbgnK7+3yE/ncb0ezwnEPte7vfe97h7POOmt8ZcPhEqi8ut/kDrkuqAMK2dKnr1t993d/91iHTtHW66KU9knbW4bMrCWDr4q2jTr2B+oeaStXr3l9+ctfHk9WI3JRwx00tHwr5z/+4z8OP/ADPzB+6S3+GbjArHLOowuXhW86lmlfj+o4H2JoW8HlThlbTnIwRZgqPlURc6ekdQb0la98ZXwHMktu4iZ+TUP8RTqAOPh63eteN7zsZS8b3vnOd475ViRM8q/5HgXUetVW3rM94YQThoc85CHjKzzaVJjUT2373SBtiVLX0pCu2ZnPX37v937vmK8BQkXlraYRfpC0Zt13zA9tnDqGtm71XweyPvzhD4/96n/+z/+59e6ytk0frkh7bSJSToj+AgPX+9///sMpp5wy/h88P0Chq9SFe0i5pJOyp/7WJYPdYHdsoQqgex2WeOTThe6roEaQhfvqV786fOlLXxoPcCCjcgba5wBdGU+j86QpDdeIn6s0g9zHfyfoMPikUCxvff7znx/z4p5BgjSjjOR/1FDrV9sxomZQ17nOdUYDWutkt/XeosZT10i+2uY7vuM7RmUYkjdyqOmiF73o6Mao402cUMtL2o9f0q9I+Na94/xIHaae0ifVKbg3QDfYts/7u7/7u+Mfr/St9KMQSEfbSafK0qYBnylj4JOsd7nLXYb73e9+4+9GUybliZ6bqh+odbhqdIPdMYIYpANHIHVWxo6i5R5Rqcudlp0Z40996lPDhz70odFYutob0rEZbv7CVUFPWlX89iL04jIKjDS+wLPOphzyESbl2GSFsiqkfl2jcIGR1J51CyH1tAgSL/ml7rUFWZIf43zJS15yuMxlLjO+QnT5y19+uPSlLz1c/OIXH2fhBhDCihO5iXwCfrmbKQXJp82/YxptPcUgeQ7FXf9+6lOfOrz4xS8ezjjjjNFP2KSRePqc8OmDm4aUC4/kh3y5d8DOL0btEJNF5SBbwtR6QFmJ2g90g92xhSoKBNIzinJnDClKYIT9FP4973nPOPr21SAzazNtYcymM6MOkn7NZwq1M+wUtoXwiSMdpJPpmMhzNepHBcqddlQfqRsEtZ5r/c2Ltu5BfgEeKEPE3/Xbv/3bRyPuYJMTyWb8PtzBkDPe+YhFVkxSjuTlOdgL70cNqStIfXFzn/pNXevv3lt+0pOeNDz72c8e+7j20LYJU+UKartvCjIA1P/x6V45GGE/PXn4wx8+3OpWtxrlcKoelCl6JKhhVo1+6KxjCxHCCGAQo8sAm0H7StCpp546vPrVrx7v/WPWPpePEVg+M6PN7Lx22jbditoBFkU6IKqdLX6wHQ+HGambWv7UlfatbsG8bVLrtbZFRfKXZwZ1TuvaOvFqjVUZs7mPfexj42s35AnsM2bfkVxRmtKp8iVPFPc8d0wjdVWR+ko7hbSjVQ+Dcu1j5YzRFp5fwsEm13vLVy0jkEsrP/aylYscIfIGbdlm3a8K3WB3bKEKbwSYsJo1U6Yf/ehHx8MnL3nJS4a/+qu/Gv8tS7Hau26XnYOkU9OEKeHmVsPMA3Ezeg4PSSv36XxxO0pInYC6cK+u1FkGZJAwrvO2RRu+5tkiYeUfHhhvhpuc+auSrRXP/MzEq9LMUnhtT+WBtHNkoWN3aNsrfQbUpS+eGVw5k2KAni+EIWFRnuO2ScATKFPLs/JxN+mwNXOlK11payuQO9lL/MhZLS/kukp0g90xgvARTOSeUCJK9CMf+cjw/Oc/f/jTP/3TcWZtCZwibWfQFRFeae0W84RtIW7KkHuoHSqYcjsqUC/Krm1dU19B9a/1uChqeySt9plBdi9fhphxJltmcQaElmKRPXZL5BSqsCiKNOWB9rljNmodpT2C1GPqEtm6sNphO4zhzmAv7Sdsntv09hOzeONO5jyTOasGvqWOzLRjtMWNLHtO3Hq/DnSD3TGiFUICapbjowJm0z7h5x1nI1Aj6yjZCnGQ+G2nSGdJ+lPUYirMdpS8Uctb/CvaMIcdqZsg5Y/Rm6qPxJmXdovkWfMWn3KkPMma/dNzzz13NBBWc9xf6EIXGve206bCo+QtvXn4OIpInU/VE7dKIHxWOiyLW3XTHjV+VkG0xaYhfLrWsucZkafcn3jiiePhyMhZDVPLDNxbt1WgG+yO84HgmVXbS7RH/ZznPGdcAjfLntqTjpC6EuQIdlDd8zxF8atow+xElEU6Ex5aPqJMWr+jgtRNkDqghMFz9Xe/CM3CVLg2fNqm8uLelosPd5BDbyA41Wum58BabVf3NX6bfsfXoH7Sl1NPta7qs7AgvPrNjPSzn/3suDQuXOq81v+mAU94bXVUED1lkGjp37K4Vw7NtlMXqZcQtPW4SnSD3TGCAJs126/WCZ/whCcML3jBC8Z9agJMKJEwhDJC7z77iZ6FibvOmw4c91k0C1NhdyLAH+QZ8LDqDrXJSP2og1oP3NQNpN3U305tNot2i/CBarzcxw/InQEjWbTKc84554zuTpZTqJn51TQTt2Ma6Q+1ntrntIVr+jx4b57Bdgi1HjDlnzCbiCrbAX6jq8iZlR2winPccceNXwNMvFn1A63fKtANdscIAuxErlPfDPWrXvWqcTZjOZJfBLw1hBHQtqPOcl8lap4V3Fu3dfG0SWjbLqjPs8LMA/Ud2g6t/07xwhPjYDnW0jiZdXrZ3iriJ1yUa8c02rpRZ6nf2gb1Wu/VuTMGTo1b8cg7/EHCbjpaPj2rB4bb4NBHVPxiNCs5/KMLE9Z1XfLWDfYRR4ST4vMu9Qtf+MLhuc997nhS18g5o8505iyHEdoIqPsIbihhEm+3qGnMi2psku8i6RxGqIfWGKduPKfOkecopUWQdHI/C8krSLzEmfKL0syPG8ippXGzoQtf+MJbclkJ2jK3SB0cJdS6qe0dd9dQngPtII4Bkm8xGDylDkO1/TYFeELpC0HclQvMsm0LWklgsM207WVDlTGo96tGN9iHGASwCpJniJtnxthhHp3u93//98fXtiw5MtYEs3Zk4T0n3aRXwW3KfR2YxU/H17FdfcRvGXW2aBrizYpb3ckfWTQLcjjSvf1GnzrNyd6QeO07w+6DKtPV/SggZQ61hixIvagn9cVQ24pwKMthVIfPDPprGwU13aSzKWj59VzJVgvyIR/lVXY6M2Wq5VlH2brBPsSYJUDcCWOWfbyi4ZODr33ta8eDPTHWEdo2nXUIZkdHBZmL0ieTATl17gKZdV/2spcdjYiVoKwMRV6jYKv8ig81/aOItl6mkHpPWIbM1YD/c5/73Pihm6k2qulW900Gns22DfQMTvzJyypOOxiM/KxLdrrBPiKI4kLukX0n77k6BW7f2hKQE+J1CRzEqajpdHSsA+QthxspSc+UJCKHZNchKJ+XNMtmtKsxpnxbpSpeTatje6iv1JX6TP+3JWF7wgG06I74bQdpbSrwZkBiIGhS4/eblsftaSs/f7KD8rwOdIN9BJCOlvucgnRw5ylPecrwyle+cvjABz4w01i3wrgu4ezoCCKHkc0YjGogyK89bV/k8i1oh9ASripVz1WGk3bHbKizDIDUZerQIMrZAR9SYrTz1cPd1Omm17vyKieyesNoWxrHc4w1+VpnObrBPsRIB4N0OES4/IbyDW94w/C85z1vNNZGkRHOYDtBXJeAdnRU1NkdyjNYurSP6nBQvlRl9tfKao2b56DL9Wy0deNZHZqJGixZsaNLvFkS/4MO5UNm2mbX/i5nQGigUsu3rrL2daBDiiilKCNXxtqMxAzbDzsshTts5vWMKL3dCN5h6IgdBw9kmOxFViHPlCp/A893vvOdw0tf+tJxu4cR4Uf20xfqPT/QLzpmQz1vV1dOUt/4xjceZ6FWNlK/4kVf5D7PwZTbpiCyY4/+7LPPHv8HblAIeK6ytA70GfYhRToBgUtncG8W8olPfGJ40YteNL7CRcHpgNwTLnGDViDjv05B7TjaIG/kl8xRkjEe7kPcHAoi0w5C5dS4vccYmf+/vTtr1aNo1zjem30gKK9RQY3igPNI1DgbjVNEQREFRT+BJ4KfYZ946HdQDwRBQYKoCIqKGBUSJ0QFDQhxjAqOx+/7K/a1dtF7JWY9KyurV3v/oeju6up+6um6+766hq7OcejtPOvZLpYnAtVff3hPWTCWQLO4pXTxEQe7vomfmj9JXtmOvPGR1rdu3dpacJCHxeX+11pQgj1jGJEbipHlplCbfuWVV4bXXnutvY5hXxxe+LsbJ+ea2g1WzJvYnNCvC5ymYF0fqlYkNk2sNWNqwoxjHZ+nD8WBcb2Qax2sE65cP33ZvrTW+5Sw3DXOtc/5p8I4TwQbBjbqt/chmthcb0tryf9d9WJ2MKKIMUPiyIyk9SEPUzsyQCH7Y3iHwqGmK4rDBTuNjWYdvaOMUOtz1Hxpal0CIi4ik/Q5T+KKg+N6RZzhmtnOdTVeQO3TwCwPSsYSHOi6boTrHfuC/Gq50Tr59ttvt1kgxQnSpQVnrSnBnilxRgzKoBB4T3L37t1tYIgR4kEaN53loeDcvTEXxZEgNjoOERBOMwLC9jXNGqPx3nvv/b+BUJZJF9EuDkz8iWC9f9DPfuVAqC+//PJh27ZtrRbaD86K38j2RiG2IrAjFZ6PPvqo9WV7QBSfd9LXmhLsmcJ4Ymhwc2mmMjI8k6PE0eVGEopiqrBPNpsH0N5el7NhAu7dYDZv0JCRzPZHdHJ/WPbHFcvT+5J+Ha5hyuaCCy4Ytm/f3qbztC3efix3ncVN/frLn//Khnxa1MBGE0553ct/y/9ba0qwZ0yMiKFpzlGzfv/991s/dn/TxRjD2PhikEfKKItiOdgpm1Vr6518lmDHtmOvnOuePXtaE6b5rkHIk6YXk+LAuEb9w02/nu1UAIwUv+aaa4azzz57qZ9X2gSMt51jisi7IH9sS8uC7hZv2bzxxhtLvjT5z/VYK0qwZ0YMJsZlqTbtFReCzXHZzv7lGBtczjmOL4ojjSZIr2qxX8TWsw3rRJkYsHW1a/3Z5h7A2I574SgOjuuUh5yIWX/tbOvL9tnTe+65p31Tmp/xkKW2nYetlFfOMVXSatD/X/k3f/2bb77Z/Kpm8vwnduf/jm0My8WtlBLsmRIDs8yEBhyWp0OG099kRbFRiGPsOZAjTFo2r8/RgCFMWSCmDr/R+47l/Ijra2pYtWxzcKtlE76+7KRJjfxA5TcFkudxHrVYar3R3bJ3794Wl5Yb/y3H5Hgh1ypxi1CWO2NyQ3gCNPjGaNkYlMCAbI9vwqLY6PROUb+jVxgJtho3W2f/xdrhffhzzz13uOSSS9qkKmqpBC1CFsFOGU3V/8iffEO+hax71//1119vvpWNpVXHf+vtL0Iecp4+7lApq505HJTRsgZJGCWO8c0RI5vqTVMUi8AhsmkOk1ibZ9xrjZosY+urcZ7FgeFPzHi2ZcuW4fbbb2/TefZ+RpnwTSmjKfof+ZG/PGSE5FVFyJggb95oGpcmlaSe8f+ynbBSSrBnDANiVJyU5nBPhDES+3ojLIo5wsaJgxpQvihlPeQeWMR5FgfHNTXwzJSlPsbi85Qgava59sQPU/RHydM4n1l68DOQUQ17165dreuFuGdskP8oODbHh0XtrQR75jAofS0//fRT68vOjZJQFHOGjXOi7N7gMxMGuQ+Ktce19172ZZddNlx11VXtYyziDDyLaEe40nw8RZLP5BXxn4RYH/Zbb73VKkZe80rTuJA0Wcf4XCuhBHvmmCAlfXcMx83i5sgNEsOxHYMqijnBxvWh+gQk5+peCIs6zuLvybU1AG3Hjh1tABofkweoNB9P3e8kz/GRWY9dEWpN4ybosW6GN742acfHr4YS7JnDSRFsr8OAwcRoGFyaalZrSEUxZThL78xmApXeeZZorw2uq9omYTb47IorrhjOO++8JnKuv/1TLgN5Sr56/9iv+39q1exKLdvrXpAmAeNz9edYCSXYM4aBcFL67gg2I2FgPb0hFcXciG3rVzSVpAGYmsTH90GxNhBmlQLN4QT72muvHY455phWLmNBmxJ/5xd7u/IfvOb17rvvtv5sY4XYVy/K0qdpHP2+lVCCPXMMOtu/f38zLDePgBhkH1cUc0bNmjMV0izei0ZxeHFddcHlIyCmLDVi3KQq4saiNnXiM0PyToj5UC2ZZtXTPM7vok+P/phFKMGeKQxDrdqTH+Ppb44Ynu2EopgjsW8O0v2glm0gZgaeuS/qgXVtiJ9x7ZWB75NrGhcMRrOPoGf/lIjdhLHAZl8Gz6kQsSlTlno320Ph+D/ZXq29lWDPFMahFkGwM3IxMLAgXW6sopgb7FvgcN0D7geinVe7OE/7i7UhfsU11hSeecZ9U1pfdgRvJRwpXxXbiX8UxrYi/+LiX039bPazzCqJnAerfTgswd5AjI1lOWLM0qpRcEypTcTgYjScmDjLPOnGMCtU2OghsPl0CVnnSNMkHpsvDj+53ikP60TbiHGvepkNLWnGvqenL6OsWx4p5E8+4zeDeD5WvDwRb76WWL/66qttOujkU1p4SFlN3kuwNxgp+L8jxsSAUptgKIJ9CbkRcuNUqDCXAE60d5LiibcakXX2n3ugWBtc5/gXIq2W7ZvZV155ZftQyNj3KI++AiEOfTkl7khxoN9LnrPOrgz0feedd9oANN0vHg7t623tQOf7O0qwZ0qMR+CgEIMR7Bci4HFgRTEn2HeaXWP3BCIiUawdrndwvUGITVN66aWXDjfffHP7ZrbysT/plYu4/iELfflNrezkJ3lKX/Ynn3zSatsqTNmXdNleKSXYM4Vxq1nkSTXiHWMXl/jcTEUxNzysquGwc7D5OMsIwKLOszg4/XV1rSPIOPPMM4frr7++TVl6/PHHt33xSVBu4+Ozb6rEj8q3WrYvxHk3m4B7ABGfitGi/6UEe6YwCM1P+oyEGMj4xoF9hH0cXxQbldg559g/kLJ1NTz3hv1TrK3NDdc5rRyuN9FSBuYZv+6665p4Q9lIA+nGZZNylCbppkbsTTCJCsH2ulcGoK2WEuyZEsH29KrZKYIc4e4R1zcbVqiw0QOyzr4F94A+U68XeYjlXBOKw0/KAa6/7Qia97BPPPHEYdu2be39bL4qaZIu5SI+24nrzz0V+nzzp6Yp9SWvjz/+ePjxxx+X0qwm7//9P//hf9eLDcKhFrh0nu4EHwAxCI3xj59cY2jj+KLYyMRxplvInNaaYB988ME28xbYvn1CcXjp/ZT1BNfaUtkoE2Lm06d5dzlTl1pPOktxOdfU6P+X4D/Ep2Lz5s1tWtakwSL/o6x05mhuMhpTTZuxMKAYTW6IGJZlUcwJNq0JVvDur37T3Av2WQrFkYG/iVARYmVhAJqmca0e/NBYmLNEymrKvkre8hqh/usPP/xw+Pzzz9u0uBlLsShlqTPHKxRXX331cMYZZ7R+owi2kBuBgeUmKYo5wLbZeBy7JlczbG3fvr3dB4nv74NibVhOXMUJaqKaxJWLWqhtYteXSdKmTIWpIX98qCW0Zlr3X77++uvhq6++Gvbt27f0/v+ilGDPGAbuCdYNcdNNNw3nnntu6zvSRJhmptwMSV+hwlwCOxeOPvro4eKLL24fnti6dWu7B2CfdP09UKwdrjFRE9LqYf2UU05p38tWPuYZH5dHvz5FsQ7yKX+xq/5/+gCTWrZZJ2H/IpRgzxwGZNDZXXfdtfRNWk+xaZphOHlqtV6hwhwCOEx9pMT6oYceas2u//rXv5pDjb33YlAcfiK+uc4pn97nHHXUUcPJJ5/catn6eVN+y8FvTbnM5I3d5T9a2v7pp59aTTuTqIhb5H+UYG8wDmbMIWliGJoD9d3deeedw6233tr68jZt2tRqGmravVgXxRSJffY2Oo7LOpsmAmldMkHH/fff35rEEZvvyTmKw0+EKeUj9IIN3RQeqJTRcccdt9QCmIBe6BI3NeRPkL9esL2XbdR43i8Xtwg1SnwDsVIjjXHDDaCmrVlcExSxNirTl7ykY1ypdRfF1IiTtoxNIw4R4tmxB1RNq3fffXcTag+qxnKkKdwxOVfWi7WjF+aQ654gDdHmk9RGf/jhh1YbjV/qy3yqyCvGebVtQB2/qxXBg2T+80r5r/+cbPpXoliICHZfxG4C/SlffPFFC74u88svv7QX+02ht+iTX1EcSXpnx6F7IM28A96z9tqWpnCTc1i3L0Qk+nsjccX64nvSL7/88vDUU0+1QVoGb/Xdd2N/NiXYZPJm2duZB0jjiB5//PHWwolF7K0Ee8YQ3xhMRl4yKsFNYAAE8Rb2799fgl1MFjYc22S/BBriBOMy1NDUYoTMUZ2BZ9LE1Tk+90V/zkUcaHH4UB5effIa1BNPPDF88MEHrbatjJRNyixhaiSPiF1BHMG+8cYbm2CfddZZS/ErpQR7pjCYzGHLmSEGkiK39ASr1p3XEIpiyrDR2GkvvLHtiDmR1o9t2342Lo19EfucR3yOL9YHZREfpK/3mWeeGXbu3Dm89957S2VjX8psqrAtNpe+atj2Wq2xFHqgrfPP0q7U7kqwZ4pidQPEgaE3/H7ZU+ZQTBG2G/Hl7MY1mATx0sSO4xS1KOUclpAm6+jXiyOLsoi/0vKndv3kk08Ozz33XNtOeWeprFLGUyL2JZ+WyafBdN7Ueeyxx1oLkP15/Wsl1CjxmcIQ1Kz7pziGEyPPutAbVlFMEbYZMY692ibEQuLZe98MHsfpXhDHoYacB2X760/EznzvW7ZsaeG0005bErb4spTZFIlNQj79J7ali0bftVaf7FuEqmHPFMWqWYbBpIYtrndiuUGyb8o3QvHPhn2qgUWQ47YsE8b2azshSNfbPzhYcRGGYn1I2SgPZeNLV2rYzz//fBs9rux180kzZXrbyn96+OGHh0ceeaRNEJOZ9pJmJVQNe8b0ggxGAvHZJ8SokLgKFaYWUsNir2Ob7e05cUnrwVVaIfdAT44v1peUmXIWvILqNSgj/c1WpxzFb5SyYmvy6s0F/dZq2P2rhYtQVjpTYvi9cfc3RAwmzm85R1YUU4G9qgGzXfQCbB8770NsXZrUoHs77+3fen9PFOuDslB2KQt9vaaS1TTuVb3+TZcp0ttU7EwTuA8wGRmeudJXQwn2zGE4nBV6YxfnBuDMxFdzYDF14gjZKafOZiPO/X4kzv4IvfUE+6Vl/zmmWD+UAZ8UXwXldsIJJ7T3lzNlaR68Ur5Torcj+WRnZm3LN7/z1sJqKMH+B7CccYtLyHZRbBTG9stZLie8fbqIwpjljiuOLH05BeWiKVy/r5q2mmoqFlOtYPT/ITPuadbXvC8+D4iL5r0Ee+b0BtTjSS9NT4saT1EcSQ7VVsdp+m3OshfoQz1nsfak5QOpSevzPf/889s3/S+77LImgtKMuzD6Y5fjcJSxc4zPs9x28nLSSSe1b3172CDcWG2LTgn2P5jeuIpiI3MgW7adOMs0jWfberaLaUDQMlAwwnzhhRe2Dxf52pp9JsJJa4nyI+xq3T0p95RxthfBsbGXnCfbQrAuzyDUDzzwQGvWD33aRShLLYriH0Gcbs94u5gGvRAqoxNPPLFNPnL55Ze3T3GmjzjlZ1uwHdG0LqRVZTU1W+Qczu/hoH9ASH7t14x/yy23DLfddlsbMKdVIL+dPC+alxLsoiiKYt2JIBI0Ykjcgpq116LMx33OOecsCWZEUlMzIth9EJfa+KIkb8lfWmpsI79FrPW1+0qcvmsj3SPsjhOQ41ZKCXZRFEWx7iwnYonzOpRXu2644YbWPO5zlZrBiSQi4ISUOGs2dywBHX9W9VBDf0xwTuc3iY8Av5nfveiii5pY33HHHe3da2mWO19/zpVQgl0URVFMltSOTVlqtLVmZqKdmiuxVMNOOqKaQDBT++7jDyWAsKaWnu2e1LLl7frrr2/fYPf9dVOqisvx0vQjxMfnOVRKsIuiKIp1JyLWi6VgWyDQRl4T7KuvvrrVnu0niMS6F+0c55PBqQmvlPz+OPi9BHnatGlTa6a/9957m2Ab0Z7vr/dN5xFsYVFKsIuiKIp1pxfFiFoE0jLbJlHxqcrTTz+9CSOR1mQunfWIZMixK8ExqcE7Z8Q5AfKoud3ELo8++mhrClfzT43f/uTdUsjo90Wpj38URVEUk6IXbPQy5QMgX3/99fDss88OL7300rB79+4m2ESSIPYC7TjbAqE8VLmLyI5/P+cyg5k+6muvvbYNhFPjV/vXDE7Q5QMRajhHxD9xK6UEuyiKolh3SNFyAhnEJY1vZH/22WfD008/3YT7zz//bM3fEewcF4FU69U0vlK5I76O9zDgnGrUmsAvvvjiNgDuvvvua83hvsDlQcKDgzR+J7Xsvka+qFCHEuyiKIpicpCmiFzWiWBEj2i/8847w86dO9tnOH/++ecmzISVcEcwI94rJcLv9wixPvNTTz112LFjR3vP+oorrmij1c0RTqSTNr/nt2E7g9+SLvErpQS7KIqimARptu5rooRNXELP999/P3z66aetaXzXrl2t1m0WtPQVOzZhJU3iQc3ZpC0+8WmKVK9tmSLVtiZwOHeEWoDf6slvp7aNpF0JJdhFURTFJFALJW6ErRe0yJQ4+6WLQKppf/nll8MLL7wwvPjii8P+/fuH3377rTVRE+6IqfWDyV1q0oJas/5oNWqD3PRRC5rC1bSRGnNIfv1GBDtxyat9iVuEEuyiKIpiEkSODiZq0gh9LVatWm2bcBuE9u677w579uwZfvzxx5YuI7et98cFYm3EOYH2oQ41aHOBW9pWmz722GObkPvtCPC4JSCMZXU1It1Tgl0URVFsOHrhta6f+I8//hi++eabYe/evS3s27dv+OWXX4bff/99+Ouvv5Y+GkJo1Y6JtBqzvmiDyTZv3tzmKrf02pgPd5gWlVATXXIZwU7NPXG9eK8VJdhFURTFhqOXrowAJ6DpJzZq/Lvvvhu+/fbbtvz1119bXASbUKs1H3/88UuBaIvXLJ7zwXp+L0Kdfc5nX+LXjmH4N5K4zuTf0hqLAAAAAElFTkSuQmCC;" parent="WIyWlLk6GJQsqaUBKTNV-1" vertex="1">
          <mxGeometry x="-413.74" y="400" width="113.88" height="95.83" as="geometry" />
        </mxCell>
        <mxCell id="AZhpOWYJOb6j5qODkit--57" value="" style="shape=image;verticalLabelPosition=bottom;labelBackgroundColor=default;verticalAlign=top;aspect=fixed;imageAspect=0;image=data:image/png,iVBORw0KGgoAAAANSUhEUgAAAcAAAAFmCAYAAAD6YEqAAAAAAXNSR0IArs4c6QAAAARnQU1BAACxjwv8YQUAAAAJcEhZcwAAFiUAABYlAUlSJPAAAABhaVRYdFNuaXBNZXRhZGF0YQAAAAAAeyJjbGlwUG9pbnRzIjpbeyJ4IjowLCJ5IjowfSx7IngiOjQ0OCwieSI6MH0seyJ4Ijo0NDgsInkiOjM1OH0seyJ4IjowLCJ5IjozNTh9XX23dYBQAACJMElEQVR4Xu3dB9R2V1Un8BtCC1V6CwkhoEAgELqAVJFQBCmKiA4lKKgLgRFmxFmupbgcnXHWKCoDCowKOqCCgAiBwQAhFKWGEkIngYRAQiBC6MXJ707+n/u7ed73e/v3lP1faz/33tPPPvvsfdq9zyH/dhGGRqPRaDRWDJe6+NpoNBqNxkqhDWCj0Wg0VhJtABuNRqOxkmgD2Gg0Go2VRBvARqPRaKwk2gA2Go1GYyWxLQO4kTco+i2LRqPRaGwVu2lntmwAZfj9739/pAruKcxaYRqNRqPROBBiP6pNyX0wDbMZbOtF+JrppS7177aU2yGHHDKSMLlvNBqNRmOjYEsQ+5L7akvYF+BWbdBGse0vwXzve98bC3HooYde7PL/UY3eNrNoNBqNxoqi2pGpLWF/GL6p/dkodsQASkIB3KPLXOYy+1njGMlqFDeKzYZvNBqNxnxhs2ZGeDQ1buzId77zndEtNoeN2KoB3NYhmEw/FbIaKvcKr3Df/e5391VkM8ZM2M2EbzQajcZ8YrP6XFg2g+1gQ9gS9zWNhIHYos1iyzNA0RSqGrYUkjV2VfCvfe1rY+HyvJnsNhO20Wg0GvOLzRrAS1/60vuM3BWveMV9z9NZHzvBxnjeTB6w7UMwIIkYQ8TQKcjXv/714UMf+tBwzjnnDF/60peGL37xi+P0tdFoNBqNtWAb7ZrXvOZw9atffbje9a433PKWtxyucIUrjLaGIWR7pkYvs8HNYFsGUNRKjKAZ38c+9rHh4x//+PDJT35yOPPMM0fjd+GFF45+wjQajUajsRYYNrO+K13pSqMRPPLII4ejjz56uOlNbzr84A/+4OgX41dps9iRQzCZ/Z133nmj8XvTm940nHzyycP73ve+cRbIfyvZbKVCjUaj0Zg/bNUGMHRmf8cdd9xwj3vcY7jXve41GsFrXeta+2aBaCvYtgH8xje+MRo5BX39618/vOxlLxs++MEPjsud/L797W+PfgxklkwbjUaj0VgPsRlM1GUve9nhsMMOG5dFb3WrWw2PeMQjhvvd736jH+PIbyvYtgH85je/Oe7xveENbxjpn//5n8clT3t9kmb8XEONRqPRaBwIbEcotsTeoCXRO9/5zsN973vfkewRXv7yl7841uawaQOY4AoDjN173/ve4bd/+7eHD3zgA8NXv/rVcTqaZc/LXe5y46EYBjFxGo1Go9FYD+wHg+fQy7e+9a3RfsS2XPnKVx6OPfbY4Td+4zeG2972tqNRTBzYqK3Z79iMyEkgqM/uMyWN+zvf+c7hxS9+8bj3p5CmqgqY5c5p/M1Qo9FoNJYDs3T8ehTknk1hW9gYtobNYXvYIEi82Kig3kPCwaG/eRHGu4JYzwTKc7WqZnSWPk866aRx6dN9lj0VEqzhJjNxk16j0Wg0GushrzXEbsSWABtjZdEZk+tc5zrDEUccMS6DmiGyNYlbUe0XjOEuvt+HaaCp0eKPWODTTz99pLPOOmssDMsbI6gAwilofW40Go1GYz2wFZlAsSH1mY1ha9gctid2KMukUzszy4YF+xnAacSgJpAwecndu372/bjH6roPBdNCNBqNRqOxFqZ2p9qUTKjYHjaILWKTYCN2Z1864+8BIJGakHuZfepTnxrOPffcfbM/7hKOpeaW8KFGo9FoNNbD1GbEvsTwuc8skA1ii9ikhIcafy2sawBlVK1pYErqHT/TzwsuuGB0SwEhcTJ1TYE3i8Rtampqalps2izYjMRlSyDp8MsEiw1ii9ikhKtYL/9LHIKZGrEgicjUGuznPve54RWveMVw9tlnj5lyTxhppPCOsELSbTQajUbjQGA/zPgcbIlNiTt4zqGXq1zlKsN97nOf8UX5uAXuaxzI8yVmgMkoAYPqxuA5fZMvvcQSxz9XmWRmGLdGo9FoNA6E2I1MruJWr/yqLcoMMHEr4lbdZy6BzooItRAyyswvBpB/MnAfAxj/RqPRaDQ2itiP2JNqX6p/7BE/iH+eg+nzpgwgJGHIVBN5Y991Gnc7SNpNTU1NTYtNOwU2RnqxOYgtCmpe69kymLkEOgW3uCfxZJznGi+vQ3BTsDxvFjWPpqampqbFpa2g7gHmOag2qeaRK/9ql4LqdgnLNKugU7dZYZIZv1oABZ4VHmrYRqPRaKwe1rMD3NmQGK2Ejb2ZYprOrHSr2yUMYLW4SGBusbxxR9Zec1/XX+Mubt7aB8/J3FU++Zv7oIap6Tc1NTU1LSbNsgHgng1gC+Jew4jHhniu6biPzYl77hHEbiUumq5IrvlvEBJMQRIk9/7d/dRTTx2e8pSnDKeddtp4+oZfIEzipsAQtyD3wvhzQ39rkf91qvEajUajsfiI8XFq0/ej/Yl6nVwF7uuzMHGrNsSzj2Mfc8wxw7Of/ezhNre5zfgv8sIkfu5RNX6w5wZQAZJO/Dzf8Y53HO5yl7sM17jGNcYwrHv8Go1Go7G4iA0xA6P3zz///OHtb3/7+E8O8ZvahrjDUhhAUACUCrr3Fe9HPepRw2Me85jh8MMPH/9DcI1iNRqNRmNBwSb4aLUvt/zlX/7l8JKXvGT8U/XYm9iGWXaDTYhtCTwv1Aww4YRBCuQ468///M8Pv/zLvzzc8IY33PfvvjXNRqPRaCwuYkcYvM9+9rPDc57znOH5z3/+vnMis+xDsFsGcP+nXUYKorIpnGtlQAoav6ampqamxaeq0+l6Op/ur36xDfz3AntqAFNRUEHWOCdBczqnqampqWn5aar7q9GrtmI3sacGMFDRVJbFR/VTNhkJNBqNRmM5kNkdir6P/odqF/YKB80AsvhQjV8YlCuEKU1NTU1Ni0lQdftU78N0FrgX2PMl0Ex9p0aOm8MwpsSZFoMwTU1NTU2LS5AlT0TXe54aR25sROLsNvZ8BqjCmf1B7rmjKdMajUajsfiouj36Hqb2IO57gT03gFANXGVE3Kezw6ampqamxSWoun2q36G67xX23ABa83X0Ncj6bypvBFBHBI1Go9FYDkS/V2MXGwBsAxuxV9hzS1MrPr1WZFTQaDQajcXHLJ0+yxbMsge7hZ5qNRqNRmMl0Qaw0Wg0GiuJNoCNRqPRWEm0AWw0Go3GSqINYKPRaDRWEm0AG41Go7GSaAPYaDQajZVEG8BGo9ForCTaADYajUZjJdEGsNFoNBoriTaAjUaj0VhJtAFsNBqNxkqiDWCj0Wg0VhJtABuNRqOxkmgD2Gg0Go2VRBvARqPRaKwk2gA2Go1GYyXRBrDRaDQaK4k2gI1Go9FYSbQBbDQajcZKog1go9FoNFYSbQAbC4l/+7d/u/ju/9/X5+3iQGkdKL+p34HCNw4edrtduu3nG20AG3ONKBD0/e9/f7/7PH/nO98Z74OE2QpqulPUfL/3ve/tFy73NUzATfiEbewMpvxOG0yRMLlPmPXiQMLWcGuFnYWE32y8xt6hDWBjYXDIIYdcfPfviHKJgoM8b5amSqqm/d3vfnefEVOOS13qUvuVp97XNAPhG7sDvA8FeK+96sCDW9oUapy4o8QNapj1kPjrgf+0XI2Dh+6VjYVBVXBVeUHuq5Kr9xslkFZ1k85UKVYIU8tT4yLGb2owGzuLWfxP+wO/3IN7bnVgEv/a1tM2E6amE8S9+if95FH95dE4+GgD2FgYRLGAGRmCy1zmMsOhhx46KpVvfvObozulwy0KaCNEYYWiBF35yQMpgyXXb33rW/vCeE7ZxL30pS89xomyq+Vu7DzwHNIekQvtEBkQpraxsEjbuGaGD+Jo66QbpC0Tt1LaOOlX1Hj8pK9s03CNvUcbwMbCgaK68MILhy984QvDGWecMdJnPvOZ4ayzzhrOPvvsfcTtzDPP3DB9+tOfHq+f/exnx7RqfHlwP//880fjFwU2S+FRtCGIAmzsLKY8TVtUQ4eEy2BmarDck6UvfvGLozz967/+6ziIquETdppmqPoBtxovSLwY6al/Y+9xyEWNMLMVNGBtbMg9gTn11FOHpzzlKcNpp502fPvb397X+CBM4kpnFpJWwj3pSU8a0zviiCOGy172svvCoMbqooqn+6985SvDeeedNxo4SsszZLRPsWTUX2dmGwFZzejcfZRY0jAruPrVrz7c4AY3GOmqV73qGB6qnNb7xG9Z3lngaXRUBhoVaTNI2OqW9jCYMbghT2RJ+17pSlcarnCFKwyXu9zlRlnQ7nRSrtzqAAeSnjxC07KlHDF+0ppV9mVEeALshcHls5/97OF5z3vePr/wbxbwqYYLPOPjMcccM6Z3m9vcZmy/mlZtlym/2wA25hqRPVcj5//7f//v8Pd///ej/FFYU8VWZaq6bwRV1sTVWVBmAxQfBamz3eUudxke8IAHDNe+9rX3GcGUxXPL7e5jvXZPm6UNp+2RMGZ9//iP/zi86U1vGnUZo8f4XfnKVx7b1iDnB37gB4brXve6w+GHHz7S9a53vdH98pe//MWp/X+kPCkLrCUHwkyV8TJDfcOfNoAXIWklXBvAxixE9r761a8O7373u4d/+Id/GF73uteNy5JmeASaIpvK6FaQThaZ9ZwOE7fDDjtsnP0dd9xxwwknnDAce+yxo6KEWoag5Xdz2EzbTXVL1Rf8pJX2q22D+CMG8K//+q+HV7/61cM73/nOMbyZHuNGkWpvBvFqV7vaaAhd0TWvec2x3RnDa13rWsM1rnGN0S2zutrutU4pz6oBD8KHeTKAq9kajYWD2d4//dM/DW9729tG46cTTUHQCfhUAW0UtcMgCpJxTZrw9a9/fdwrfM973jO8733vGz7/+c/v61zJfyt5N/Y3FAeCsDFiQdzSFnUmzi3pu6ZdzerT1pYmyZU2/tKXvjQq6Y9+9KPjYP+UU04ZB19/8Rd/MfzRH/3RqGyf+9znDi95yUuG17zmNaNcmgyQTUv0X/va1/YtdU7zrs+Ng4s2gI2FAMVEuRixu4/yo2QCz1FsRoWbNUSUkjhmAJSndLjJg7s0+XFzWOL0008fPve5z43+dRYKwtf8W+HtLPCW8ar7cdzw2coAipyA9qwGMfLjOX7SygwOtHUMZNKMkbT/rP1PPPHE4QUveMHw27/928PTn/704fd+7/eGv/3bvx0++MEPjkYUUj6IjLq2TBx8tAFsLAQoDAcWKCGKI4rJPXJflSAlsxUkbtKFKMuquCjCCy64YDwxGOVWw+ce6n1jZ4Cn2sPKgAMsH/vYx4YPfOAD4zLmSSedNM7KGKd3vetd46AJ0i5kJOQ5Axj+QdLnFko7upJDszyG0InhT37yk2P+b37zm4eXvexl4+zQ8p7l1be//e3jCWKGM0hajYOLNoCNhQCD5+CB/RgGJzM0oEwos7hRVpQaVGV3IIIoPgTx80zpRUlyy7N8A/FDy4aN1GmrdV8vDh4b/OR1BbNuJzc/8pGPDO9973vH5ck3vOENo8GzTMkA/Z//83/GmZilSeFBGyafOliqBhClDtxR2ryCf8Ij4RhEy+Nvectbhhe/+MWjEfyzP/uz8dCWcjDS55577vCNb3zjEmkmT1RR3Wb5B1O/tcI19kcbwMZcIwboile84nDHO95xOProo0eDE+PDL+Fi/NxnaQyipKYKorqjpBV4llcMq+fQFNXfffJOnrPiLBIqvypSP+C3lsGApFHj1HSrX3jJzZ4cI8bYOazy/Oc/f/id3/md4alPfeq47Phbv/Vbw//4H/9jeM5znjP85V/+5b5TnWaDZofiQ9oE0h6uaV+Qfy3fFPGfRdPyf/nLXx7e//73j7PA//bf/tvwrGc9a3jpS1+67+BgworHAId3cXeNnNf04x/ET/zc13Qaa+PQ37wIF9/vB8yLEAa513g2/53Gs+Gr8Wo4SNy1GiHhE+72t7/9cOc73/kS71YlXGO1QUExgmTNbMBzjJOj6/zMDhk+J/hQ7rkj9/Z4nOwLeSaj0g0id4hfCOTrXp43vOENx9OgN7/5zUc/WEtmZ7ktElL+Wr8pb2aFiTKufpB4eQb32sFMiuH68Ic/PPzLv/zLcPLJJ49Li2Z6//zP/zweSjH7Mws855xzxlmh5WgnhRk78mGWpf1/6Id+aGyfG93oRvvyQ7kXXnoOu2SmCKnTZpB0IXLCgJm5Kp+PKNCb+dBCls/JoWuNX8F91hWvqu51zT1Mn+cFymwPXds62R2sV9ZpvSroACdy73//+4+vq0z3/9eN2wawsQhwIIGQV+PlWLqj59e//vXHVxNchXF1PN2997YYKm46R97n8uydPrJLYaLIW5QRRH7TH8ime+Xxys4sAzgLa7kvEmod3OND7d/cQkEMIJ5W1HhpA0rRfp1lRLM9hs97n5Y3GT9u9troHmEZlzprkkcIyMgtbnGLkY488sgxTMqX+2oAGd2UvZZvM0g86ShH5EUdGULGj/FG2ROksJGwCQ/SiC7MIKKWT5rhba03JP95hHLPiwHs9wAbCwGyQtkZNZshOPxAAXKPn2fyktN7OlqUQJbB+JkJeqaE/vAP/3BUftIUNulNlUfcyaZ0zTjvdre7DY973OOGhz3sYaMfzIoHyyLHUbr4q06pH7fojPCKYkq9xcsSnbjx40afMD72zuiTT3ziE+OJX0pSe9MvwiW+uCjPCPA+pCwGOI94xCNGusc97rGvfPyVx70BvFcbXvWqV41Lpim/sNuFMspLmiHghgdWJeg775I+8IEPHAdTnoOEB+XBB2mKGyhr0navDyT9eUJtJ/Xo9wAbjU2CIDM8RnsUxY1vfOPhJje5yXCzm91snIXpBLe85S3H+x/8wR8c3V1vetObjn7IkthRRx01zjgYQEqWMoxCBh2FwkmnCcUv96sIPKoKJc/Vj5JBU78ob1fLlR//+MfHgyv/+3//7+FP/uRPhpe//OXDG9/4xnGm96lPfWo8MCJcDGDle+6nbtotFNRy7CaST+qvPBkwuIYYKQMw9fMqheVde5cO7qg/d/IprHqLH/5VviYv18bW0AawsRConX1KFINZHeNo2cssL8o2YeIHltCcynvta187KhtKRpgg91GuFNCs+1WDeuNNlHvlRfjMD+G/Z/6Jhyh/PP/Qhz40ftjAi+QOtTCCb33rW8clTodHKP/EmSJpQvXnFmNTw+wlUmZUyxNjpv4oBt3s14zX6VWHZf7u7/5ufHXDHiE/YcUF8hzeQ+oYguTd2BjaADYWAjp4FK4ObtkDMXbxn4KyEMcMwhUcRnjFK14xvP71rx8Vj5G2uBRSFE2UOArk6XlVlQse4Q8+hgfhm2v4xS/uVeFzN5uzxPnCF75w+N3f/d3h93//90cj6PBJHaxkpgPyS9slX89pK0i8QP5or5F8a5nVQ31Sp/AIxaAhsmxZ0CnX//k//+f4KofBQNKJDIenqZ8rN341zYNR/0VEG8DGQkDn1rGjBCDKBNbq8BQC5SIshcLwIScM7ftNjR5IC8nLNXm7RtFQaKuGymM8CF8AH2MgIfz0bNDh9KZXALwXR8nnM3L8nNjUpokfvtd05BXEbYqUaRbtNuQxnfWGap1Qwtd6qjs+OCnq1Yl8ds2SqNlgeBBKXPfhBbcapnFgtAFsLAzS0WO0giiRoCqAjL4pWqfOvJTs5JlluCimhIuSiWJJGnGHqnjitiqo9Q0PovTxJTORwAEWpzp9Fswhkxe96EXjMh/+U/SZ9UmrGtDK46r4IW7yFSYUf6jttZeY5pv71Cn1CtQ3z5nVCWNf2oDBnqAlUXKLjzmpLJ/wCmobJL2aT2NttAFsLBR0djO6WQpOp0/H5x+FbOnNcXozD5+l4k75gvCUSd1rsazqhF6WV+UJUViJk7xWAfiJD5Sveldj5zn+KDx3wONv/uZvxqVOsz+HjoSLAs8XURI3ftnDhcwMQZtxl19dBoT12oLfev47AelXnqhHSL3WQursKi7K+6oMoX1qJyXNnL0eEiOIJ0h4eXMLD5PObtd5GdAGsLEw0Klh2sk9I/Ac4mamZ8bB+Dld6PWJ7PtRPIGw3K5ylauML017d+w617nO6Jf0gHIWL8+rCLyKssWHGCjP9qqc7vSO8J//+Z+PfPeNTMudOdRR2y6Utk16cZdm3Gsc7vGDuNdwQfXbTST98KXmya0aw1qW3LsqewwpsnLhwBB+/tVf/dV4eItb0ku4UE2rcWC0AZxTVGEG91W4Zwn4LPep26wwsJb7vCDlC6XDQ1WE4ZurJTizDnt+Po3l3TJhKWlK1n0UCTLD8MK0DzLc9ra3HV+qhShkYSn+qsgWGeHlRpGwlQ+V32Z0Xl/w0rpDHE54WsrzrwiZrdRZknQSt6YjLEqYhKvuaYNQhbCV9gq1HPJNvWBa1pQr4eqzARo+Caue+aSaJVGfeWMQDSbEEyY8S16QfBrrow3gHIHwp0NQ3kbLAXdCHv+qSKC6u49blH2ehUk6FdyEnbrPC6IMXFNG92t1dHWhjP0rAMXhc1m1bvjgmSIH6fiyzL3uda/hsY997PgOoX8Fn0K64irLIkPdMxsLuOU595VnFfhF1qSBF+TVBwX++I//ePx7IC+1WwaVRmS1plXzWgv8QzWu5yrD0zJGToLISXXbDShHqMLzWnWZFR4SJ/0Zn82izaj9H6FXJQwsIoeuWdZXzykPGrPRBnDOEMEnzIQ4z64R6HRmbkaLlI/7WaDg+aUjpXO4p0Sqe4yBZ3nOE1ImlDqEBxWene5k/LxYTRFTHBQIPyRu5a16+1fv448/fvxiiBfsuYUH7pMXN9dlQOoFs+pV/WYNosC91xjssXqXD78tgeZdPuFDW8Fa8eI+9U+Z5xGb5YHwlfR1vGb87KnitcMx2gByFda9a2N9tAGcI1SFXjf8CTM/z+C+GrHM3Kp7nqPk0jkSBrhFSQmXEWTio3lCyqoOMC2je3XyWa13vOMd44lPy0VQ6+w+aXg28/MFmYc+9KHjN2kdQsDTzG4SPnlN811EqI82V7dan1rPKZ/jpx0Q/jjN6ZRi/oLIqyaW59JWjZ0FufQBcDNBqxv2tQ02tAWeA76nvzfWRxvAOQLBjcI1M4tARwFDlBABp8DyBZTE4589hITjzrhxS8eIm0MdVdElXs1zXhCFrQ51KVJ5o5DtQxkZO4DhxWJuGUyEd+oI6u603e1ud7vhp37qp0bj5zNrIKy0ofIkbp6XAXiId7Vu1XiFD/jHLYSn3k/zoWqfMbPHauadOMvCn3mDdkAGGd4R9J+DBiCWQ9OX017uG+ujDeAcoSqdwH2eKSbGzZUBsOfidJg9Fx919p6Vz0k5JZYRYRSWNGZ1ipo+5Hka7mBDearxUZeqsBElYGRsOa5+bT9KXhrigXsnPu9+97uPS593vetdh6td7Wqjn/AUPBJuFg89LzpqvYK41frFP25k0Lt9DmRYinNvFiJcZK4V8M6DvOMtHpNR+9oOx3hX0OlQs/E68K1t2JiNNoBzCsqjUgSfYTP6M/o26nY02lfQ/SGo94Us+1FI9gbynlWgAyUtcA+eked5VvApLzBOUQiI0fd1F++dedfP6w7CoygMSP285+fE54Mf/ODhR3/0R8ePZkszYfMu2ixe1HIsMlKv8GlWm3OLMkX2m+1Dmfn5pJxPmRl4AH5VA9jYOdQ2YuTwV7t4zce7gtrDZ+ay/Fz7fWNttAGcI0Sxumb2EUGOUFvy/NjHPjaOvB06oIAc76fwGQB7Mf552gGQbJDXkaPOEyUVMKrJJ53Mcw0zL1AXpHwpI15518+yp09seYGYmxmg+qpTNf6IwfMXNIyf9/7AcmgUd3iAxIub9LhJb9ERXqZ+4L4OLshGrXM+3Gy/z/5qlVMUvonnvrHzwO/IqrZx2tYM0ODP/w3ifd3aaKyNNoBzBAJLaUxHcFEmRt/+s8zmt+UnhtCyB3dk9JdPT1FSDILZkE1z8aWfTuE5CkpHSr41XMLOE1JuZcMjxs6en4FA9kIYvtSF0la/hKcYvOJwn/vcZ/wDTX+c69/d+Sds+BGaGollxLTtIXVHlj0NsMw0yJ/9VXt+eBr+JH7iNnYO+InIJuPH8CHAc31cXzcAtizKr9vgwGgDOEeIwEbYQ4SZcTvjjDNGw0cBmfEY+SVONZjcdQb/MeYbjE6K2S+g5KLQqpGtBiKIIpsnqKsyuiqf/1Rz6vCVr3zl+J9qOfQijPqBuqofMH4OudzznvccfuzHfmy4053uNM6ok554ruEH9/iFlhHqGAOY59zjBT9LbZbc7Tl7uT1/MByehV/LzquDCbyOPGeQh8+etYfXT+wHap8MThrrow3gnIDyiMASaMSN8TPiM6rzNzKWNs38LD0JE0VjFlOXPcQ1GxLeV+XNCCmxGAaGIsZC2HSsGn+eoDw6fcqqnPhgMGD2l7+OqZ1eWPVNnW9wgxsMP/IjPzL8h//wH8YTn5DlPvGyZArSDy/CI4RHCb/oUB9QT3UCbqlvnr1WYontb//2b4dTTz115FM9aYy/7l3Dl7RRY+eAp/icvX3P5FE/xntXg2R9QZtpp8b6aAM4J4jCjQIK7O0ZeTNg+WsUy50gbKgqoCgeHcCSqNmiWRIFZjZodKjzoMSP0pvSPCGDArNhAwKGz5KcfQ9KoSpc9+oHrte4xjWGu93tbsMjHvGIcf/PqyNRIiDdxJ/WP+1SwywD1KXWp9Yf8McgyozCSoJTx2THgAwSLryZRY2dA36mn0Zu82wl44Y3vOHwoAc9aLjjHe84XP3qVx8Hd4310QZwjhBFy5C52t+idKzrW3qqR/vTGQKjv4zIIf6ujObJJ588HlyQThQZv6r0En4KbrPcKw7kv1Ekr1np6dDqmVOIXnd4z3veMy75QpRC4FmcK13pSuOL7g68WPr0+sOsPDIb5B7exkhMjcMUa7lD4s4zahlzb1mNzFlerqc98Wm9OlX+NdYHPk55OW2LPFcZqwM3gzkHubzK8/jHP364733vO37HthrAqXx6nrqtItoA7jIIGWVQjcssYeTP8BF2guveO33Pec5zRkWfP8VMWkmPW5Y+zZDcB7XzWLKizJwU886gUb19QfGFyTXGNx0seWV2CdPy1/JsFqk7JJ8szQY1fZ81c9jFXocTn4w+KG/qEPAzMr7pTW86nHDCCeMMEH8SNuFzD9NneaZeruGDcHGHyp+UFWp55hW1zrlXB6sHThtb/sx3PQ3Apq/XNLYOvK5bF9O2qNsSuQL+eza4u/nNbz78zM/8zPCMZzxj3Ne+5jWvOYaJ7CLh02ae088ip6uKNoC7hAhZhM41whZB9kxJR5iROBSPJSfLnr7756QnxSN8CHQSEAfip9Ok4yRfV4rLKxMOyFBs3h9ylD0HGtLxIHkEtcy5oryYn/JvBdKRhuu0DOGhzpq9KC+7O45veVgYS3LyzgwYeT7ssMPGf3V4+MMfPtzhDncY/96Iu/RQUJ/lh9eepQMpE54G0uGWMtZyTyFMzW+ekLK5htQHfy29G2yYcaduNXxjZzDlZe1HeI33BsXVGLo3sLPk6ePtTjR7zlehoKYTJK8qv/KYV/ncbczusY0dQYQqgkjYpsIexS8MMiuzT+efsy07mfkJw28qpAQYMQD2uAh/3Kd5Ip2GwXJa0mlSL83Lw8a5fTVxEndazppeoDwx4OJtB9JI2sopPc/c1d9yML6YDVPMWfaELMlVXuKJF93vfe97j9/4dADGbDB1m5J84ude/CwhcVceFCXkHr+FE8dz4k+RPGb5HUzUcoX/eGhggdcOGDGElsur8m3sHCLfgL+Vx2kbCP/JpFkf2Xag65GPfOTwqEc9arjNbW4zyqL0ENS0cp929kxmIfkkr1VCG8BdQoTVldARYIiSBn6Elp8wZmgOulj2dHDlvPPO27fkxNBUgRVeWr5o4t8LfNHkuOOOG9PjnnzEqZTymPXJw5dkGFvvDnJHKZ+r8Eg5lCHghxgV9RRvO5CGMjvgk3yVl7v6U8Re6/DOXzXW8uUPeJF6+ncHB17s+zF+0lR+8aSJhJMnRMFYjrJHiKeWksRL3fk7bSsuPjtMY69FXGlB+BKClEn8eYGyVRlJ2fDfUjk+oyx9Jmxj51BlhgyRqWrEtAl3/pFBg65jjjlm+OVf/uVxv8++nz6Y8JFr92njyK5n5J67NGEe5XOv0AZwFxGhI5yzEAGlwJ1ktCzptKa9rXzhHdIhQAeJkFviY/R+8id/clzm80HnhzzkIcNRRx21bzYYoU9ersqlUxjpWxL1h7H21Iz489dB6QzpQOkkIA3wXJX/VpDygLTS4ZE6442j95aDnfy0PKx8ygXyFlYZs6fxQz/0Q8OP//iPj8bv6KOPHo1aeJZ0XaF2+vAHXy0nOU1n6ZRhTTx5MHrcvUrBuKadp2kmjmvNZ55Qy2V1wAvVZtlmgGbdQXjT2BngewjICR5XPsfPs4GXAZclT/vZPuRwk5vcZOznZDvhIuN1wEpm82qEga+80neFTX6riDaAu4wqYFWgEUGkdAimQyne17O8Z+YXI1Q7CRB2Ct0yiA6hIzCAXu5m/GyGWxpxKowiFzf56VyeI/igQzAsDIxTomaF9nwyE0vHlK94wA3S2aCWcbNIGvKoI2C88b9+eGLfj3LWseMPygA6u3JaCjYqNiCwLOQ4uPTxLPUWLvGVWxquSVcZDj/88DEdCufYY48dl5yuf/3rj+6Mnz0Xgw8zTZimB0kv9ZsnpJzKljL6nqoTwpbFzbj51zCNnUX6DP6iDOKmMqSvG9T6s+af/umfHpc8fc2IO/8aVtyk5dkM/tOf/vR4Clw/t8XCT5z05+S/ijj0Ny/Cxff7AUMwM40EuaeEzBQcqaeso1grEnctxiZ8whlN3/nOdx6uetWr7muY+C0yUv8IqWeCiQiiWdiJJ544frbMx2zNeBgCHQFfAQ/wRBrcGTaznCc+8YnjsX6dgx93XzrxLA5hl750IvBJJ2VQHs8MoTY1UmR4/DOC/8kz8qxx0tZpl5SR/1Yg//BImu7Jl3uHf7z8T84o5IRzjYykDsDYWQpGTsMxZMqFn0kbuLkXVzqpD/fUgx9ZNBNk8BhBS0/2E80uf/iHf3hcIhVeWEgaQfJM+vMGZdLWBjt4ZeXB3rD/UrTMjG9kNHybN8ziaeW1mbs2QwYwtS1yT+6tMDD8BqKJuxd1Th7yJDcpWz7NF96TtUc/+tHjkr7Xecz6EkcbBYkfd1eGzzeDvUplVUm/tmphQKjvpm+jvYJ8rS44YGXAHSj7Wqh+03DqQO8ZlFqdIctrhZ/G3btaryCiGAmX+zwDpWP50cvpZjdOYzJWdekCdAAkrnQoZcf5fc3EX/lkpseP0PM3OvSh58c97nHjMqAXZJOGKyGIwMeNYfWe1wc+8IHxdGiOv5sNToVmKlBT/40i/FAWZVBvRKDtQ1kO9iqIQzv4ouMkTsoN8ldHM7YHPOABo7G68pWvvM/wgXTF8Sy/kDSSTr0XjqKhLG5961uP/xSvg+G9Y+dmfulolaCmET7PK8IjXwnyTiWFSTmlLcLn1K2x84jckRXtQc71aUucDrnY2nCYy2As77BCZE74tJH20n76z4te9KLhJS95ydimZoEGOO4NLMWRX+1Hq4g2gLuECDWhjKAFFIvTnZT7i1/84tHQEFpCieoyCJKOK6V+q1vdapyB6Bj2t7I/xT8dQicxm/7Zn/3ZcdRoBmN2xLDUckGeQRmNEr16YcRoWdRekJkkA5R8klfSSVqbQc038eUvH8s2ZiGM8Omnnz4ODOSJN7XDikdhWApi9CxX3uUudxmXKfmlrFDjueePH0HKE0odXXPqzuibQcz+KgiTcK7iJq+4I8/zBOXBz/CAwjQadxjK4EwdyGHqgRq7g/CWnJiZOdRC3gy67PfZ2jDoqnvRrrnPs/bMMrYPRfizXINr2wj8DCS9AuXZDD9ymfiriDaAu4QoPyBcFLVnxs+ysf9S8x9+FA83SpUyEkZcAus+y3gMmD2nX/qlXxr3/Shl4dIBhEncgCE0azFbtE+YE4vSjsCnA3Bzjb/9NjMwJ0QdjnH4hDt/eSSf6Yx1oxBfeUEZpItHlqQcyrHsaWnKwIAiRumo4Ys4WQ6+3/3uNy59qjNUXrhSLNzUQR7KDQlXy5N8hJVv3D0nzfCPX9II6swpqP7zAGWz/KmsBhh4bgmeu7JDrVetS2NnEJ6SY8ueuTfItc/35Cc/edwastqgbwivTTJLJJvazzMwfpYVnZZ2ktzgkayTfTCwsaJz0kknjd/RjcxP5XeV0AZwFzFVHgTUEiMBte9nWSJKKDOshCWUEXiGywa4fQB7Ww5jROhBmECeyVdnsiTqMIi9KzNCJxvrDEaYdAD5UX46l3LlqyveF2SwLaFkTzFlFV/cKM3NoOaJ7MGY+Rm1Mn71i/Y1P3XnbhDgIJCDAQ7+2JPL/omw4YOwuYcYw6SJQJhQ8o3i4ZY4kPQSH08SJzyZhpknKJu6kUmK0qzfqsS0zJUaO4fwv8qhFR1bF495zGPGAZ0l0LqUn7YhZ2QMAcNmC8WA1aqJT9d5t1f/SV8Vx73VFX3awDufQ4RVbd82gDuACHBF3BDBI2xGXU7YOfDif/24E2oGkBB7DnQMipoBMwo0u8kL3ZQ8fxA/95COks4if/95l31DHewWt7jFuBme2WXtiMqgs+TePqVTmD6hZlmFsqQ0M4NK5xRWHMg1qM/Te5RZSPYfvX/mtRBI2VKnGED3ljrtgzrxaXlSWgkL4UvyAX7qLY3qDomP8MBVuCDppSyBeOEZd3GinIKaz15D3rPyxweDDgqRbGrXWreDWeZFx1RGIG5xjyxbxUgfdYrbao1BK3eo7UfOkLjcLGX6GyR6xX6fQ0yWQLN8jYSPbtFv9WFhDHC5K0/NY5XQBnALqILiPstzQQQubowb5e5dOyey8ge1hJjyFy6dIkqXm5NNDnZ46dUmuD2AhBdO/ChlV5R0IGm5Unb2FewJPv3pTx9nTNJPWihIZ0hcJ1OVnxG0r2CvyIEZfuk80sk190mrutX7dEqzTXtPjJ/Zn2VPkPa0jolrSfj4448ffv7nf378xBk/7mmLGgdJq95Pn6FeU/caDmp4iH/Cz0LC7DbCX9cgbiHIPT98t8RNRtUh/pC6hhobA15VeUj7I+6e8Z4xyknVpz71qaMsM4L2ANM3yD8IX9vSvcMsZu6WO21V2K+XZuIkf2kJn2cDHTNAqyyWSCHtm3xWBbvfK5cIVThcI4wEyzPjhNxzI1RO1xFSxsNXXsxsoqQj5AHBFcfM74gjjhj3+owIjQYt7/FPGHlEaNeDMEh5GEHLp5ZBf+7nfm74iZ/4iX2fUEpZUm5QxoCCtInuwI73FRkrryYYgSpLylUhzfAjEMaztN1nBOt/Cx0Kwi9xQLjEl36uDJ5RshOu+KT80lL2yp/Ac1Dv14NwCXugOAl7oHC7jVpn9/U5SJuSQbKI92b5FCG/xEn8tdJpzAYZIIeR7wwqAu5k1F6109rZo9fXLedb8hQvPE97BeJqOwMXS562U3LKUxtGt9Q0Ipfpj0jbM4B1S2MV0QZwC4hwRWEQeCBIMSTcKXcHCxgLwuq+KveElR6SjtGfmZl3fyx7WrLMJrgwGVmKjzaKhGdcLbfkJKm9BkZkeghH2HS+uJsJ6mj2BBksS6PeG1RPYQLxIWnU59yru87KqDJ8lm4+/OEP78sz4YQRL2XworvXEgwMnG6tCoa/cCk/WiWod2ha96m7WTd5dCLQjDt70eEbSlvANL3GJYG/6T/1GcI/V8bP/p5VHX0QOcjF+FX5R/oJt6RjD0+b+VqPV6j0RX2Q8RNGGyaN5JnycJeecJY/7Rs6kGdwu6rt2wZwE4hQ5j5KOUo6hyuAUbC3YubnCysEDfhHQN0nHYpcGvb4dAwnwByDjoLnFwF2n7gbhbCJE2F32sxM8AlPeMJocLPnAAknz4waIeX05Zo/+ZM/Gd818oUJ4VDSBvUyO0udMzoVxr2TpQ4Dedldh6x+gJ/Koc7IcpGlW4cEHBhgtCsPUt5aBve7RfMGvKj8AM/4jyDlpjAtZZvFG9jgW1DTmabXmA18iqzjsb5E/qMbEoZMZwBnyZM82+dP+7hmkKtNYgCR5c1TTjll+IM/+IOxz1jy5C4f0EfFk8968snfFobZP+NpSTT5rxraAG4RBIzwuVahc+80nZNYNqW9d0PYCG/CCytcjBt3ncfhFC9ye/HVS69ZDiHYMXyeQ5tFjYscpnHClMF1kMSM0wvlZqHKp2MJl3xd0yEtnZgNWtZ1QtQMjkFTVuEyowDPqTtwt9SZf7l3Yg1/AuFC8gW8cODFn306FJTXQOIPeZ667wZ2O/3toPIN3OO/tnOP197tdBjCfvRULlHihRoHRu2jZBxfMwg0WNO38s1ecuyD6+RYOIZS/PBffO3k3qzPkqetB7M+A+t81xPED1WkHZUJ0pbC6Z/e+bW3L61VRRvATYAghSJw7hkygkWILSd5XcCSpwMdRtiZNUVAhY2gA0Nkb44hsi9nb0uHSfjkBTXeZqEMyTsdQQe1F8HwGpV6gd5hGfmnXokDtSw6kWVLxs8mvBkFhcpd541CED55Q744YxnV10cswUD8oebD+JnxWbZ1SMAsOYMHqPHCn5R7t2hegc+zoC0oVWWnUA3SLKVpC5jWLdfwsrE/Kr/CH/yNnGfAy/iZ4ZFfB9qsXnix3allKxrCiJe4kD6jH+X0uPc0n/e8543bKfbvhJ/VJ5NGLVf84pZnM3+rN7Yhav6rhDaAWwABolCAAXGPLCWY0Tjt6WSdWRLBouDFiXJ2zz0jPDM/rzjYDHcoJelG+ehEVeET1K0IazoEJF1LNcritQjG72lPe9r4Eq4vT2QJUt6pr3vlkr94jL4RpI34//7f//to1Lxsm3CpY+ogjmWcF7zgBaPxNGBIhxQOBfKQv6+85HNQBgpJE48qn1YdkYvwEyIn1d0gxQDEsjMlCOGfMKjGa+yPtWStym5k0mqKvmSr4dd//dfHA2i+sasf8NcvhNEP088YPn7awQqSk+NOelqypFO0mT4gjbXah3socJ+21W/cWwXIO4OeVw1tADeIKjyEkwBBDINRlEMhPiFmicIRZQJaIX7CS8cI0IvtZjaWHy17WhLhpwMh9+IkX9fQZpF4ypG9iRgRnU/eZoOWZxiczLZA3qGk4z6dlvG3qe6f7L3nqONaEpU2f7xg7LyvlL/b0ekCZUoHpBTUnWKwT2lGrEyWaykKfrUtAs9ZSgpS1p2meURtI4i8Ka92yIDGDMLI30yQH35CrR9qXBJV3qaovNMvHGzxeT4fsCDDljytZkR+q8xzS9uJ74CS5U7nBwwYDVYYvYStedV4SU97xy/tC9xyZWidTTCAlb6+s2poA7gJEJoIVQTMaMx+ilcdKH8K3t5YhJLwRbiFj4AyNjqEpUcnPc2+LDvWPCBx4jb13yhqOohiTFl01qStDD65Zq/Ccuztbne78RUMRilhQJ3wAInPnUL1JRd7FZaAKVn7DDou42cpx6k1L7rrcOKkc7pH8pAm/njRneFzRNwskEHkLz9lT30C97Ve1W+nsZtpbwf4U+WtGkB80xYMIAVrZUK4hJ1Vp7XcG/sPOBDgvYFtvuXpK0Ve2bHkmX4SRFbDY4NEfchrKT5X5hUH++QOqkg3fa72V1Tzz3P6lXtx4g/85EsW7CNaEZjuw68K2gBuEFWQIjwE1h4KpW6kxviZ1RhpR9iF9yxuFWInwSw1Wvp0JJoykqY4EVDpu0pLHPAMVaA3C+lnliU9JD35gPJ6VeJhD3vY8NjHPnY0hPlfPZ1WWVIno8aUmxsYEGQm6IAMnljutDScf5gQPjx0nzSVgTsFktGzWaBwyius+5Q1M1lIvcJ7lPrtNCXPeYY2xRNQXrwy8KDs7AHi44HkKPXcjrytCsiwrQTy6pu9lj2t8DCI+k1kmJxHTmv7WDXyhajf+Z3fGffU7dGapZE3cZF0kPZAkXFIWglf2y7t56qcCQtkwlJolsNXCW0AtwiC5ICLY/z5dqVlwCzBISCEVRgtgRgZ2gj3X36WGHUQnYFggrDSJ6QRXkItbffTNDeCpAOJFzckr9oZ05nNBhlA3xE1S/UOk3C1jqB8eXbvlKdDMQYH9jCciLU/mj/bTbiUxRXhA574VwcvCftvwywb1XLWskM6fZ5n1XGnaR4RPqh/eJW2okwZPkvTXtMRNnHCr1lI2zTWhtUJA1krOo9//OP3vdiuv2SwiMgNfiP32kd/cMpTX/F6g0Fi3s/UbuF/4sYNuMU/bhXchF+rjbnpq/kf0FXDShvAtQSiutfn3DNEhMZyH6G132UZgTATNAqI0NVn0Bns85n15X/r8vHmzH4i5OKm0wC3uOd5s0jc1CMdsFKQ/Hx1xek1M0F7lT7bxDAqV+olHUjHTB0oW4dj/uzP/mzkkz1CijdhAvdxwyMvuPv4d5aFuUd5KGP4FIKUN/dmkZaTDEosw5qpb5US39UhhAxEILychfX8dgvqrh0g/ApvKFp71WRXHWBaxtQr2Ovy7yZqXdaq17T+ELdZfvhrgOZ/Ob2mY+/csqe9dKc/xUHCRYblre9oE/LE2PnOrg9ZWyXRb6yaMEjCTvNPe1YIV+tUw1aDCdN7Kza2bfTNyM6qYGX/EV65IkTJwzP3WuYoCgIsnLqaxfgfP+vzjvHnfRxIXGFTD24MnA5iJmXmZ4lRmGr0XFHyCuImvfilM20W4lSaIu7JT32Rk2v25CxNqq+OyyDU8OFd5YF66cyUb+VvwuALkgfDamn4F3/xF8elI3mmjZJ+kLTjlvJy12bKZgZqr8uHf337MGQvkhuy9FPdXbnn3tXpu7gxHpavfJEGlJsym7ZHrSv36rfbiIwkT2XhZkDgAJLVCv238m8RMYuntd5WVuo/wqtv/LWZK1l2Ilb7OgyiP4KwgG8oqOm7GsCSVft8tjQsf2bJE8gFpB8lLlhydMDFcqetAvJVByZQ89tMe60Xjl9NX576IP1rv1/5K2patfxbBT6Y3TosqI8G66Vd/abh8Hir/wi/sgZwmn8ViGme8VdPBzu8i2Ppk4I0w4hgCkeQEj5uFLslEXtalj8ZvxzoQFCVVtwqqvtaYTaKA8WPP1IHZVMvszF1YZg8Z5alAwkX1LiIsgkvcpVmjAbS6cw07TuSA3uOCZd4KOlrC4hyShgKzXuY2seerMNJFBwyA2UQkXvLTrnPNVTDuSasNjdC1+7KSAGqh3LIP4oTlKnSXiLlCc+US1+N3BogxG9RMYunlddTAxijF7nDI4MzspF2Be4xhCBsBqp4Jr6+YKne6U6rOfe85z3HQ21ZsUg8iH6InOgzZn3RI1aQHHwx4xMG0jZpR9jp9lI+pHzK7cAb3WQVZlZeqc920QbwIiR8wu21AYSaNiHwTOCqu7Lwo1iNEAmtz5s51GEWJKw6hl8UIqSzmSlY6vSOH+NnqST56FRr5TsvSNmUU3l1DnVw5WfjPu8leQ6tBXySHgpvCaz9EsbP6dMsHQkbRRT+iuee0fUsjfhx00ZezHcoyYECM7x88onSsdSD3IdmPcdNvPosLVf1VmZGMCNm5VAfSFld0V4ieSrPlDf5h/C6arGomMXX1B2mBpCeIi8o4RhAg1pyEgNI5gzwtGXak4ziJZBPxs7nA/NflF50195B2l4c+caP8TPTM/OziuSTglaUatnSbpC65HknER4AA4hPVnkYk2n+ue4E5skA/nuLrSgIOGMVpOEj/J4pCwdefInBGr3RYg5yVAjLEEiPwJvlWe7090OMn+UF8WonTMdIXvMGZVIfQuuqnOpln86+4JOe9KRREXAjeOoT3qkfZVLrmKv08AoIrYMDRtNmmAYR0kLCKQN+SUeaU4q7PQwKheFjuBjm5Jlw61HCyKuWG+KHB/ZMKDHL34yK8tW4FfxCewHlQBA+eyZ3jDYln4HbqiFtqi0MCPDHfeSaHzkGsoN3AVn17D3UvNj+a7/2a+Pyp0EQP/ER3ia85yhkqwbeFfYRCC+2ZxANGegpl3jKJU7S3G0or9djrAxAeANVVqr7MmBlDaBGjKBVwa3QMQioUYoX3PPvB+kc4iZ+DBp3o0cjKTMa7/iZAVo21BH4CStcTl2JF5o3ROCVOXX0TBH4tqGX5dXTwR6jsBgvHVrYxEcB9/Dc+1HiOvWJZ1FSoZpnroi7qzYKtIulSkoef2flDXGbUvWrHT1X+YN2Y0woMIefEqfWK2HjtxdYKy9lMYhTZjMePOOWMq4C0jb4QzbSRqE880MV4pAHpzydiLaa46tEZpVWQvTpWemBtBgXy+f2+aweORhmyZO7cEj6IfklnbXadKeQtBleM1Ezs1oPFKQsu1mevcbKGkAgnBqYMp2CnxmFpREHB5xiNPObNXoWP4KMzGgs52bZ0zJo8mEg3Euf0IE40zTnDQxTjJGy66g6fo5+q6tlbEaRUsiIVjgQL6S++IBP+OPkXPZPpp0reUYxgOdalnTKjGJ14uQfv8B9VTSzqPonTiBPzwwKQ2vEXNOCtGd1223Ip5YZlAEBWTZzrTK3aqhtUvtc+IQMDvjHj4w75ekvw8iqgy7k1XJhwkgr8hiQP2mRD8vm9qMty9s2sppEbsVB4nuOLKcsEFncTciTXHg9Jvqt8qci/FsWrKwB1LgZuUUAIvwEzmyCoP6v//W/RuNnxCaM8ChpEODEAZ3Ff+z9yq/8ynDb2952XPaUj1mRsCA8N3sU0oqQz6NgKXOWcHRQPNK5kTowZP6vkPH7jd/4jXFPxOGA8EjczAgThx8++fybdXtHxuUj/drp3Icn4lT+uOcmPffhf5awLPlxl4ZwNd1Z4J8wNb3qhpSzpiVtxPiSj8Sb4kD57wSUL0g5lA0otvxbB9SwqwJ1xg9yGHDDE/zSRuQnssjPfp9+/MxnPnM44YQTxvdiyTwIh6QpbIxY5NiSp2Xy3/u93xvf73M4i5/+EJmJ3KQ9uKePKFPct4IDyVxNGw8MkOxRhhd7IbMHGytrAKE2MmFAhJEg+JNW7+V41y+b1AkzFUz3jJnZkNccKHYjRDMhHaSiplHTqenNG5RT/SEdHt9SZm4Mmm8fMmh4YLTMEKaOqbOr0bRTc8JaAjXz0+nTFlEoGZCkneIPSau6uafcXGt7zaKKmsYU8ROnthesF+9goJYVeY4iNStmAN1zT5hVw7Q9ww9wH2NoiZ8828Kw102ec+iJrCa8dMhaTSdL8b6G5HNmXmzPv+4zeAmf+GmntEv8g/hvBSnTgSBPMmKglMFjCHKV3kbTXASstAGsjUzACIFRm1NhTsvZ97PMRWgjgBGEgDDoEJb+nAZ73OMeN3aWepKxEhBueaFgHoVKedNJkTIydilr9edm9Owotc+XOc3poIx9QQMB3/Z0tezpi/gGCQ7POHYNeCjtdPykDdKuBPxh6h54ThjXSrNQw9e0knbiTpUT8CcfUWIHAynnrPyVm2JzYlvZhZnWYVWQdsw9PpA7BPq6AZlTnT7G4P2+RzziEeMXichvZm8gbtLLPSNiydO2if0+q0fRIfielabwf9pu0oiMVb8aZrPYSDx5WiYnJ/aJPdd6gWvkfFmwsgYwjVuFjQDYrH7uc587vp/j0ICOocEJsHBmGPlHAn6UvmVOy56/8Au/MO5lWSKRfjpW0pBHhEk6WVqsQsV/o7SbkL76QuoA6Rgpd678ubu35+mrMU984hPHU6I+AMDoOTjgX7AtJR1//PHjwSBIevKjHJBnPKrlqAhPwRUJm0Me4sa/opY792s9B9NnkBdlFn7EgCecMiN+e4XknXqA/N2bffiajQM8s/i57MAHbVXlK9Bf9cXIuUGcvux7nuRW2Mhb0glfw2tXsueAy7Of/ezxpKf3C8WLXGepk1udRYaCpBkC/uLuNJKmq5mfOtCDtTzAfzfyP9i4pIZYERAypKEpB+81OuX5V3/1V+OpT1/84EdwXYWNEEQ4jBR92sySn5fcLZlYChUWqsCI4znCDTW9+G+GEm8jJPxmEP6kLtPnpFfrkqsOblDg9KslJAdkGD3XLHtaSspyJRLPtSoa5Y5fBirJZ1oOqG7CroUaJ2Fd4550oLoDv1CMbPWvaaApf3YTyTP3IF/3lG8GB5ByrRrCoyxFutf/yYD/mvSn0MhgzazPSg5jJdy0bRGYNTks55CL16Rsn/jguNkgfosXAnmhxI97MA1f77eK5DULSR8/DJDq/vmyY+l7QRWc3LtGADU4Y+fdMX/hY9kze36UBMUhrHvknp+Znw5iduNfnh3jz6GWKtjJUzz3/BKGW1DDzsKB/A+EGnejaaWcCeuZgargn/pCTdvhGJ82s9zp5JxZoT/85R4kvjiujErySBuh8A/iBjU/ENezNqruQdwSLzRti1xrvpB8XSlGPIGkE/DnN+XhwYC8Kfz6blvKtYyovE+7cKvu+jVE1sikd/qe8IQnjK86GMxmuZNMQk0HkQ1Gzulw3/L00XenPPPXQnidWR+IA+LFMMZtCn5T2dstpAzyUu4YwFXA0hlADZfGI0ARonqvkY36CKhlTsbvD//wD8d1e+6JS0irMs6MheJzcpFSt0ziUAcQHBAmHQ15zmwh4CZt13oPyhj3pMGtjt5DCXcgEhYqL9BaEA5q3KCmW5/rvfhJI3m61nIEwqc+AX5k5I3CP/dB/AL3Nd1gGm5WmCB8qWHqfXgmvWpMgpoPJG4NsxeoZSY3dWQP1X9RkTpM29c92WHA9HX155a+LJ7BqjCuTnlaoXjGM56x71ue4kxlcgozP/9tabnzj//4j8dZYE5RzuLv1M1z3Op9xVppbQRJc7344Vuu+JWVgvQF4F/731bLNG/Y2165B9AwERqNhWpjZURGeXnN4fWvf/24bOFjuEZz/KJsZwmffSudxEEPX3lh/Owh6FyJJ06MVZCyBPU595WUz4Ecp8fy+S3vuHkR31dIEHd12AgJi2zIq2cEO1dldq/c8laGzSDl3iqmcWt6uZ+GAW7TNtouZqUXN9dZ9/OGWi5tSu5dU+Z5Lvt2oV5kWH0jN9wi65EjV/v5TmxbqXDK02lmhlF/Tl+ufJIuXjrlSW/4my+fNfNFoAyqFxl4xghOZSM8Cz/yvOhYWgMIGgnVxiS8+ZIHwbXs6cCLjd+M9iL8kLiMmz0/Mz//Um72p9MkHH+GUH7yTxk2g5RV+XQom+hGmF6itblub8F/6vm36JDnjZLwjmQ75WqZN5vdKau8dWDXyrPNIDw/EDV2D7Xt3FNqqLbtVtt3nhA5Sl2qXMUATgelrtWwmSUaxDqtnCVP/R8lvfQPusOg1CDUkqdveb7mNa8ZB5gpw6IjBl59pn213i8LDrmoojNbTqOHAQmSe4rTX6o85SlPGU9NGjFU5lTmrWUIklbCOS0oPcJIEBMGbQbp5BFg96kLKKulCobFgRezIssWtVNAjKD0xLUZbv/KkWgHXhzyECZhg8TfStnBKNKs7+Uvf/n4lXgzPWUA6amLcqVsyW+jMOK12e8TZk6uOuUmjaQJSZfy2Eod9hppX3svXsbXtmbL6lP5s1leTVF5YSXAvq/XXnwKLmmHh0Hc94qP8kPJT1uSb9+etEznyyQU3DJBXVF4rT+SCX3Ul1vs6WkrbmQaJSyIm6XSfEhBWOmEn/zy+bu/+Iu/GN773veOMmZfNWmJM6+o/KmInLgqv88Seu/RK110njhkOuGEcZ/njSJ8BLz2v5ROy/q+cvykmTBTpC8nXOCZvTCLlx4d7ZWrmlbu0bR/7v+0BJgyB7ghjcfAMN7+MYBxYczTYVAY5Z7ycPWnsDbIH/nIR46Gw7NlkgiGziFc8oLkvVkwfmZ7TqQqJ0HR0VwpeDM3z+6F5b4ZMnqVrs36fIk+I76UWb2mgtJYPEQWyfFWBkuLgPTtCs/6NBlOv3TPbRoW8IV/9pzFQdw9W5ExaPZiu/0+K0f6H+MnnjDLwFv1ICcZIHlO3aa0LFhKLafRgtpYGcVZAjS7YgzTMQJxuSWel18d5/e9S6cYvfYgHUg+MZTBdgTFcorlSnsMypoOBq7pxFtJG5TdHqDPMhnFys+IDKIkw4Pk21gczJKLyGL8lqld1aXWJ89xY6TIvFlf7TtTXkz1AH/9wZKnPmJA6sV2+34GoPpM4iTNZQA9pt4QPlZ+LRuW0gBW4UYxUEZyhDmzHp0CCHMMmPCm1Mhf8/gahGUUX4Tw7hqhj3GIsGQ2qKNFeBJms/A+otFmNtSTprxQjFWdgW6UqhBLV15mhHghbW4gnOdlFfpVw1QOlgXkH9I3QP3c6zOMn0NfjFgFuZ4S2acfxJMuMlC0b/4Hf/AHw5/+6Z+Og1L7/PoeiKM/ps8vOpZNPjaCpTSA6RhBGpWgp7MQWsSNfx3JEWzfsfS9Snt++YfyQNja6QL5ig+bFSTxGCKdEFXocNmPS77Cb4ZAuVNGV/no5DGq4QEkTmOxMEvutGto2VDlG9ynj5BvS5X+1d+gMv1KmPApfVh/SB9jMMVxwtNfGPnjVtsN+kqM3az4y4DwAcJXdZ0lV8uApTKAEeyQZ6RRPVMAZnX5pl8MIP8of/cOOHg36CEPech4UMQL7zGYIEyEI/eJ6wrx3yiET/rpiMDds/KlnJCyb4ZSx5RVGpQCg89NPlEeyb+xuNDm2lG7G0RFdpYF6jdFlXcDSjNA/8hgy6O+/oMvCRfZj/wzmmZ+PmTtBLY0skriKk7SyLX2/UUGHmR1CcKfKS0LlsYAaigCmgarbmk0yxf28G5xi1uMf2ZZT5syBsIykGZ9vu7ie5XeC4rAE44qGDFIKB3APb/aUTYC8bP0Kg1lQeAFZulBXuCNn3gbIWWThmvipw6ZYXp2YjD7G8I2FgeRN+1W78mUNq6KbRmQOkbGK9SbjFsGtefvfV+HwPSlKtvSCOkfPhhuD/5FL3rReELc91NzViB8pSuiL5JG+tOig+7J61zhS0Xl2zJgaXqDhglBGigdw7PGNftz9N+enpOdDKEZnyPTjkr7DqDXHHyv0jFghkGatZMR9nQIJO3aAfjJa7MQTxrpXMm3pp/9ylrPrVDSSx7ypABiDJN+Y3GgzUKBe23KCKZdp2EWFalD5DjP6ZtAzv29mde1nN60582NvEP6F3LvXV8fc/dpNM/ChkC6wgJ/SPxlAL1FVipvK+K+LFgaAwgapzac+wgpeNa43hXxIjtD56+LfP3dX/N4Bybf9fSqQ+0kSPwIe9zyDLlyJ0gpy2ago+Uwivg1DX51yRKS/0YIpJF61fTj7j1BPJpims5O40Bp71a+y4oqN1FqRvaR4+q/6JjKTuoWN7M+H5awnOnjEl59qn0g4QwQDHp96ck3fhnB9AXhhUva4eE0r0WGOhgs1RngFMtQz4qlM4BBOjq4xmC5N8rLn9d6cdoLlL//+78/ft7M55C8SEnwCUNNI+lU4xa3et0ukgZhS8cL+HlmsDYrjDXdKZS91reGSX7KUvON+3ZIGjWdmnbup37rQflDqwp8Un/X8I3M5xQzbFZW55Gf6hWZqDISOYWEYfT8ubV3X/PqjzDZFqj1owN87enmN7/5uCUSP9fwr+YH88ifilpOdQgF4ZMtFnXOClatF//Ued7ru1EslQHcKDSumY5Z3o1udKPRGPoDTM8EIAZuViPPcl8r7HYRoa1IPrP8toNaB2kjM806Uo5/Oj8kbPw3Q4kPcfMsbXlTTjVtSPjGbEz5k2dfOLH8b5az7JglI+TY/rb3X3303t6ecHUwS+7sGRr80gtOgftXCAPDavggcSKbiySXyhrKszqoN714IB24TFhJA9jYGKqhqyNGbulAjBQyot4KJW7SidGVRx3J19FqY31UxRZQbAxgZvnVbxUQZe7rT77j6YCLWWEdEOAJWXR1LoABPO6448Y9QXwLklbtE/OKlDWkblNKODJipcBVvWq8hKnPy4DWKo2ZIOQ6/fRAjPt0fMbJqPoLX/jCeFTcPouPDGyUxPMy/jnnnDPG97+M0gN5G5HWWWhj84iCs6yfDz5DBjEbxWbCziOUX539hZGDMD6Cbz+Qe4hM45M9MGT259OHd73rXffNisK/xMkAbZ6NQvrrLCg3Ujcn3g2S1FX4+KlnEPdlwaG/eREuvt8PKh0GBLk3SqK4fE/SsWEKasqUxK3Mq0j4hLv97W8/vnBuE1pjVL/dwmbS3s1yVPg3evsUeelWvpWH2ymHuCFpHn744eO/WzgUZOTHLR3FfVWSicMgMVLerfIlfO9LecfKfyoiLw1vhBJWXVHcHVknW2TAXoQyTDvwlAfKxc0LzD5Z5aVlim4abruo6VlSvOENbzjOEOwVBWvludNlWQ/yQviC8I484at2c59wq4Qob/2KfJAvfYDCz0AvcubeIIwcIkbTjDEzxCCyN69QtpSvljt1TX0Z9ute97rjR7Cdkk+cWrd6vx3gPxnU3+m7YL301yuH9jG4u//97z/WQV3WCj+NO3tYsELAkI3QKoKgMkAhcKLOP2D7MPAf/dEfjfTc5z53eP7znz9+2X2jJA5y7zNTrv6xQHovfOELR0NmVsjgQu28jbUxldXwzZLe9a53vVHhTRXhKkA9YwAjw5SvD8N7zw/wZUpekzIDNNDxqhR5lAbiv6gIP8ITRsQhKbPAWfvEwgThzTJg5Q1gYzYIvBEw0kl0fEbQ3+l4SdjsL38H49UMSsTVCHkzpOMZgUtbHkbZFJOPDr/0pS8dZ5tTpd1YH1VZucc7ii3/YhL3oN4vM/AhcgaMoFcjvCdo/5lfruGJ2YSBgw/h+yg+dzxkJMglzLtBSL0DdQil7OpjFmUJNOETJ7yomOf6bgZtABtrIp0DdHaKwgeBnaSz31eXaNNhNkriSFMaRuTJyzMj6JDCu971rnHZjv+sTthYH3gWJe1ggxE+MuBYNX5GvhCQMzLsH1EswRvMQfhFRvEI2R4wA7Q06CtSDGD1n1ekbKlzruC+9kV18v1jW1DxXwuz0ltUtAFszAThRukgZmr+nskpOkbJzI+yCG1FEYhnNC6tPOdqP89enoMxbQA3D22GZ3jpnoKzDFqV3KrxlCwDnjCAVjMMtOxj+6NbKxj88AXPILyz38sA2iMzS0oY13nlYy1X6hN4Tt8Gh37sh9oXnQXhEjbpzmu9N4M2gI2ZINyMnk5iqZLwWyZx+IO75yxjAiUR5bERgiyrSk987tJ1Tb7TJanGxhBlBeGpmZ+XvC11Vf9VAhklb4HDML796SV5e86MIF4JR+4g8uiw0wMf+MDxdGiWCsPHeZbPWkY0Lbe+5/TrEUccse9fb1KfhHPFgxpvGdAGsLEuojDSeSCdAbh5NqJ23QylQ7kyhtLKBjx3qHk2tobwzij/xje+8fhe25Sf4fOyg6yRVVBn91YZ7Du/+c1vHg1i/KrsuWcc8mqEF+Whhpk3zCpTBqmBvm2fkwG0R+zKfxoOkh73qd+iYqkM4KwGj5vrLP+tYFZaW0l/p8qzW1A+HYFRIvCeKZAYLuAPMYCbRdLMwQQdMumnI8JW0l41rMWjtB1FxwD6xmUUmOus+2WEuuEDWYt8IasMlkC9IG8WmCX3hCePgH+MhBfkfS80JyYTNsj91P1goMrErHLpX1YGGHcDI/dxT98LDnZddgNLYwAjqBFWyDM/CpqgV4GYoqaxVrj4h6Zus+Jxm7oLu1WjsVeIwM8qf5B67wQoJsue4WOu6bC1DGuVh3to1TBLQXGjyFzNAP0dmH1Ayrz61/tpOp6nbouGWXUjI5Exs0DvoHr9xjt/3DJTFC/hGAj/FWov0BVPEyZ55B5l9SSIe3XbLaQPJC91QEHcLYlbGmfQlTfxIGFqvZYJS2MANUwapzY88uyqAcFzBLo2NtR0IGEqzRKkGi/hch/EPW61PDXcvKDyYS3sZNnXS2tWWeaRZ/OIyCblZu/Ky8IOPNjPBXycJYuJtwxIvZA6Zc86z4ydU86+E+pjAQ5h6eOpf+KKg4deibjXve41viLBCMYfxInhS5yks5eQZ8pQEXdQbysCDKCTwuuVcz2/RcXSGEBIJ45xS0NHkLO/FAO2lmCEQJhKEP/13KZU05M31I7BvdHYKUzlyjN5o6zNACm8LHelf+Qe8rxM8pk+r04MFH7UZ0uf+UrRpz/96X3L8rPqftRRR41/meRgjNO1lYfCp2/HvfrtFZLnLNTymQHa28yAaJWwVAaQcIUqqntOFRKA+KVjTMEtwhthAZ0FgfSMopJG0hGee6imJexaeTYaW0XkL7IWN/BM5i19OsBhBmMWFDmcJY9JY5kQxa/fxsCpO6i/DzpYCrUf6HNd6asxmCCuwyKWk+93v/uNnxOUJt4KI7y0XblHP0DVO7uNA+WhbOplRUBd2gAuMDR2DE2EPMgzvwii54RJ3AgqqvcViScOynPSEp47JN/4TZHyJJ1GYzuITAbTZzJG4Vm2M3PJIQ5uCVfl0H2Nv0yo/VQ9PevzeOH905NPPnlcCvXB9hitQHiEf/YC73SnO42fTKt8dK33II4w0/R2CzXfKfgZACm31x8cgMkK2SphaQwgEGKNXQUsz64a3ZWgf+1rXxv/kYCwW+7wQqyXvF39YSaq9zbGP/WpT+1zF9Y9N8Q/z9K1hyAfeac8U4H0vJ6QNhqbARnaiBz5pqX/wGQIc+wdXNNXpulsJN15hzrUPgepM9AfjIAP/PtCjPcDcyCGX4xmDJ2wvgzjI/4OxNhDg/CqXqe0V5BX2jRIfSyHH3PMMeNyrq/dhA+rhKWpsQbOxjakkV3T+AnjU1v+CsXHl3/rt35r+C//5b8Mz3zmM4df+7VfG/7zf/7P4zX3/+k//aeRnvGMZwz/8T/+x+FpT3va8NSnPnX41V/91dFdGPdPfvKTR3rWs541vOAFLxg7jy+nMILyzYwy5VHOSo3GdhE5XwvpE5a6rn/964//wGI/MDJKDin3hA3BgdJeBKQO6lRnYgwZP7zxIjx+WP488cQTx/cD3VvStPTJH8RNel6JeNCDHjQuJUYHJc0p/6Qj/b2CfFNP9ykTYvTIgCXxlG/VsFSaN40bYxNECF1tdH/oQx8aP+bsxddTTjlleNvb3rbvb3l8ESIUN3/349m3KUM2yvnZNPeso7hKT9p///d/P7zlLW8ZPvOZz4xlifBVxC0C2WjsJCJfVcbIIoXoc2hmLkb/CQvpN8suk6mbetfBaYyTZ+8E6uf0g71BfIvhi5ET3ozaX4p5Qd6SYniXPGKAPIe/cdttTPPMAMcgyOlPM1iGe1WxVAYQaoPXzg/cff+PsXrta187fPSjHx2FPH/O6l0glHtLISHPX/rSl8alTWmY3Tk2zY+7USKSno9F+8q8/0uUh5FjygL1HpQvZWw0dhJVziryPpvDD2YClDkZpNAji8ssk+oW3uTACnCLkfONWitFr3/960edIIwZHsSY4JelT7OoH/uxHxtng3k3MEg+ybPSbkOZUc0bnFxVZh9G8P3PvSjLPGKpDGA67FqN6SVrMzJ/g2IPz1Io4a8dXVyCTSEQ9iyVcM9IMWFcPcfAOQUmjnufVDJzlJeOFAGUFgJu4gO/RmMnQK5qX6j3kT3ym8Mw9oHIbhRlxTLJpbqFB6ln+nbu8cEzvcCQ+ccIqzpmguecc87oV/VAwptReS3CLND+KvekmUGFcNEne4nU1TX3Zqo+7m32mrKuIpbGANbGjVAT0ggfYqjM2sziGENCDsKGQLxpXMTfNR0Aqlvc82xm6LANJD2UtCqmz43GdkDGAvd5jrwCBe8Ivz98NQuMXFYlnbC5LjLUIVSfQb1R7aP0g6VPK0RmgV6PyGAWalxGxOfELIX6VJp7PJzm4T76Je67Bfnlqk1Bvu7N/Oz/OckKu12WecXSGEDQiBo7BjDClsZ1zyAxhHUUJmyEJXHSEZBnSBjP1Q15lm6dUXp2L6/ESTxI3KTbaOw0yF/kscpa3ChCBtDL0Fm6iwGchl0GqEv6YL1PXfVfbvzyWT46w36+WaAtDjqhGjf3eCYNS8q+EIOvTtiKz12Y6AFx9gqpVw7lKIPlT7PUW97ylvtOru5lmeYJS2MA07iuGtOVUKIIKjeCAIxTEH9UIXzAj/CiIM/TeAlb46STJP8geUzTaDS2AvIUZeu+PgfuI4eWwCyB3uEOdxg/j0YOGQHxspxf01sWqGel2pdDoM7c7fU79GYmWP8xInwRnsG0n3brW996uO997zt+bYdf+n01QuHtbqLWI1cGz96vpW9tnz3NWt/dLtc8YalmgNOGm9WYhA+mgpHrepgV5kDxqn8tz0byazR2Amv1C0QBegnaLLB+DisrH5nZkNdll9lZ9cMDvODnHV8zwdNOO208BAd1hQivwk+zQEuMeTWipoPc7za0W4xvymj25+X9GOeUKfKwalgqA9hoNDaOKD37f2aAPo/m734ozCjqKMUo0FVD+MCQmAU64e1wmw9ocMeXagDxyyDiuOOOG18z8ZqBpWVhMrMWL4Znt2HAr1zyN/vzz/bK5esv3FKOTAxWDW0AG40VBcWHHOA4+uijx1OBlGNei+BeFfwqIgMAy5veIWYEvd7kQIxnhgOFl8LjHSPoQMzxxx8/vnMpjJkgY+Q+6e4mlIfRVXb39v3ucY97jPuTZoLKo41T/lVEG8BGY0VB6cW4Udj2hRzlpyAZwRwIgb1Q2PME9Y2xqnzyJRjv9voAhm+FOhXKLwfexEPufWXHd0IthXrlJP7gfi8Qw6s9c+LXCVVGGlLeVUUbwEZjxRFlbHnsh3/4h8eZiwMSlDrlSInu1axlnpAlzfDHPWPnVSrGz8cuzAhzWjT8ER6Z+dlXvfe97z3uueHhXkJ+6mDpkzH2kr4DOowhKOOqDnCCNoCNxooiho2SpAzNAhnB+9///uPeFT9LZGYLe6285wH2x2IgUv88+5AGA+hLMd4rts8njDgGDu4ZFe/Z+UKMmaBPj8WI7rbBkb/2lI82NLO3L2lgk9kfmOUr86qiDWCjseLIDIfSpLDNAC2VUZgUOwW5akqyzo5i/LiFvBvoX2T8b6CvPcU/yD3jY/blkBEjhL97MduSP+PGCDrwcp/73Gcc1FgOjWFXjtCqog1go7HCoCgpQ1dEYftMFgPoXTZH+hmAhFklpL5TA8hguPr2r3998ddJvvqUU55m1OGXe0bI8qOZoHct8/L5bkLeyuMDB7e73e3GGajZvfLVtlS+1G8V0Qaw0VhhUIRVIVKQFCKF/dCHPnRUnA5wrOIsodYZT/Ls3kwKvA6Rf4xgEKEaFHw14/I+oFO23sEzIwu/dwvKYDBjT/dRj3rUePAF1CFlj8EGMrCKaAPYaKwoooQpyyjtKEKf8fJqhP+58+UQz2YLqwKGoRoHvIqbe8TdqVCvRPjvwM9+9rPjqdDEC4RjjAwk7ne/+40HUfwbRzWUOw3pO33KAGbpM22busi/1m0V0Qaw0VhhUIJ1GSxKkkK8ylWuMn7YOV8OsXTH/UDKciNhFgGpA55UvsT4xRDaCzz55JPHAzFOiCZc5YFwTl/e5S53GfcDzQIZxWk4mOUG1X2tMCBdM07GNv/4oI1TXiRuNcBrpbXsaAPYaKwookSr8qtuFKSZxI/+6I8OT3ziE8d/kadcKdO14gB/Mw7xq18NM+9gJKrhq8+5z7t/lhL9X+irXvWqcTYI4RHKkqM4ZtIM4AMe8IDxNYnwKnxxncXfDFTco7RDRfy0k6XrBz7wgeO7f9zkkfjSStvkflXRBrDRaOwDpRhQjGZ9Dm5YTrMnaG+Q+/TViChT12ooZtGiYFrWWv7pvf8WdRjGZ9I++MEPjl+JiZF0xRcGCI8sLftWqFO2Xo0QHz9jpJJu+Ju8QkE1YEnfF158zedhD3vY+Ie3BjAJi3If1PtVRBvARqMxYqoMPXsNwqzFkt3DH/7w8VNa9rLy3ltVqnmmpB38qMp62eFleAdifCHGB7O//OUvjzPD+soB/rh3MtO+qtciGClgAGMgwzdxwt/wFJJO7oURl7Ez42NcneC1hN1YH20AG43GuqCcKVP7gD/+4z8+PPrRjx6fo9jBPQVtFoOimFcNPpPm3UDG0AEZS5X4hz/1yzr4x1A5EGOAAQzm9GRmjCJwx1tpxgBmxuhqpv6Yxzxm/Fd6YRKvsTaaQ41GYx+ifClVShZFwWaG4XCF2aD/EYxCj8GrcdCqQN3xyKsQXoz3fuAnPvGJfXwB/PDsyij6OLXlSic1vSsYfoV3KIYuaRhkIM/8c++kpxO70vLifcI31kcbwEajMYLSDEGUcEB527OyfGcW6OsilK19QsofKOQYwFUD/lgKPeecc8Y/zvXXSf48N0YqxhBvXH1kwN6q5UrLopk5B8JUXrp6NktMOFdL0k7q/sRP/MRw1FFHjadN04aN9dEGsNFYYUSpTo1WFHaUdu7B8prZnxesf/EXf3H8D0FIGsIJs0pKWL0ZOlfvAp566qnjXqA9QZ9NM0Aw68MT9+GPPUDGy6CCEUwawiaMZwR4Kz4jiN9ecfiZn/mZ8YDSLW95y9Gfe/JqrI82gI1GY0SUbECBhiCKmHK1HOo0o386+Lmf+7lx6c13LmMkYZUUcK0rA/T1r399PA160kknjTNCM0NhwmP3wuUD5D6TZlCBt8AvM8eg3kvHP008+MEPHv9z0F9ZaRNGExjIaXs2Lok2gI3GCoNSnSrWWeBOKVc4yEHxMoAPechDxlckLJFSwpQ3JP1Ky4rUDa/M0hyEOeWUU8Y9Qd8KjV8o/PQ+oNO1ZoH4xwjGAAo35Z20zbrNHH/yJ39yjGcmCJn5JW5jfbQBbDRWHBSmmZtrFHOUdCWKl5/ZDGQmaA/Ke2e//uu/Pr4070XsGEDpJu1Kywb8wZsYNc9mgT6PZj/wtNNO288ouWa27JqX1315h0HEo+qP1/jv3t7hz/7szw4/9VM/NX7o2t5hnfEJaxCS+I210RxqNFYUMXQVaxmouEUxU7gUumfvBFLgDnTYF3RC1Ce/LIkGs9JcNsSo1YGCmZ+9wHe/+93D2WefvW/wgB+VJwyWJVBLoTe96U3H2bX0ahjp2ufDX//ZKLxw9fBM2rON38awlFyadmrPcZv6rYUI3k503Jpn7melW8vJH03LO33eCUQRTss0K6+Uq4adPm8V66VzoHrzTx1qOmultxnU9Cqm7rlPWQ5U5oOJWWVMfdYiYSnhLNFltkPZUsKW77wiYWbiRKKj+Q525BuiQdLbCDYa7mAjdcILFP6YBZr9vetd7xq/FfrVr351dK88yNXHBvwNlYGEWXXaRnp46MCMk7ePfOQjxzB4Ky7eZ3bY2ByWjmOEa7rUkM8RQQSzoiqBighpBDSYPkfo4+6aZ2nLr14r8uyq3AmTUV0Nn/Sq22ZQyxXIz6jUVSealjlxUjbP6Wwpi/vE3SySPriipJO8IOWZImU1I9HOwqcsNZ1ZcWuYYOqmPFEw0qh+DEHKnngpT/gVzMr/YEJZw++NIm3jasZSZx4QP+8K2pt65jOfOV4dzRcW+E/5Ngu1fKiGi99OoOazVlnWQ40fGck3Qmu6jJ9vhX7uc5/bNwuMPCWM+PbyMrsLLDM78PKrv/qr4wzb+4MMongQOZMGgnmTt3nFzkjRHCFCUBW2DgcRlAhrwqIIa4SRAIUqEjbxYVa4Gh8ln+pXUf0hRry6uY8y3gqkhwfIvXrgDfIcQzgtC0x5A8qRsoS3m0HyCaVcQcoLCRPU+5RNWcSpBLmuhWm607ZVhvAleXHXRpGzGibhcp80DlSOvYaybRWp3xTcKGxLov6JwHLdE57whPGQDMNIfvEBJX54WtNLmMoz/qEDoYZF0o+8oprfNB+YFc/9FLWctY0TP2l84QtfGN8LfMc73jF85jOf2ReuxnM1sHCYyAvyZnlmffZVTzjhhHF2aDBhjzA6LelA8mtsHEtnACOw1QBmpEpY4u9ahcV9BD0QPhREyCpV5DlxEp+7PCFlm6KmFwOYcoYI/lqd8UCo9QDpSSsGMCNX7rP4ww2l7LUc6cTbxZQv0qzpuq9h4pe2S3jlzf1GkLq6VhI/71xB5Qt+pZ1yhfApvNlMOZYF+pyTij7L5cAGsnxnJuMQR315Hj/D1/AWwjcUv+ofVL/1qLaLZ6h5IJjGiWzFbQrxqkzWPHI1uPRXSaeffvrw+c9/fl9+4pEdcC+85c/8m4PvhTpghH/+qd9n0+y5TstRn2eVsTEbS2cAg6kQECyKPksxVWFFEFHcKqQlPkRgXYEfkrbRWz195Zr7ippPveokruJIU6eTrmf3rlk+qflsFNJUfyN0cdVDehS8fLyTVNMUXpjpkg54rrwQdrOQRtJJ2klfeqGUAZTVNxZrnvxipKSXtuCfPGp6QfwqPCcdqOEhfkhZ0y5Q00oYSL2maS078MpL4fjgPcFf+ZVfGX73d3933CO0P0jetBV/YSsvIXyLW3gaCqbuqLZTnslIKP6zkPAosodqHG2ZsuWezKmDMO5r3Rh9r4z4nqp/Z+cunqs88oyUL6+XWPb0rqUBQ/gViINmQTqNA+PfpW3JQBAJQRUuV8IVtwrPEfrqVwUpwp6wEH/P0p2mzV88bshzyha3uAtHwDPCS3kg4dbKZyMQXrwYtMSXbyj8mULYKA/havlqWlvBlBdBeIJfUSye8ajGqVCetdp4LdR0XMNzkM8U03RrmKRVCWals+xQZ21FeTut6IVvfwFkRvPYxz52JB+EtqxH5gG/xNPOeY5b5MB9+DoFv1DiroUaFs1C4vOP7E37L7iSufQHMqje6ua//1JfMzsz48RPmsJ7Th2doLWMbL+P8UwZhan9Lu6NrWGpDCCBQECIIMosgmP2QFAjOJUg4YEbAXVdT9j4STMGImFzTVmCCPkUcU8+ylKNVQwT9+SzGUhTGplFpm61jtKtPOAX/8R1j6DebwXSVufUMXVyTTnCF27Cm8XKkz+qfPOcttgsxJ+WYwruqXPyj1swK271XyWYCTEE6q/t/F+dZVGf7/Inu/YILfOZEVr641+XR/EXxE87Rx6nPI1b3Otz3GDqXqmiPkdOkz9UORHWPUNuhucf2dXJe31mco9//OPHme+xxx67z6AJLy0GMPWs9XOVHv+aV70XLtTYPJbGABKIqTKKW56rYiRUwC/CXQUp7nmeCh0/SJ5B/FDyyrKrsBF0qHnk3pLRBRdcMJYnZZzGg5rnRiB95aCQkPvamfEG1WUcEK92SqRennXOLPUknc1C2jFoIB0kf8bfMfIYbOWrfBDGc8rmGXmWZtwTFlKHKaZu4sKU7yBseBTilvxcQ0HyXxWob20vvCAn5MW9Gc6Nb3zjcZ/raU972vBf/+t/HX7pl35p/DC0gx/Ciouf6QfkILIQmZu2W0XaRjppI/Act0qQdkORe37pH6GEB2H0Bcbb0qUZ39Of/vThWc961vhxAHXyV0Wpi/AQ/nhOP/KcP9OVP6R84iPhQxXC1Ho1Doytaa05RIQDqsBURUUpelfJ19IjfAgIUwS+plOR5xoGxJN2lC7wt2Ftvy3u4ie/lCngLo7wOlLSl7b7lC/uKcNmKHVOOeRltAqVD8JCypg4RuZOoAkTRVDTnOZ3IAJxpQE1b2UzUpYf5SD9tCUD7BqexA20L75Lt+ZTwa3yz32ek2aea3gkL2m7T15Qw1fUNFYNU564D+ExebIcaJnP57y8BO6Y/5Oe9KR9s0NLhpYC9dmkpw1gmj73+NW8hJtFs/wg6Uzlurrp0/qOk61OZzrl6rQrUgdGT52825c9d/FcpWFwlzyTbvoSQxgZnJahUoUwEPepf2M2lsYAAoHR8BEazwTJM+TDs14gzYEP4arwRHDiHj9wz1+aVcA8I4LLXTj3Rn3e64kwxy9Ieq4hStVHhsUH8XKVDoizWZJ2Ophn6TMwypi8uId34Oo5bpQ9hXW1q11tNErVAELNb6MkboxX3ORFuZgh5EVqbuF7NZjcpMGNUhIHz4VPelPEPSSd8DnP8YubfMJ//pRa8oKEl28oSDqrhPAjPIHwJTLFj+xl9uQrJ2ZPlguf/OQnj1eGhYHxx7EOkJBXcssgiqfNIxcoyPOU0tah6ua+Qlm5k3X5KaP+qQxOs/oMmVcU/BODv4f6hV/4hfG0JkPOMBq8SYN8k8/KB88pE0SGIXUKr0A5ZkGYpAs1zcaBcehvXoSL7/cDpk6ZmXvLEI7yvu51rxvOO++8fY1Zkbi1cSoSPuG88+LdF0ITRRO/zSACUQU65dPZKC7v5PhCu78pMRLjT9ASd1aZk1bSrZ04zwTdVZi80KrzOr7MTbrCVmH2nPxSBuV573vfO/65ZuK48g9vEnajBMmb8bdHoaMiBk2nA/wQLkol8eMmX590sjSJ1Jkf3ip3zXM9ghheada8uHsR2P6JGUBmdCkTSjsIrwyexRPG9xc//vGP70sbTZG8UH0OxPEsD2nWNiOjlLHDHJa8HPCo5a/34HnVoO7kAdJuwM0SH//ahki4EINDRsmBz6rZNyQLBoeMEBmO3CSNivqc9CMLeV7LXXrKphwGX/qHgbP385TDsq0v3TDOTmia6RkMZbVCPPVMOuQydQ0Jk/LzS34Jx08a3DxPkbIGSXcRoF50m7+K8om4YL3yV79pODwyUKZvyYw2WCv8NO4hFzFxf8m5GGkclCC5v/DCC8f/u3rKU54yfuYnByMCYRJXOrOQtBLOsof0LBmoQMKgjaLmRZA8VzdpeVbmt73tbcPJJ588nHXWWeOfVjocwz8Cp2ypdyBuhJTS5R/BzTMDa5ZkBGg0a1Rrcz9pQuo0TR/s/33yk58cXv3qV48vzvqiPIGRd42PqttGQbFYUrrDHe4wGhhX/FYPiDFBUz64RnC90MtI+7IF3iVcwh4I0qYY1AGBPPGPDFA0DkfgI2UX/0A+4QP+gLLj31vf+tbxH7m1s2fymTyEl474cYPUNff1WXhhXRk7ZfKSt8EDXqZ8gbgwTW+VoO61/gG3LP/pNxVp38SrV0bTZ8TOPffckbxT5zub5FH//fKXvzz6G5QJay/dVV7kgoy4gvLIy1UZyKHZpHYkf4yeq31K7W3mZ0XCzNPA1pVR5CeOdFLWaR34VX9Xz0Cm8lzjJXxkLuEPhIQTFyXNeUDKBPqjjwE8+9nPHp73vOft80u9Z0FdarjAM/1loCS929zmNuOAuaaVezTlydIYQGmlzKlkDAcB5+85jDz//PPH/+o644wzxnt1EjeziKTnGrgXH9XOJLyOBjqGPQ0NwvjpSOLVeuSee/yqm45rhs3QMDIZMSP5KiNSH24bQeLrzEarXkrOaIl76gWpt+darly194c+9KGxbJ/+9KdH3ilXDb8RCC89JE+zUOVzUs6Sl9F+2ixhg+QXJVrbmtH71Kc+NbYvZRklCMqXtGr71nomTJ5BfHkZzFj6MuqnFOUnHRAvBOLW9OO+apjyGNbjTdyD+jwNaxVHezOIjKB7BpExjEHU/shADSJP1fgZGDJoMWyIsTOrYwgZxciE9q7lSD+U3rQeKPFgKiviIrJfwycdzzXNjSByXdM52EjdoA3gRUhaCbcTM8CkF0zLXUGhZeYXIUzcXKdxgml69VknMCrMaHLK8PWQNPBM+fBZB+YeP1f5TcuwEYijfDq8Tq3TcYtfRfKZBeUzwlY2bR8FsFkk/cRN+TICV85ajlqeGgfqs/JoV+1L8fGLP0zjrAXhpmHwTNkoTMqzhkm6jZ3HrLbCb7KovbVz+nGIHxIXuU+8XEP6Kdlbiw7Uj6W/mb4eTGXHc+63g51KZ6egPKlrG8CLkLQSbicM4GaxRtV3DJst+7yVZ7NofjZ2C9O2nMe2bXlYG9orbTZPBnDzQ5ZGo9E4yIgSjGLbDWosP9oANhqNhQQjaES/G1RnGY3lxUobwN0U8q2kPW/l2Syan41VRcvDYmLlZ4AEdzdoq5iV1k7QXmFW3jtBW8WstHaCGnuLWTyftsnBpMZiopdAG43GQqCNTmOn0Qaw0WgsLGYdXtkJaqwG2gA2Go2FxG4aqjaCq4E2gI1GYyExXRLdaWosP9oANhqNRmMl0Qaw0WjMBXrZsbHXaAPYaDTmAr3s2NhrtAFsNBqNxkqiDWCj0Wg0VhJtABuNRqOxkmgD2Gg0Go2VRBvARqPRaKwk2gA2Go1GYyXRBrDRaDQaK4k2gI1Go9FYSbQBbDQajcZKog1go9FoNFYSbQAbjUajsZKYKwPYH8NtNBqN5ce86Pq5MYBt/BqNRmN1MA86v5dAG41Go7GSaAPYaDQajZVEG8BGo9ForCTaADYajUZjJdEGsNFoNBoriTaAjUaj0VhJzK0B7NciGo1GY3kwjzp97meAmNbU1NTUtLg0r5hrAziLkU1NTU1Ni0fziINiAA855JD9ruC+PjcajUZjOTHV97nfaxuw5wbwUpe61HDooYeOVCvLHXEzWvj+978/3se9qampqWkxiS6n0+n2qtcDbrEL1X23cchFBZo5N40BQgmS+wsvvHA49dRTh6c85SnDaaedNnz7298e/YJUEkkniFuQdC9zmcsMj370o4cTTjhhuNGNbjRc/vKXH90bjUajsVz45je/OZxxxhnDC1/4wuGv//qvh+985zuj+9Q2xD4Aoxi3abjLXvaywzHHHDM8+9nPHm5zm9sMV7rSlcYwiZ97NDWue2oAZ1WCGwN473vfezj++OOHI488cjSA/L/3ve/ty7vRaDQaiwn63OyOPmcAzzzzzOF1r3vd8MY3vnE0gLETm7Ed4HnhDCAweuBZmGtc4xrDta997eFyl7vc8N3vfndMU/iabqPRaDQWD9HzjNWlL33p4Vvf+tZw7rnnDueff/5+er7OBpfKALqvlUil3QtjdMAocmMAzf7cNxqNRmPxQdfT8wyge8aOnp/aAvfIPTdYKgNY3WYh7sIm70aj0WgsJmIPYC2dHvcYxL0wgPs/7SJkngqlAq5GA5kWe84poBqmqampqWlxKbqcbqfj3U91f8JUW7Hb2DMDGFQGpKKmwamwa628a1NTU1PT4lJ0edXvrlX3swmZAO0V9tQAqqDKZYan0hiQPb/KoDCl0Wg0GouNWbp9qvun9mEvsKcGUMVVGEEqWSveaDQajeXG1NDlGvvAVuwF9nwGCKx9Kh/j59ozvkaj0Vh+1BlftQOxAZ73AjMN4NQQrWeYZhU0bqkkrFchfsLWfNYL32g0Go3FQtXp0fcHsgu5xjbMCr9eGlNUGwOXMIBZo5VoMo4bJLOaUMKtVUiWPUi4rPvW+4rpc6PRaDQWF7N0/Cw7UMNV2wHV/qCpramoaQae6/LqhpZAawL1Ppm7Os7qBA//GmZq/IIabhqn0Wg0GsuN9WxAvZ81gWJr2Jxqg4IaN+CfMPulffF1XUwjJwEFi7t3ORQKZhVglluj0Wg0GrOwnh1ha9gcYINiJPmHIPaporpt2ADCWgmbUvrAqdM708Lwc51VkEaj0Wg0ZoHNqDYEMulia9icupwZG5OwszC1Q5cwgAKEgmkkzyywa97ml2kMXQ2fwkzdG41Go9GYhWovqkGLe+xNviTDMMYmBQlb3aaYOQOcFaEmFqPnnxuQ+7ocWg0hqn6NRqPRaBwI1XaE6oSKX+yQqz9TYJv4rYWkE6w5A1wLMpXJYYcdNlz96lcfr6ahyTiWGeo6bZ3GNhqNRqOxFtiKLG+yIfV8CWJruAvDBvk7PVdudcI1tUlT27buHmCNWKEwV7ziFYejjz56uNrVrjaux3KTceLUuPW+0Wg0Go0DYZYNCbE1bA7bwwbd+MY3Hv8Fgls1frNQ3dc0gMkIRNgv0kWZM4C3uMUthute97r7LHUsLxKXe/xq/Eaj0Wg01kNsRuwImxL7wtbEjw1ii9ikuAexRcHUDu0Xej2jN8UVrnCF4dhjjx1udKMbjWuw/hMwM8E6G1RA6VTL3Gg0Go3GWqg2I8aPTYl9YWvYHLaHDWKLLIFCNXgwy+4kzCUM4BQi1wSEQTYdjzrqqDFj1ldBYqlBnBjBUKPRaDQaG0G1HWxJ7FDsDJvD9rBBbJHnGidIvFyr35pLoFANX5DEbTZe61rXGv+B90d+5EfGe6dwkrgChyBWvNE42Jgl143/j+ZNYx7AVmQylRXF2JJqf+5+97uPNsg9N36z7Mxacr2fAZTBNOD0OQXhLiN/Rf/Qhz50uN3tbjcWgrvZoasKuFeBWYVqNHYa5C5UEZlFkeHqvqoIPyB8qXyqiDtqNHYbMXRsiHvyaJZH/q597WsPt73tbUfbwwbFWFYZXgtVhg+5KOEtWyZRfVz0/PPPH970pjcNJ5544nDKKacM55133rhGC3Xm17PAxk6iytIsgU+n4KdTCM8t9yh+sEryOave3FB4lPvwJOErKr+EbzR2AmTJxKnekzUG8ZrXvOY487v//e8/3POe9xxfgeC/FfnbtgFEjJ3P0vzTP/3T8MpXvnJ45zvfOXzlK18ZvvOd7wwXXHDBvgoIt43sGo1NgfIOyJ9nVDsKeeSHyOuqyCce2LIwgEVTnjB2iF8wywA2GrsBskY+YzO86sD4XfnKVx7ueMc7jjO/+973vmOY9N89NYCiUSYK6KpwF1544fDZz352eOMb3zi84x3vGE499dThM5/5zPCtb31rS4VrNGZhLZGdylgUdmQVhOHuWg1inrfYHRYO4YP6Ivd5rnwIryA8DNbiVcI3GtsF+bv85S8/XOc61xmXPO9617sO97rXvYYjjjhiNIaRVTLHBm1W9rY1A5R5CGTuaOoZZ5wxfPKTnxzpzDPPHL74xS8OX/3qV0e/aSdqNHYLGZRZkieH3/jGN0Z3nSqoHWgbXWEhkTq7TnkCjpUfeeSR496+l4yzrdFo7DZi+MidL4551cGHVxCZ5Edus3ohPHK/GWx7CVSGOgzjBqaiFA+/r3/968M555wzfP7znx+VEGVUl1Qajd0EOTz77LOHD37wg8Mb3vCGca+6DtZQxH8b3WChEYURXoQPlIm9FctMt7rVrYYb3OAGbQAbewZ91wyP8XPghQFk9MgnW0Neyaj+7HrQlkBrQaJcFAYYO0Yv4eLfaOwmyGY6w0c+8pFxSf6FL3zhcNZZZ+03ABNGR4vsbrErLCzSd9F0f14fPvzww4cTTjhhuPe97z3c7GY3G90rbxuN3USMmivjF7sSexI51KfJpb68Wdnc9hJoChIFUjuIe+7ATUdrNHYbEWny9v73v3947WtfO/zpn/7p8LnPfW50h8iqTXQyuqqzG0oDnxwASl8Orn/96w9PfOIThwc84AHDrW996/36cqOx20g/htiOyKDn6ias583K5rYMIIgeCvKsMKw2C03BbKWAjcYsTOUo8lflkLy9+93vHv7hH/5h+PM///Ph3HPP3TeqJJM6TmaAdWa4SsAPfEr/9IyH+GHp6XGPe9zw4Ac/eLj97W+/T/lA+L9WOzQa2wV5I48oz+SSnIa2i20bwCiSKJYpuMkCzfJvNHYSU3F+61vfOrz85S8fXvrSl46Hsao8gk7kvir3VYL640nq7z488r7VT//0Tw8Pf/jDh7vd7W6jf9B9ubHbIJORx1lIH14vzIGwZRNalUY60XrYagEbjSki8JVmgbsNc6c/yWtkNh0H8rxWGssMda79GCqPEN7l0MEscJ9So7ETiF1BZBGqfFW/ab/eKLY1h5SpAmSKGqSQswrdaGwXawl63F1zb2/LaWRIZ6nI8yrK6LSfBp7jh3d4CNwTdhonWMu90dgsyGDkcFb/rP51ELcZbNkAyrgue6Yw9bmu0Vb/pqbt0hTVj9xl9OgjDF/72tf2dZD4u7ay/nfgReUN4Bne5UMWla+hKapfU9N2qKK6Tf3dr7UFdyBsawY4LUijcTAxlUVK3ezFZ/rWWyLhvorGcL16c8czvJv1ibju9415wXbs0LYMYKMx74gBPNApz1U1gOsBz2IAG41lRBvAxtKCgqe8HeSgzI0SLeFV9EzmkjzIMiee4d2sGWCjsQxoA9hYati/cpAje4AxgFWhr7IRrHUPT8IjPMM7PGw0lhFtABtLCwrdEf4YwCj7Nn77Y5YR5BYDiIeVZ43GsqANYGMpQWFT4JS3GUwUuGuosT+mvHHFOzzEy+ZZY9nQBrCxlKCsfd6LAo8BDE1htrOKM8G16l15Ff5NP5bdaCwD2gA2lhKUdWZ/MYBxr4o896tqAGHKjzy7hn+9DNpYRrQBbCwlKGtH+Ot7bMhSXsAAxB2tGmrd6wAgy50or5Egz43GMqENYGMpQYln9jI9xk/Zh2CVFXvqPuUJxACGj3Xw0GgsA9oANpYSlLdZi6W7WS/BR9FPlf6qodZ/Fh/wDg97BthYRrQBbCwcKOKpMvZcTyq6zxH+qWKvYeM3TW8VkDrjQeVJBT88rO9SrhXW89St0ZhntAFsLBSqgl1L2XKnoOvyZyvmzSN8yzLoLKMXVPfmdWNR0AawsZSghOsBmLiBWc10VtjYny+VZ3jYS6CNZUQbwMZSwt5VlkChGr+KVuqX5MHUCGYJdNZeaqOxyGgD2FhKWK6jtC3dBWvN+lbZCK5V98orPKx7gI3GsqANYGMpEQNo+Y4yrwqd0o/iX2XjF1ReVH6Eb3jYBrCxjGgD2FhKrGUA2+AdGOFRG8DGsqMNYGMpQVl/7Wtfm/kaRGPjwDs8xMs2gI1lQxvAxlIiM8AcgpliahRX0UhulAc5BNMGsLFsaAPYWEqsZQCrkq/3q7g0Ot3vC6aGsA1gY1nRBrCxlKDc8yk0irv3/jYPPMM7POz3ABvLiDaAjYVEVcbu85wrxV2/BANmNpnd5H4621lFTHlR7/EOD/MlmLjlmnuo943GIqANYGPhQNFmVocoaM+Utpe14/eNb3xj/CPXS11qtphHyTfW5gXe4SFehu94LLz7DDDi59poLAraADYWDlMlW5X3oYceOl5zdN/yXSvlrQPvsgeIpxAew9RwNq8bi4Q2gI2FQhRsVbxmKZnlUc5mIvasHN23dJc4rq2gD4zKJ1c8xEs8xdsYwMp3SJs0jxuLgjaAjYUCJYuieCnkKOIoYEt0luz+9V//dVTa0Mp54wiPwjM8xEs8zfdA0wZIG0DaIPEajXlHG8DGwqAq5llKlr/luq9+9avDl7/85fHqubE9zOLprIFEbZceaDQWAW0AGwsBCjWHLKJkp4aQnwMbF1xwwXDOOeeMytq+1TRc7qOkp/6rglrvyosg/niIl3iKt3ic8FDTceWXtmo05hltABsLjyhcuPzlLz+cd955w2mnnTbuW/GLcg64VYJpmFVA6jyLH0EMGl7iKd7iMbSRayw62gA2FgIUcagq6qmb+8997nPDBz7wgfHkYjBV1DWNxmx+1Ge8xFO8nfIbwdQt7o3GvKINYGNhUA+6RDlXZeuABkV95plnDqeffvq+AzBrIWlAvV8VbKb+eImneIvHeRcwBLVNtFWjMe9oKW0sHKJgo3jBs72qD3/4w8NHP/rR4dxzzx33qoBirsq5Yqq8Vwkb4UnC4CWe4i0e43U1cuJM26TRmHe0AWwsDKZ7Tu65mY242qd6+9vfPnzsYx/b99I2VEVOQVcl3Qp7fx5U/lS+AZ7iLR7jdeV9DeeeW6Mx72gD2FgIRBnPUrTIy9pf+MIXRuX8qU996uIQjZ0G3uIxXuf7oLMM4LStGo15RBvAxkHDWkqS21SxmpVYYsuyW3W/9KUvPR7OeNe73jUe1PjiF784hpumn3Sr2/R51RCeBLN45B7hKd7iMV7jOd7XGSOknaq7NNfiddJvNPYabQAbc4EoSASU51SBWoKz5OY5S2+Qvb+TTjpp3Kfql993D3iLx3idvUDQFrVtuHOLYavtyT3UaBxMtAFsHDREKVKSMXJRivGrSpNijZL17ErRnn322cO73/3u4W1ve9t4QjFpNnYWeIq3eIzXeI732qC2SdppvbZM2KQZv0ZjL9EGsHHQEEUIlsx8ZBlVZViV5OUud7lxyQ1cxfnSl740/N3f/d3wpje9adyXAmGjYBs7A7zE07QNXuM53msDbVHbRlsJm/YLuKWdxYEqB43GXqINYOOggTKMQoXpcxRn3B3FjxJGn/3sZ4dTTjlleOMb3zieTnQoI5/pquk0dgZ4ird4jNd4jvfaQFukXbSRMHmGqRGMO0yfG429QhvAxkHDVOlVJel+SjGAlte+8pWvDO973/uG17zmNePVJ7ogS6StVHcW4Sfe4jHgeW0DbZKlzwxEphTUe+i2ahwMHHKRIO4viY3GHoL4ZfmrnhykSKNMIUukwvtrnne+853D3/zN3wz/+I//OD4Ll7jChBo7hxjBymftctWrXnV40IMeNDzykY8c7njHO47PwsxqPwTizmr3RmMvcehvXoSL7xuNg4apcoU8R3m6eg/t5JNPHl75yleORtA/FESRVojXBnBngf9T4LGTof4r0F4gXPGKVxyucY1rXKL98lwRt6l7o7EX6Blg46CB6FXFV0Ux7oybmQQl6//o7Dm96lWvGg9g+IseypW/uIkfhSpui/fOAD/xehafGTe8vvKVrzzc6173Gh7ykIcM9773vYerXe1qw2Uve9l9gxeo7SFuwL0+Nxp7gTaAjbkAMcweX054cmP47C2Z+b3sZS8b3vOe94z3ed8v4kvJouneU2PnEIOHtFGWqePH2F372tcebnzjGw+3u93thkc84hHj/VWucpXRTxjtq420rzS4NRoHC20AGwcNlGEUKjHMnhHFSEna2/vIRz4yvP/97x/e+973ju+dWfK88MIL9717lrhJJ+mixs6D4aqzuWkbXOYylxmudKUrDde73vWG29/+9sNtb3vb4da3vvVws5vdbNwbTNtKI8uiSSfpNhp7hTaAjV1BFGLuoT6HuFV3RtB+khOGn/zkJ8elTuSUYQxk0svSWjV4nmv6jZ1D2gpVfqcN6myQm/Y57rjjxmVRdPTRRw/Xuta1hsMOO2yf8YO0VU0/7lCfc99o7ATaADZ2HESKQowyoxijKKEudboiMwew3Gm2x+i99a1vHY3gBRdcMP4fXWZ9QVWGca/KsrHzmPJ3VhsAd23q3+N/4Ad+YDR+d7vb3UZDaFZoWRS0aWSjLo1CZIOxlDbiX/NsNLaDNoCNHQWFRaQoqdxXpUXJQZQef0qQ4fv4xz8+fmj5X/7lX4YPfvCDwxlnnDF+dksc4ZJeY/6hvdPuDNoVrnCF4UY3utFwq1vdarjTne40HHvsscNNb3rT0RAylJEXBDGCafek5zn3jcZ20QawsWOIsnI1ajfzQw5AgHsHVyg3So9hY+DOP//8ca/vzW9+80ju/d8ciCtejGBjcRDjRxa0O3hFwn7gPe95z5Hce2WCgRTWYEhb5/QoiOs+MhUD6NpobAdtABs7AmKU5aworohWRuueKbA8W9Y023vDG94wvOUtbxk+85nPjDNB4Si9LHlSdEjcpNmYb2gvcqC90oYGPTkNauZ3xBFHDHe/+92H+973vuOs0HIpGESJK1yeIc/kgFtmjo3GVtEGsLEjIEYxbtXgwVSBff7znx/39ix3OtzilKflT6c7wUxAnCg68ZD0WlwXA9M2y8DINcvgTotaBnVK1GEZy6L2Cq973euO/mnryFPkh0ygaiQbja2gDWBjxxBRqkqJm5kchZW9Pu/yOeRi5udPVbPPJ0ziBFGijcXFtA0jHwybwY7lz+tf//rjTNAhGe8QZm9QmOlMb5acNRpbQRvAxo6AGNXZWpRT3H215dOf/vTwile8Yjzd6c9UGcMsc2bZVNgsdUqDAkwajcWD9tOO2i9tmpkgaGtujByjd4tb3GI8LfrQhz50OOqoo8avyyQNkEaoujcaW0EbwMaOoRop98iyJmNnmdNyJzrrrLP2fcA6FIVYFRzlhvLcWDxM2zDPCNL2IS/LH3744eOSKLI8yihaLk2YoN43GltBG8DGjiFKDjng4nTnJz7xieF1r3vdcNJJJ43GDxyEyD6fGaDlzyhEiEjOcmssFjbSrmQhy51kISdGGcD73Oc+w/HHHz/c5CY3GU+LOigjfqjR2A7aADZ2BMSIMcuo3PKmb3e+5CUvGc4888zhi1/84rjXVw+4QMSvjub5AzfkGbWoLhYYqGkbwqy2jjGrB2XsDV7zmtccjjzyyOFRj3rU+G3RvEAvXp8CbWwXvYbQ2DFEeVnefPWrXz2ceOKJ49KnU58+bxYD5hrFB56nFHfhqltjcZB2SxtWt0rBNByZITtkiCyRKbJFxrJn3GhsB20AGzsCI3FKyczOB6tf/vKXD29/+9tHhWU0P1V4wocgfjGMua9KsbF4mNWOuc/zWrKAyA4ZIktkimyRMbKW8I3GVtEGsLFjoLCy7+c9P8ugljwpLEoPqpKLIqyKLIowFEzdmxaDgvXcqyzEDbjF2DGCZIps5Y93G43tog1gY8dAgdnno6BcHWbgZq+GIaTYKDRulrGiDJuaEJkgG2TEM8NHdsD+cmTLZ/JiLBuN7aANYGNHkZF8DJ5nSix7Nm0Am9YiMgFkBshQDk3xd0922vg1dgptABs7BgrMKT1f9fCHqN7doqyM3mP4KDHhYiibmiqRDTIC9v/IDlkhSz6RRra8HM8gNhrbRb8G0dgxUFTe/zv77LPHE3v+18/XXyyFZlQPZoPVCDYamQGSiSoX3Lw36q+U/I/ggx/84OEGN7jB+D4gv0ZjO2gD2NgRECOzPErJqJ0RPO2008a/NvIZNEqNnzDZE3TfaAQGRpn1uSczDKNVBX+bdMwxx4zGj/zwE6Zngo3toA1gY0dAjKKwwDtc6Fvf+tb4XFGXQxuNgPEjP9kvrrjc5S43HHbYYSMB+TGgagPY2A7aADZ2DAwgJeY6NW5VUUXkegmrUUFuYJasBOSL3GQvudHYDlqCGjsGConCsoRFiWWEzo1yyzVhG42KyESVFdcqSzkU0/LT2An0DLCxo4jSqpgqq8wS7eXU0X5jdUFmGDeyMl09iDy5ImHaADZ2Am0AG7uCGEJU93Q884M+xNAIyEUORTFuVS4iLzF6LTONnUIPoxq7gqkSgxg/fkb5rcgaAVnIvl4GTxX8Q43GTqFngI1dQ0SrKi1urcQa62EqIy0zjd1CG8BGo9ForCCG4f8BWmET4L3YT1kAAAAASUVORK5CYII=;" parent="WIyWlLk6GJQsqaUBKTNV-1" vertex="1">
          <mxGeometry x="-413.74" y="270" width="106.98" height="85.48" as="geometry" />
        </mxCell>
        <mxCell id="AZhpOWYJOb6j5qODkit--58" value="" style="shape=image;verticalLabelPosition=bottom;labelBackgroundColor=default;verticalAlign=top;aspect=fixed;imageAspect=0;image=data:image/png,iVBORw0KGgoAAAANSUhEUgAAAWkAAAGrCAYAAAACW2bxAAAAAXNSR0IArs4c6QAAAARnQU1BAACxjwv8YQUAAAAJcEhZcwAAFiUAABYlAUlSJPAAAABhaVRYdFNuaXBNZXRhZGF0YQAAAAAAeyJjbGlwUG9pbnRzIjpbeyJ4IjowLCJ5IjowfSx7IngiOjM2MSwieSI6MH0seyJ4IjozNjEsInkiOjQyN30seyJ4IjowLCJ5Ijo0Mjd9XX3X7dVAAAA9mklEQVR4Xu3dB3hURdsG4BdQeiihN6VIFQQRpDelKCBIERJ675BAaCEJkR567x3pVYp0pYNS5KODUiSU0EIqNUD+feeb/B/IZvecZDeZs/vc17WXO0MMIck+O2fOzDtJnr+MiiYAAFBSUvlfAABQEEIaAEBhCGkAAIUhpAEAFIaQBgBQGEIaAEBhCGkAAIUhpAEAFIaQBgBQGEIaAEBhCGkAAIUhpAEAFIaQBgBQGEIaAEBhCGkAAIUhpAEAFIaQBgBQGEIaAEBhCGkAAIUhpAEAFIaQBgBQGEIaAEBhCGkAAIUhpAEAFIaQBgBQGEIaAEBhCGkAAIUhpAEAFJbk+cuoaPkcbODJkyf0+HEw3Qq8Rfv376fz587RpUsX6VFwMIWHhdGLFy/kRwKoK2nSpOSaKRPVqF6DOnbqROUrVKCUKVPKP4WEhJC2gejoaLp79w79uvdXOnDgAB3/43e6fv06vX79Wn4EgHG5urqKoB402JvSpk0reyGhIKTj6dWrVzRn9mxavGgh3bhxg54+fSr/BMBxfPjhh+Tm7k6Tp0xFUCcwhHQcRUVF0Ynjx8nbezD98fvvshfAcX3wwQfUpWtX8v9xGKVPn172gr0hpOMgNDSUZs+aRfPmzqWgoLuyF8DxpUqVijp17iyCGiPqhIGQ1unhgwfUo3t32r17F24CglPiqY+mPzSjadOnk4uLi+wFe8ESPB141NyzRw/atm0rAhqcFk/1rV+3loYP+5HCwsJkL9gLQlqjx8HBNLD/ABHQvJoDwJlxUM+fN4+G/ehPERERshfsAdMdGvCouVuXLrRmzWp68+aN7AUAvpn4Q7PmmPqwI4ykreC1zsuWLqUtWzYjoAH+hZegrlu7hvyH+mHqw04Q0lZcu3aNZs6YLnYSAsD7OKgXL1pEI4YPw9SHHWC6w4pOHTvSiuU/xWkemrfWFi5cmBo3aUJffFGGcuTMSSlSpJB/CpD4IsLDqXWrVhQYeFP2xB1Pfbi5t6ApU7HhxZYQ0hacOHGCqlaupDugeW6uZKlS5O//I1WqXFmENYCKQkJCqEqlinT16lXZEz+8PK9b9+7kN9Sf0qVLJ3shPpAeseCbheMCAnQHdK5cuWlMwFj6efMWqlK1KgIanAqv+lgwf76Y+oiMjJS9EB9IkFicPXuWTpw8IVvaZM+Rg9auX09t27XD5R44rWfPnol6Nn09PRDUNoCQNoNHz0cOHxZro7XKnCULLVmylL744gtxyQfgzHhEvWrlShrq54tVH/GEkDaD3/3/PHWKXr58KXss45uB3bv3oIqVKskeAMCqD9tASJsRHh5GFy6cly3rcubMSa1at6bkyZPLHgBgMVMffXr3RlDHEULajPDwCFEbWqsWLVvSxx9/LFsAjisuN8J5RB1T6yM8PFz2glYIaTNuBQZqLt7Pv7SNmzSVLQDHxeug+RitTJkzyx7tYlZ9cFBjRK0PQtoMPvpKq/z581PRokVlC8Bx8YDku+8aiDodcZna+9+qD0+s+tABIW0GF/XXqnDhIlgLDU6Dw7mJ6cpx8dKlcRpR89THmtWrRPU8rPrQBulixpMn2t/l0+EYIXBCPKIOCBgb56kPLnPKUx8YUVuHkDZDzynfH3yQTD4DcB48om7u5kbTZ8yI09TH8+fPxfFzvXv1why1FQhpM1DUH8A6DufGjZvQkmXL4jyiRplT6xDSABAv9et/F+epD56jXrRwIU54sQAhDQDxYqupD2x4MQ8hDQDxFt+pDx5RY+rDPIQ0ANgMpj5sDyENADaDqQ/bQ0gDgE1h6sO2ENIAYBeY+rANhDQA2AWmPmwDIQ0AdoOpj/hDSAOA3WHqI+6SPH8Z5TB7oB89fEhHjh6hC+cv0N9//SUKjIeEhuiqxcECbwZSUNBd2bKsdZs2NH/BQtkCMJaQkBCqUqkiXb16VfbEjkfFfBJ+z169ZI8+fBzd1q1bqH3btpqPpnsb17N2c29BU6ZOdaqDng0d0vyueufOHdq1c6c4+eHUqVP05s0b+acJAyENRpaQIR1jw4b1Yp45+NEj2aMdH/LcrXt38hvqT+nSpZO9js2Q0x18asqmTRupd8+eVLtWTRo0cACdOHEiwQMaAPTjMqdjxgTEaeoj5oQXPtzWWcqcGi6kr127Ri1buFO3Ll1ozZrV9OD+ffknAGAEPCJ3c3eP86qPmBNenKXMqWFCmt81+R20UoXytGP7dnGnFyVFAYwpZtVHXE944RG1sxxua4iQfvjgAXkPHiQeeo62AgC1xfeEF2c43Fb5kL51K5Datm0jluA484J2AEfEI2re8ILDbWOndEjzCHpg/wG077ffdC+jAwBj4HDmw23js+Fl9aqVNNTP1yE3vCgb0vwO6Wf6pvO6Ssw9Azg+W2x4ccTDbZUMaQ7lcWMDaPlPP4lvPgA4vpipDxxu+y7lQpoDeu+ePTRv3jwENICT4XC21aoPR5n6UG7HIe+A6tq5c5ynOZImTUq5c+ehkiVLUvYc2cnFxUX06XHgwAE6cfy4bFmGHYdgZImx41AL3ja+ZvVqGjx4UJx2JqZMmZI6dupEw4aPMPwWcuVC+pdftlEL0yXPixcvZI92RYoUIW8fH/ryy3KUMWNG8YPibaR6+QzxpimTJ8uWZQhpMDJVQ5rFt9YHv/Z508zkKcau9aHUdAdfqowNCNAV0EmSJKEsWbPSyFGj6fjJU9S8uRvly5ePMmTIIEI6WbJkuh/8OQEgcfGbAq/6iM/Ux+pVq0T1PCNveFEqpHmp3fE//pAtbQoUKECzZs8mD0/PON1sAAC1OXutD2VCmuef58+bJ1vapE6dmubOm0/16tWP07QGAKiPB1/OXOtDmZC+fv06nTlzRras46mM2XPnUqXKlXXfGAQAY+FwdtZVH8qk24UL5yk8XNs3j+eMa9WqTbVr15E9AOAM4lvrg6/WjXbCizIh/deVvzR/43hZXZMfmoqbgwDgPHhEHZ9aHzEbXoxU60OJkOblNXfv3tFcnyNTpkxUoUJFrMIAcEIczs5U60OJkOZ3t/v3tBfvL1qsGOXJk0e2AMAZOUutDyVCmr9hkU+0f6NKly6Nm4UATs52Ux8eSge1Ekn35vVrsUxGqyxZsspnAODM4jv1wTcTV61Ue+pDiZDmNdJ66kXz0e4AADF46iOuG174Sn7xokU0csRwJUfUmDMAcGK8CUzr1CEPpPRc8SYkHlE76oYXhDSAE4upb6MFh3RYWKiypyRxOPOGl/hMfaxbu4b8h/opNfWBkAZwYjx1mNHVVbasC7wZSE+fPpUtNcV31QdPfXCtD1VG1AhpACdXtGhR+cy6s2fPiNG0ynhE7UiH2yKkAZxcyZKl5DPrLl++TEePHpUtdXE4x6fMKY+o16xWo8wpQhrAyX319deabx7ySqzxY8fSo4cPZY/a4lvrg8uc8oaXxJz6QEgDOLn8+fNT4cKFZcu68+fPk7//UHrz5o3sUZcjTH0gpAGcHI+iW7RspbkWDo+m+fxB3q3Ho03VxUx9GLXWhxJnHD588IDc3JrTkcOHZY9lM2fNFodM2ov34EE0edIk2bJMhTMO+d0+KCiIQkND6cXz57IXQDs+49CjT29dKzdy5MhJ/by8qFPnzpQqVSrZqy4u5MbHaXl7D47T4bb8b+R/q/+PwxL0zESEtBlGCenTp0/TT8uW0sEDByg8PEKMal6/UXMNK6iN1z6HhoToXgPNpyNxXffhI0dSoUKFZK+6jHi4LULaDJVDmn+xTv/5J40bO1acrA6gAtdMmaiN6bXQpOkPphF2dkqZIiUlk+UbeDpFtbLCGzdsoP5e/eI0z8xB3a17d/Ib6k/p0qWTvfaDkDZD1ZDm6Yzp06bSooWLKCjoruwFUEeKFCnEjchs2bNTmtRpRDjznLBqIc2DnRMnT9C9oCDZo09CTn0gpM1QMaR5yVMP07v3zp074nSZBgC2lVBTH1jdYQC8RpOXPPH0BgIaQA18D2jtmjWmq9tpdl3lgpA2gOU//SRq3qpa2AbAWb148ULU+rhx44bssT2EtOL+/vtvsTVV9aI2AM7q1q1AOrB/v2zZHkJaYbyIfvTIkeKGIQCoiTf3nD9/TrZsDyGtMC5mc/DgQdkCAFVFRj6Rz2wPIa2w43/8QY8fB8sWADgjLMEzQ4UleHy32NdnCE2dMkX2WMenbKRO89+1qUbH29ufPHkiLiWt4ZNF0qdPT0kc5AR5/jeHhWo/ASWN6WeeMgG3ZUe/eSNqWOBG9v+0bNWaFi5aJFu2hZA2Q4WQ5mV3Pbt3p7Vr18geyzJnyUJeXv2pePHimo9DUtmuXTtF9TG+e25N9hw5aNz48ZQ5k/7iOSp6+uwpefTuQ3fu3JY9seOfdYeOHalRo8ayx/54AHHkyGHauWMHXbhwAWFtgpD+F2cI6cePH1PHDu1px/btsscy3v00Zeo0hzlJfcnixdTX00PTwad58+alX/fto1y5csseY+Mi85UqlBcre6zhDRWjRo+hPh4esidhcFA/fPiALl64SBs3bqB9v/1GN2/eNET5UntASP+LU4R0cDC1adOa9u7ZI3ssGz0mQFQkcxQIabVD2pz79+7RxYsXxRXAnTt3Tf+OMDFlxVdDHN7Pnz0XK5YYXwGkSp3K7NTctWvX6JDGG+Z8FVW/fn0x5WNrhw8dolOnTsmWZQjpf0FIv29MwFjq26+fbBkfQtp4IW0rK5b/ZLqK7CBblpUrX57Wrl0naoXYms8Qb5o4YYJsWWbPkMbqDgAAhSGkAQAUhpAGAFAYQhoAQGEIaQAAhSGkAQAUhpAGAFAYQhoAQGEIaQAAhSGkAQAUhpAGAFAYQhoAQGEIaQAAhSlRBe/Rw4fUooU7HTxwQPZYtmDhQmrVuo1s2Z4Rq+B59u1Lbdq2ky3j27RxI40fN5aeP38ue2LH1e+4AlnWbNlkj7Fxec9WptcD12e2huuHe3h6iipsjmLb1q001M9Xtixzhip4SoQ0l2bkU0jWrVsreyw7eOgwfVmunGzZnhFDGsAZoVRpAkmbNi2V+vxzURvXGq4dzB8LAOAMlAjppEmTUqPGjalo0aKyxzw+fWH4yJGUPHly2QMA4NiUuXGYP39+cUZf+QoVRGj/W8aMGWnAwEFUr1592QMA4PiUWt1RsVIlWrFyJY0dN55KlSpFLi4u4qZQi5ataMvWbeIGiT3OMgMAUJVSIc04lHv36UO/Hz9BD4Mf07UbN2jR4sVU9ssvKVWqVPKjAACcg3IhDQAA/4OQBgBQGEIaAEBhCGkAAIUhpAEAFIaQdhBjAsbS85dRDvOYM3ee5tU8vAuVVwGZ+zxGfDx4FEwFCxaU/zrLeJfuuPETzH4eoz7stb3aqBDSAAAKQ0gDACgMIQ0AoDCENACAwhDSAAAKQ0gDACgMIQ0AoDCENACAwpQL6Vu3AsW5YqVLlaQM6VwoT+5c1KpFCzp29Cg9ffpUfhQAgHNQKqQPHzpELdzcyNdnCF28eFGcFP3wwQNav34dfd+wAU2aOFGcpAwA4CyUCemrV6+Sp0cfOnHiBEVHv3+AeVhYmCmkJ9CWLZtlDwCA41MipN+8eUObNm6kK1euyB7zeLrD328ovXz5UvYAADg2JUI6MjKS/nP6NEVFRcme2AUG3qQ/T52SLQAAx6ZESL988YIePnooW9Zdvfq3fAYA4NiUCGmeg379+rVsWffiBaY7AMA5KHPjEAAA3pfk+cuo95dSJDBeZufm1pyOHD4seyybOWs2dezUSbZsz3vwIJo8aZJsWda6TRuav2ChbNnO4+BgatOmNe3ds0f2WNakSVOqVbu2bBnfYdPvwto1qzXdJM6UOTP17z+AMmbMKHuM7dmzZzRmzGh6cP++7IldsmTJqHHjJvR1zZqyx/h+//0YLVm8WLYsK1e+PK1du46yZc8ue2zHZ4i32LOhRctWre12WAFC2gwjhjSAM3KGkMZ0BwCAwhDSAAAKQ0gDACgMIQ0AoDCENACAwhDSAAAKQ0gDACgMIQ0AoDCENACAwrDj0Awj7jj8+OOPKVfu3LJlfPfv3aMbN26IWuPWpEyZkooXL07JU6SQPcb26tUrOnf2rNgebk2SJEnEzz5nrlyyx/h4OzwfAqIFtoUnEIT0+/SGtI+vL3Xt2k22jG/16tXkP9RPU1DlyfMRrd+4kXLY4YWaGCIiI+m7enXp+vXrsid2H3zwAXkP8aHOnTvLHuPbsGED9fX0kC3LENIJBCH9Pr0hPSZgLPXt10+2jI8L7PALVUtI582bl37dt49y5XKMK4nw8HCqVKE8/f239brpH374IY0aPYb6eGgLNSNYsfwn6tihg2xZhtodAACQqBDSAAAKQ0gDACgMIQ0AoDCENACAwhDSAAAKQ0gDACgMIQ0AoDCENACAwhDSAAAKQ0gDACgsTrU7oqOj6cmTJxQeHkaRkU9ExbLQsFB6+fKl/Ah9wsPCacrkSXTlyhXZY1mnzp2pxldfyZbtrVqxkrZt2ypbllWtVo26drN9YaPIiEiaOWM6nT17VvZY5t6iJdX/rr5sGd/+ffto6ZIlmn6nsmTNSkOH+pNrJlfZY19ceS5tmrSUI2dOcnFxoXSmR/oMGShZsmTyI+IHtTtQu+NtukP65s2btGf3bjpy5AhdOH+O/vnnH4qIiBDBDeBMuAJdjhw5qXCRwlS2bFmqVq06VahYkVLEs2QqQhoh/TbN0x0cxGNGj6Y6tWrSgP5etGrlCjHK418oBDQ4I677fOtWoKhUODYggFq1aknNfmhKZ86ckR8BEH9WQ5qLrvMvXZPGjWj4sB/FyFlL+UgAZ8Kvk0cPH9KunTup5lc1aMrkyRQWFib/FCDuLE53REVF0fr162iYv78IZwDQhk+LadjweypYqKDs0Y7n4RcsWCBqiluTNGlS+rpmTSpXrpzsMb6zZ87Sli2bZcsyp56T5pHB6lUraeDAgWKEAACgGqeekz518iT5+vgioAEAEpHZkOYldR59etPdu3dkDwAAJIb3QppXaowYMZz+/PNP2QMAAInlvZA+eeIEbd2qbSMHAADY1zshzas5duzYTsGPHskeAABITO+s7nj44AG5u7vR4UOHZI92vPMqQ4b0sgXguHgwc/v2bXr+/LnsgcTidEvwLl++TNWrVqHQ0FDZYxlvSa1duw75+ftTqVKlZC+A44uMjKSFCxbQtKlTxQ127LpNHE63BO/y5UuaA5o1bfoDzZk7FwENTidt2rTUq3dvmjZjOmXOkkX2AtjeOyF94fwF+cy69OnT09hx40QFMgBnxFXv6tT5xjRYaSp7AGzvnekOXhs9d84c2bKMR9HLV66ULQDn9fuxY1S9WlXZsoyDPV++fJQ8eXLZ877Xr1/TjRs3NJVp5bKpWbNlo0yuCVOmNSGEhoZp3qPhdHPSnTt1pJ+WLZMtyzw8PU0j6fGyBeC87ty5TQVMwasFX4EePnqMChaMvaYHSpWiVOnb3pnuePNG+80PrqULAKbXQjK8FsB+3tvMAgAA6kBIAwAoDCENAKAwhDQAgMIQ0gAACkNIAwAoDCENAKAwhDQAgMIQ0gAAClMmpLleQVDQXXGU++BBA6mvpwfNmzuXrly5oqmGQXw9e/aMzpw5Q1OnTCFPjz401M+Xft27V9TY5pPTEwr/XXzG5K6dO8XXwN+HWTNn0sWLFw1dv5hLeT59+lT82/hnunfPHpo9a5bYess1Y3p070aDBg6ggDFjaO3aNeL4tps3b9Lj4GBRvxnAWb1Tu4P3y/O+eS28+vcXNQNsgUP455830eSJE+n06dOy97/FY3Llyk1t27Wlvv28RHlIe+DgGDs2gNatWydCOUbSpEmpcpUqNGDAQPrq669FcRx7evXqlTgZZ8L48XT8jz/eqVGcPUcOcnd3F1+La6ZMstcYuFjQoYMH6ejRI3ThwgX6+6+/rJbE5ZoUuXLlokKFC1PJkiXpizJlqEL5Cnap0RBf/Pvz8Ud5ZMsy1O6wDrU73qXESProkSPUr2/fdwKacUjdvn2Lxo0dS96DB9llRMUviN69eonqf28HNONRLYdLn969xIEI9sb/fs8+Hu8FNLsXFETTp00zjaw9xajfCPj7OcR7MNWpVUtcESxdsoROHD+uqWY5/6z/+ecf2r1rl3ihdO3cmerUrkXDh/1Ijx8/lh8F4PgSPaRfvHhBXv360qOHD2XP+/gFu2b1alq/bq1Npx545Lpk8WLas2e3mG4xh8OSR4L+fn52nfbgv5/fiLii2r8DOgZ/vTt37qDt23+RPWriN5GtW7eI8p2TTFdHgYE36cmTJ7H+u6zh73tYWJh4oxw9ahQV/7QYjRk9mq5fvy6+JwCOLNFDmkeqfAlsDY94eb6YA9NWeOQ6e9ZMTSNTDkce2dnL+fPn6cjhw7IVO/4+HDxwQNn5aQ5kP18fatu6NV27dk322hbPU48YPowaf99QHF/14P59+ScAjifRQ5pvEGl19uxZGjJ4cJxHZG/jkOvX11Nz6POI7dy5s7Jle2f+8x9N/y7+mFu3bik55cHTEIMHDqI5s2eLm4T2xKNrHlkP+9GfGpnCmt/sbfF7AaCaRL9xOH7cODHy0mPS5CnUtVu3ON/I4ykWvikwY/p02aPNug0b6LvvGsiWbfHX0t+rn2xZVuOrr2j58hWUKXNm2ZP4IiIiqGP79mJ1TmLgcwYnTppETZo0TfBa53puHPKNPv4dSpc+nex5X1TUK9q2dYuY4rGGb27zTdVPP/1U9hjf1atX6fChQ7JlmTPcOCQO6ZiH6S/iwNb0MIX0//9/8Xns2r3H7Oe39MiRI2f0nr2/Rj978dLs57T0ePr8RfTK1aujM2bMaPZzx/ZInjx59F9Xr5r9nLZ4TJg4yezfa+5hCunoO3eDzH6exHgEh4RG9+rd2+zXmpCPtGnTRs+bvyBOvxfxedwMvGX268HD/g9TSIvvv7mfS3wfnHHm/k5zD85Oc5/DFo9En+6oULEilTGNBPS4dy+IJk2aSCFxuMvP/+/E8eN1nYrOGjVqTHnyfCRb8LZt27bSsqVLZSvxREZGmq7MxoobigCOItFDmg/kHBMwlkwjW9ljHc897tyxg5YsWaJrxQWvx+bVAadOndI1f8nh7O3jI9Ztw7t4VQ4HNN/QVMHdu3fp2NEjsgVgfIke0qxM2bLUuUsXSpEiheyxjkN29KiRYh2tFvzxfMguL7nTI02aNGKjQIECBWQPvO2IKRC1zh8mBL6heufOXdkCMD4lQjpVqlTUs2cvKl68uOzRhi9veXKfbzRYwxtExgYE6F5XW6VqVWrXvr244QPv4637fCM2LnLkyEn16tUXb9C9evemZs2aU7Fixey+sxPASJQIacZ3Z2fOniO2zepx6dIlmjZ1isUlXyEhIWI9La/h1YO3pM+aPZtcXFxkD7yN143/9uuvsqWNq6srubm5i63RN27epA2bNtH0GTNpwsRJtGz5cvrzP2fo7r37tPSnn6h2nTpiO7ye1Rp85ZMvfz7ZAjA+ZUKalSpVioaPGEmpU6eWPdbxnPTaNWss7sLj7ci//LJNtrThMJlsCv+cOXPJHvi3A/v365rb/+STT2i2aeQ9b8ECizeL+Y26eXM32rxlK23YuEks9/z444/ln1rGf0flypVlC8D4lApp5t6iBTVs+L2um3S8UsOrXz+zOwJ5k8OokSN07dDjy+0WLVtS7dp1ZA+Yc+SI9R2SMTJkyEDTps8QP1u+WawF/w588cUX5OPrRzt27Tb9brQU64Jjw2/ufBOap1EAHIVyIZ0uXTrq7eFBefPmlT3a8IaC7t26vrO0jutgcGEf3mihB8+N9+7jQSlTppQ9YI6WewExqlevITZdxAWHev78+WmOaRTO0yL8nO9jcIjzg6sjcqW8TT9vpuo1auh6gwdQnXIhzUqXLk2+fn6aR1wxfj92jBYtXCiW2vEcNdf64NrFevBSwLHjxmu+vHZWPM0RGhIiW9YVLFQw3qVmefVPt+7daf3GTSKseYTNj+kzZ4q57arVqsmPBHAcStSTNocr3/HKDb7hpwdf6m7eulWU9mzVsoWu9bt8KT1+wkTq0bNngo/GjLYtnEO6XNkyop6KFn379aMRI0fZdMt2zHx4Yo+c9WwL54FHczc3i/sCeJDBVR/5hrc1/DtbqXJl+vzzz2WP8XFNFq1La51hW7iyIc34l79582b0x++/67pBVfbLL+nunbtiukMr/mVv0KChuLGlZ2ONrRixdkeTRo0035CtVr06LVv2k5JF++MLRf9tC0X/36XkdEeMrNmy0cCBg3SfRMKF5fUENOPldjzaS4yANqoCn2jf4MNTUdOnTxNHpAGAdkqHNF/G1qpdmzpofFeND7+hQ8XOR9CuYqVK8pl1vOGFp674lBZfnyGoAQ2gkdIhzfhybqj/j+KsQXvMPfI0h7t7C2rTti12uulUs2YtXTcDea71r7/+Emc4FilcSBw+e/LkSbEiR890FoAzUT6kGQf1xEmTxUYFW+NlYT8OHy5boAcHdOMmTWRLH159wytxGnxXn7p06iRODucT0WM7xgzAWRkipBmvXe7Zq7eu3YjW8Pwzz0PnyaPtpg+8r1v3Hrq38r+Nj8LigwL4fMfv6tWjZk2bijv7OLsQ4L8ME9I8FdG6TRuxWcEWeOqER4G8A87SLjawjFcp1Kv/Xby/hzxnzTd7ebUIH4dVo1pVWrliOd26FWiY09EB7MFQ6cTFc3jao1ChQrIn7ri63YgRIzEPHU9cfKpbt2423YrNUx4nTpygDu3b07d16tCggQPo55836T6oAcARGG4ImS9fPpo8ZWq8LrFz585D48ZP0L20D8zjef3RAWPsckXCW8/nz5tH3bp0oW9q1xJraONaGhXAiAx5nc87rLjGc1x2r3E9Dq5dXKJECdkD8cVXI1y1jjdV2KOsq9iCbhpF/+c//6FOHTvSD02b0JkzZ3QVzQIwKkOGNActB3VcakFkyJhR/L+Y5rA9rqvBW7+5BrS9cGDzjcX69eqKpXx84xHAkRkypHlUtXb1mjidq8dn8q1dsxo3o+yAK9N1MI10t277RWyxt+cN2YcPHphCehy1bNlC/EwBHJXhQppHUhs3bBA3kvQcQhuDl3bxIQBHDmuvhQzacQEhnkpatWYN7dq9h+rWqydG1vY4foynO/b99ht9+00dscYaG2LAERkupDlcfX194rWOlkfg/fp66qqHDPrwdBKvoFm/YaM4XWWw9xBR+Moe00wXLlwQdcNv3tR3PBqAERgqpHkd7cAB/W0yD8nbk7369RWH2YL98JQHn64ycNAgWr/edAW0eQt98+23Nh1Z8xUVn8DTp3cvbIIBh2OYkOZlV7x1WGv9Yi0OHjhAixctwlbkBMChzOUkuWAWB/WRY7+L+Ws+gccWu0g5qPmGYlxOhAdQmWFCmk+lXrp0qU1fgHzzcO6c2TYNftDms88+oxkzZ9H2nbto0uQpoh4vn4YT35uNC+bPp1MnT8qWenjenAccPJ8e2+OF6aFnfp0PyDD3eYz6iIrCm+zblC76H4PLWlapXMkuc468PZwLh+/es1f3cV22ZMSi/7b05MkTCgoKol07d9K8uXN0H3sWg0O+e48e4nczoc6o1FP0n78+fjOy9LvGVwX8u85VA63h39/MWbKQqwPVQQ8LDxcnK2mBk1ksSKiQ5hdvJ9PXtWnTRtljHwMGDiS/of6JFtTOHtJv45Emr96ZMW2aWLXBvwN6cD2Rbdt3JNg5lXpCGmwLJ7MkMp7a+GnZMtq9W9t5ZzHiUnd64YIFtHPnjjgt6wPb4gNneQfj1l+2U8DYcVSsWDFdP9Nr167RqVPqTnkA6KF0SF+/fp2mTpmseyTF1fL0nBrC+NBP3sGGE0PUkSFDBnFzccGixVSkSBHZax2/0W43BTyAI1A2pDmYeS3zjRs3ZI82vJFiqL8/TZs+Q5xbqBXfqDn+xx80adJEcSMG1MDrqkuXLk3LV67Sdf7k0SPYrASOQcmQ5pDkLb979+yRPdpwZbz+AweKsplczpQLKfFWZT14md+qlSuxe00xn376KfXz6i9b1t26dQvV8sAhKBnSPAc9b9482dKuuZsbff99IzH64huAfKnMxZT04DeIMaNH0enTp2UPxIbXl2/duoX8fH3ExiA+DotvotnLt3Xral5TzT/HMNSfBgegXEjzrsLJkyZR8KNHskcbXnc7ekyAuOkUg0fWs+fM0V2V7Z9//qEppq8BRebN43A+fOgQlStbhn5o0oTGjxtHM2fMEAfLli9XTtzs5fWutsalaVG9EJyNUiHNN3ymTJ5Mx44elT3afPTRxzR12nSzpUvz5PmIJkycqGs+k6c6eIS4etUq2QNv++P336lb1y50/vx52fM/QUF3qVfPHhQwZrTN3+ROnjiueRs/X0nhUAdwBEqFNJ9pN2/uXF3btHnk3LlLFypTtqzseV+9evXJzd1d1yiMdyP6D/WjkwrvXksM/AY2oL+XxeJUPBfMb7ajRo6wWW0UHpnzlm+t9wqyZcsep0MhAFSjTEjzqGzYj8N03+wpX6ECderc2WLBHr552LuPh65lXCwsLIx69eiuefeTM+BpjlOnTslW7DhUp0+bRu3atKG///5b0+652IifQ8+e4vNoVdbCm3Zi412HPGCw9NBDy+cz0iO+pQEcjRI7DvlF6NG7N61bt1bXKJqnMn7eskXc+ddi544d1LpVS4qIiJA91vFls4enJw3x8dW9UkQPo+w45PsF3oMHyZY2PB3Vuk1ratykqeafVQy+PzB+3FjT7+VyXfPcc+fNp7bt2smWfenZcchb1XnbeqZMsf/seKAya9ZMTfdlONTqfPMNVayob1+Ayv5z+jStX79Otixzhh2HxCEd8zD9RRzYmh6mkP7//y++D9MLKtr0y2v274ntYQrM6NVr15r9fLE9nj5/ER0wdlx0kiRJzH7O2B4ZM2aM3r1nr9nPaavHhImTzP7d5h6mkI6+czfI7Oex92PY8BFmvyZrD9OVTnSuXLmjmzb9IXrL1m3RYRGRZj9/zCPo/oPoyVOmRhcoUED8v+Y+Z2yP7DlyRJ89f8Hs57XH42bgLbNfh7lH+vTpo89duGj288Q8HjwKji5YsKDZ///fD/7ejBs/weznMerDFHZm/63mHqaQFt9/c58nvg/OOHN/p7kHZ6e5z2GLR6JfV5w7d04s39IzSuLRQ6vWralWrdqyRxu+jGpjuvzmpVx6Lql4NyLfKOMjm1TAX8fWrVtpw4b1sT54fn/J4sXiwW0+xJX/v/huey9ZsmSctt3zkjheucMjpAbf1aePcueihg2+oyHeg8V9iFWrVopVITxycWvWjIp/WkwU8uct3no2F/HXVqN6Dcphx3MWARJSoob0rVuB5NGnt+6bSzy33Kt3H0qTJo3s0Y7v+Ht59afs2fW9iHmL+oD+/ZVYlsfz9/ym0dLdPdZHh/btxcfEfFy1KpXJ3d1NhGR8NnlUrlJF1NKIL57i4op3kyZOFMX627dtS507dRSXmFxcSe8SzBi87LJho+/tcmo5QGJItJDmoJg/bx6dOH5c9mjDo+jxEyaKHYVxxTcb+w8YIFvabdmymdavW2fIIkz8/eabfjz3zyEYV7zM0XR5LcJQRRUqVqQ6db6RLQDjS7SQvnz5Mi02XYrruZTlFRw+vn701ddfx+mSOwYHPd+8adr0B13THk+fPjW9scwVl+1GxVM3fXr1EuuZ46pa9eo0fMRIXWvPEwKXA5gydZpdb/ACJLREC+mfli3VNcfLoVyzVi3q2rWr7Ikf/nzDRowQc6x68Bw6j0iNjKca+Comrnj9cbv27UVQq1LTmgN6+swZCVZDGiChJFpIH9i/Xz7TJkvWrNS//wCb7iLLly8f9fHwoHTp0ske63iq45DBQ5rF99/Am4jad+hAK1euitfUky3wFMxgb29Mc4BDSrSQ1rNWmUduffp4iGJJ8Znm+Dee6mj6QzNq0PB7XZ83MsL2J4wn9CX6U501us3hnwtPfaxas5aqVK1qkwNl9eIpF1+/oWLXqaUNTQBGlWghXVTjCgEOzx9MQdq7Tx/ZY1v8wh4zZozFbeX/VljnzkUt9G7yiK9PixeXz+KPv/b1GzaKzU3FTZ83IXaM8d/BdaZnzp4tNhslxN8JkBgS7Te7ZatWml5YPGfsO3ToO9XtbI2nUiZPmSrmNa3hqZG69erJlu18UaZMggZ1mzZt5TPb4NUeXbp2pfUbN4ndmfZc/cFv3Hz6Dh8EwKVpbXl1BaCaRAtp3nBQq3Zti0Ht6upKnv36Uf78+WWP/fCbQY+ePS1OO/DlvXuLFnaZgxUj+oCxdl8xwX8P3/Tj9c62xqtm8ubNS75+fnT23Hnqa/rZ8feK39jiG6T8//P9iOo1atCu3XvEtm/+vcAIGhxdov2G8wtu2PAR9M2335p9ofGLnVcPNG7cJEFGShxeXKipn5eXeHP4Nw5vHr1xzZK4bKLRomq1amLKwF4rFPjr5pt9I0zfV3vjWgr8prN7z16aPXeuuEH7dc2aora3np8nj8j5DYUDf8mSpbRu/QbxfQJwFoleYOlxcDAdOXqENqxbT5cvX6IMppHk11/XpIbff08FChQQo7OExJs+Ll26RGvXrKZjx47RS1O71Oefk7t7CypZqpTdd7LxuvHbt2/Txg0bRN3mR8GP6PmzZ6J0qh486k9pemPhN0B+g+GplCZNmlKJzz5LlN14XAUvIjycwkyPu3fu0MWLF02PC3T71m0KDQsVf8ZlSFOb3khy5cxFBQsVpM9Ll6aiRYtRxgwZxO+FqjcG9RRY4jedw0ePUcGCBWXP+8JN34tKFcprqvrH3xN+HfKboKPgDOIs0sIZCiwpUQUPwMgQ0raFkH4XJvQAABSGkAYAUBhCGiAB8Y5VLofAtVNie9y/f59evXol/w/LeB4/PDzM7Ocx6iM0NEz+64BhThognvTMSfON8MKFC4sTWmLDpxNduXJFU411XimTM2cuypYtq+wxvuDgYLp586ZsWYYbhxYgpAH+S09Ig23hxiEAACQqhDQAgMIQ0gAACkNIAwAo7J2Q1lNTwYjn/AHYw5tovBbAft4J6ZQptZcD5WUyAED08GHcTjYH0OKdkM6k42iqX/f+SpGRtj+hBMBI+Ipy29atsgVge++EdJGiReUz6/jE7IAxo8UJ2gDOiHf7nT59mpYtXSJ7AGzvnZAuXryErnPqZs+aRcOH/SiqdgE4m6NHjlCvHt0pMDBQ9gDY3js7Du8FBVGTxo3o1KlTskcbPta/cqXKlNHVvqeKAKggKuoVXb50kf78808xmtaKy4q2at2aataqJXvM4/rhPj4+4vVoDW8zd3NvQXXr1ZU9xnfo4EGaM3u2bFnmdNvCueC9r88QmjljBlZvANgYn6G58eef6fPPP5c95qGeNOpJv+2d6Q4+7PWbb741jYjfPz4KAOKnbNmyVKJECdkC0OadkGZVqlalCuUryBYA2AIfxjti1ChxrBmAHu+FdPLkyWnUmDGUJ89HsgcA4oNfU4MGe4sSpQB6vRfSjH+ZJk+dQmnTppU9ABAXvIu3YcPvxSntAHFhNqRZ7dp1aOCgwZQmTRrZAwB6lSpViob4+pIr7vNAHMUa0nyJ1q17dxHULi4ushcAtOClcd/WrUsLFy+hojo2iQH8W6whzfhmR99+/Wjpsp/o448/lr0AYAmvkurUuTPNnj2HihUrJnsB4sZiSDMeUdetV4+279xFjRs3ocxZsohRAgD8D8898z0cHjUvWbaMJk+ZStlz5JB/ChB3VkM6RoECBWjZ8uW0cuUqMbquWKkSZciQQf4pgHPiA2V5tOzm5k7TZ8ygPXt/pUaNGlPSpJpfWgAWvbPjUKuXL19SaEgIhYSG0tWrf9PlS5cpJOSx6I8LLtK0/ZftdPfuHdlj2Vdff03FixeXLds7cviw5q3xPHKqVbu2bNkOnxS9c8dOCgzUdmpypcqV6YsvvpAt47tw4QId2L+fXr16JXtilz59emrStGmCrUbiXX6urpkoZ66cVLBgIcqePZvpa8gg/n49Ndljgx2H2HH4tjiFtK09fPDANBJpLsJRi5mzZlPHTp1ky/a8Bw+iyZMmyZZlrdu0ofkLFsqW7TwODqY2bVrT3j17ZI9lYwLGiiscR7Fk8WLq6+lBz549kz2xy5s3L/26bx/lypVb9hgbQhoh/TZckwEAKAwhDQBghp77CraY5ooNQhoAwIxs2bRPoeTIYfvplhgIaQAAM8qUKaNpxzXfF6hUqbJs2R5uHJphxBuHg729qXOXLrJlfGtWrxGn/vAqF2u4GNiqNWvsOppJSBERkdSoYQO6ceOG7IkdV9UbNHgwdejYUfYY38YNG2lAfy/ZssyeNw5DQkKoY4f2tP2XX2SPeVw5dMWKlZQ1WzbZY1sIaTOMGNIAzsieIc0OHzpEPbp3o7/++kv2vIt3Yk+dNp2++fZb2WN7mO4AAIhF5SpVaOGixWIwljt3HnEzkW8S8m7S5s3daN78BVS7Th350faBkAYAsKDsl1/SlKnTaO9vv9Hho8fo0JGjtG//AZoxaxZVq17d7rtLEdIAAFbwDUTeNFW6dGlxQzFfvnwJVh0UIQ0AoDCENACAwhDSAAAKQ0gDACgMIQ0AoDCENACAwrDj0Awj7jhMlSqVOCXEUbx48ULUko6Otv7ryetUeTmUo5yGwv/miIgIev36teyxLHXq1OJcRUfBh4c8efJEtiyz945DFSCkzTBiSHv170/tOzhO/YYN69fTmNGjNNXu4J1gS5ctc5gXamRkJLk1+4H++ecf2RM7rt3Rz8uL2rRtJ3uMb8vmzTTEe7BsWYaQTiAI6ffhZBaczIKTWaxzhpDGnDQAgMIQ0gAACkNIAwAoDCENAKAwhDQAgBUP7t+nCePHk1uzZtSsaVMaPWoU3boVKP/UvhDSAACx4CWgvNqkRPFPyddnCP388ybasmWzONqtZIkSNHPGDM1ruuMKIQ0AYMarV69o5YoV1NfTk8LCwmTv/zx9+pSG+vnSgvnzxQYce0FIAwCYcf/+PdNIebpYtx4bHkXzaPrOnTuyx/YQ0gAAZpw/d54uXLggW7ELDLxJhw4elC3bQ0gDAJhx+vRp+cy606f/lM9sDyENAGBGZGSEfGZdRESkfGZ7CGkAADO0VGCMoedj9UJIAwAoDCHtIOz5Tg4AiQchraokSUQZSq0uX75k17WaAAmB1yZrWVERg18jjnLYQ2xQT9oMFepJ88kcvXv2pNWrV8key1xdXamH6eMLFyniEL+0+/fto6VLlmh648mSNSsNHepPrplcZY+xPX/2jHx8fOheUJDsiV2yZMnIzb0F1a1XV/YYF18NXr92naZPnyYyQYt69erTgkWLKGPGjLLHdnyGeNPECRNky7KWrVrTQtPXYQ8IaTNUCGkeUfj5+mj+OhiPKvgYLUcQFRUltuRqmcbhN6U0adKYLj6SyB7j49NZ3rx5I1uW8bFpyZMnly1j45+5nivCTp0704SJk+xydBxC+i0IafOWLV1Knh59xPZTAHgXvzHxiUQ9e/WSPbalSkhjTlphfDRQpkyZZQsA3uaaKZN4jTg6hLTCPvnkE6pZq6ZsAcDbyn1ZjkqWLClbjgshrTC+KTTEx4cyZcZoGuBt6dKlI/9hw3StgDIqhLTi8uT5iAICxopfSgAgcXPcb6g/FStWTPY4NoS0ATRp2pTatW9PH3zwgewBcE7/XXLoTm3btZM9jg8hbQCpU6cmH18/atbczS5LjQCMgFdzfPddAxoxYqRTXVkipA0iffr0NGPmTPpx2HDKly+fQ60JBrAmd+485D3Eh+bOn0+Zs2SRvc4BIW0gPKLu1bs3rduwUVzu8aUfgCPjwUizZs1p7fr11H/AADFYcTbYzGKGKptZrLl58yatWL6cdu/eJb6HL19GodASGBqH8ocffiBWNNWsWVNsEuGlqIkBOw7fgpCOH94+HPzoEYWGhYnt5ABGxVeHGUyjZZ7SSOwaNAjptyCkAUA12BYOAABWIaQBABSGkAYAUBhCGgBAYQhpAACFIaQBABSGkAYAUBhCGgBAYQhpAACFIaQBABSGkAYAUBhCGgBAYQhpAACFIaTN0HPqCco3A4A9IaTN4LPUtHoVFSWfAYAjefHihXxmXYoU2jNDL4S0GS4u2g+5fPDwgXwGAI7k0cNH8pl1Li4u8pntIaTNyKLjoMtz587R8+fPZQsAHAGfdnTq1EnZsi5Llqzyme0hpM0oWLCgfGYdnyqj9UQZADCGs2fP0rVr12TLusJFCstntoeQNiNL1qzk6uoqW9atXr0KZwsCOAgeRa9etVL8V4sUKVJQgQL2OywXIW1GOhcXKlRY+zvjrl276Pgff8gWABjZ+fPnaeOGjbJlXaFChSh9eu33sfRCSJvhki4dffrpp7Jl3aOHD2nx4kUUGRkpewDAiJ49e0aLFy2kO3duyx7rihX7lNKlSy9btoeQNiNVqlRUrlx5Sp06teyxjC+LVq5YQUsWL6YoLMkDMCSesty0cYMppBfR69evZa9lvFz3y3LlKG3atLLH9hDSsahcpQply5ZNtqzjH6r/UD+aPGkSPX78WPYCgBFERETQnNmzyatfP12rtXhVR9Vq1XRtgNMLIR2LvHnz0ncNGsiWNk+ePKHRo0aSZ58+ui6XACDxPLh/n/p79aOhfr4UEhIie7WpXqMGFS1aVLbsI8nzl1GJvrGZl7G5uTXXvJRt5qzZ1LFTJ9myn/v37lGpkp/p/sGx9OnTk1f/AVSvfn3KljUrpU6Thj788ENKmhTviwCJJTo6WkxJPjUNqB4+ekR7du+mgIAxFGx6rlca02v62B/HxY1De0JIWzFj+nQa4j2YXr58KXv04aV8JT77TIzMM2TIIIIaABIHB3RYWBgFBgaKtdAczhzceiVLlowGe3uT31B/2WM/CGkr+Gtr164t/bp3r+wBAGdXvkIFWrFyJeXKlVv22A+uva3gjS1eXv0pe44csgcAnJlrpkzk2bdvggQ0Q0hrUK16dRoyxEfzkjwAcEwffPABeXr2pbp168ke+0NIa8DzT+07dKCAseN0lTEFAMfBN/29TYO1Ph4eCZoDCGmN+IZfm7ZtaeCgwXZduA4A6uENbhzOPM2RMmVK2ZswENI68A+nn5cXjRw1mnLnziN7AcCRZcqcmXx8/cQompfdJTSEtE48L925SxdavXYtlS1b1q47jQAgcRUvXpzWrl1HHp6eYu9DYkBIxwHPUZcpU4Y2b9lKvfv0oWzZs4s+ADA+fi3zqi5e5rvtl+1UqXLlRN3fgJCOB16KM278BFq3br2YrypSpAhG1gAGVqBAAerWvTutWrWaps+YqcTSW4S0DXAVrB+HDadt27eLaZAGDRri5iKAQfAU5jfffkvLli+nHbt20ajRY0SBNVVKOGDHoZ1wJS0+CIC3nl66dJGCHwVTSGgIzkMEiAWfvP/3339TeHi47LEsX758lFVHpUrGp6hkzJCRMrpmpKJFi1GJEiXE7kGV90AgpAFACZwD7u5udPjQIdlj2YyZs6hT586y5bgw3QEAoDCENACAwhDSAAAKQ0gDACgMIQ0AoDCENACAwhDSAAAKQ0gDACgMIQ0AoDCENACAwhDSAAAKUyak9VScevPmjXwGAI4iOjpa12ubD4V1BkqENBfZ5upUWoWFhclnAOAoXr95Tc+ePpUt69KkTfijrBKDEiGd1BTSqVNpLxV4+fJl8a4LAI7j6dNndO/efdmyzjWjq3zm2JQIaR5FZ86SWbas+/PUSQp5/Fi2AMARnDt3lu7fvydb1uUvUEA+c2xKhDSfwp0zZ07NR0/df/CATp8+LVsA4Ag2rt+geU6aTz766KOPZMuxKRHSHM58tpjW49IfBwfTli2bccoJgIPgE4w2btwgW9aVK1/eaQ5/ViKkWbFPi1O6dNqOTOf56M2bN9PpP/+UPQBgVI8fPyY/Xx969eqV7LGuTp1v5DPHp0xI80nbeT7KI1vW3QsKom5du9D9e9rnsABALVFRUbRg/nw6sH+/7LHOxcWFanz1lWw5PmVCmm8etmrVWra0uXLlCrVp05oCA29itQeAwbx48YJ+/nkTTZo4QdfUJR8cmytnTtlyfMqENGvSpAnlyaPvZgAfWtmpY0fav28fNrkAGAAPqG7fvkWjR42kbl26UGhoqPwT63gwV7NmLUqfIYPscXxKhbRrpkzUt18/2dLm9evXdOjgQTGi7typE127dg2jagBF8bzz6lUrqUmjRqYR9ER68uSJ/BNtsmfPTg0aNnSam4YsyfOXUUolWlDQXWr8/fdxXmLH77R8OdSgQUMqWrQoZc2WTdeWcwCwrSeRkfTPzX/o4IED4ob/g/vaN6y8jV/Hw4aPoAEDB8oe56BcSPPIeOmSJTRwQH+KNP1wAQBYterVaeOmnzUv1XUUyg0x+TKmWfPmTrXEBgAs43tVAWPHOV1AMyXnAXg30fQZM6hYsWKadyECgGPiYPbs25c+++wz2eNclJ2s5ZuICxcvoZIlS8oeAHA2PA/ds1cvatO2rVPdLHybcnPSb+MldbzErn27dnTnzm3ZCwDOgOtF803CAQMHUerU2qtkOhqlQzrGuXPnqFULd7p69aq4sQgAji19+vTUu08f8uo/gFKlSiV7nZMh1qaVKFGC1m/cRG7uLUTFPABwXLx0dtLkydTPq7/TBzQzxEg6Bp/IsmfPbho0YCCmPwAczIcffkhNf2hGQ3x86JNPPsGiAclQIR2DF8OPHj2Kftn2C927FySKtACA8XAQ89RGocKFaeCgQVS3bj1sPvsXQ4Y045uK58+fp1/37hU3F0+eOomKeAAGwTcCC5uCuWKlSlS9Rg2qUeMrsfQW3mfYkI7BYc3TICEhIXT50iU6cuSwCO+/rlyhsPBwCjX1o/ASQOLh8HVxSUe5cuWkIkWLUenSpalCxYqUPXs2cnXNpOsQamdk+JAGAHBkmPwBAFAYQhoAQGEIaQAAhSGkAQAUhpAGAFAYQhoAQGEIaQAAhSGkAQAUhpAGAFAYQhoAQGEIaQAAhSGkAQAUhpAGAFAW0f8BPo/u1wmAH2QAAAAASUVORK5CYII=;" parent="WIyWlLk6GJQsqaUBKTNV-1" vertex="1">
          <mxGeometry x="-396.96000000000004" y="539.5" width="80.32" height="95" as="geometry" />
        </mxCell>
        <mxCell id="AZhpOWYJOb6j5qODkit--59" value="" style="endArrow=classic;html=1;rounded=0;exitX=1;exitY=0.5;exitDx=0;exitDy=0;exitPerimeter=0;entryX=0;entryY=0;entryDx=0;entryDy=37.5;entryPerimeter=0;" parent="WIyWlLk6GJQsqaUBKTNV-1" source="AZhpOWYJOb6j5qODkit--30" target="AZhpOWYJOb6j5qODkit--29" edge="1">
          <mxGeometry width="50" height="50" relative="1" as="geometry">
            <mxPoint x="-820" y="470" as="sourcePoint" />
            <mxPoint x="-770" y="420" as="targetPoint" />
          </mxGeometry>
        </mxCell>
        <mxCell id="AZhpOWYJOb6j5qODkit--60" value="" style="endArrow=classic;html=1;rounded=0;exitX=1;exitY=0.5;exitDx=0;exitDy=0;exitPerimeter=0;entryX=0.005;entryY=0.404;entryDx=0;entryDy=0;entryPerimeter=0;" parent="WIyWlLk6GJQsqaUBKTNV-1" source="AZhpOWYJOb6j5qODkit--31" target="AZhpOWYJOb6j5qODkit--26" edge="1">
          <mxGeometry width="50" height="50" relative="1" as="geometry">
            <mxPoint x="-820" y="470" as="sourcePoint" />
            <mxPoint x="-1023.0999999999999" y="394" as="targetPoint" />
          </mxGeometry>
        </mxCell>
        <mxCell id="AZhpOWYJOb6j5qODkit--61" value="" style="endArrow=classic;html=1;rounded=0;exitX=1;exitY=0.5;exitDx=0;exitDy=0;exitPerimeter=0;entryX=-0.01;entryY=0.626;entryDx=0;entryDy=0;entryPerimeter=0;" parent="WIyWlLk6GJQsqaUBKTNV-1" source="AZhpOWYJOb6j5qODkit--32" target="AZhpOWYJOb6j5qODkit--26" edge="1">
          <mxGeometry width="50" height="50" relative="1" as="geometry">
            <mxPoint x="-1210" y="599" as="sourcePoint" />
            <mxPoint x="-1004.6199999999999" y="512.72" as="targetPoint" />
          </mxGeometry>
        </mxCell>
        <mxCell id="AZhpOWYJOb6j5qODkit--63" value="" style="endArrow=classic;html=1;rounded=0;exitX=0.5;exitY=1;exitDx=0;exitDy=0;exitPerimeter=0;entryX=0.5;entryY=0;entryDx=0;entryDy=0;entryPerimeter=0;" parent="WIyWlLk6GJQsqaUBKTNV-1" source="AZhpOWYJOb6j5qODkit--29" target="AZhpOWYJOb6j5qODkit--26" edge="1">
          <mxGeometry width="50" height="50" relative="1" as="geometry">
            <mxPoint x="-820" y="470" as="sourcePoint" />
            <mxPoint x="-902" y="510" as="targetPoint" />
          </mxGeometry>
        </mxCell>
        <mxCell id="AZhpOWYJOb6j5qODkit--64" value="" style="endArrow=classic;html=1;rounded=0;entryX=0.016;entryY=0.392;entryDx=0;entryDy=0;exitX=1;exitY=0.5;exitDx=0;exitDy=0;entryPerimeter=0;" parent="WIyWlLk6GJQsqaUBKTNV-1" source="AZhpOWYJOb6j5qODkit--34" target="AZhpOWYJOb6j5qODkit--57" edge="1">
          <mxGeometry width="50" height="50" relative="1" as="geometry">
            <mxPoint x="-820" y="470" as="sourcePoint" />
            <mxPoint x="-770" y="420" as="targetPoint" />
          </mxGeometry>
        </mxCell>
        <mxCell id="AZhpOWYJOb6j5qODkit--65" value="" style="endArrow=classic;html=1;rounded=0;entryX=0.003;entryY=0.416;entryDx=0;entryDy=0;entryPerimeter=0;exitX=1;exitY=0.5;exitDx=0;exitDy=0;" parent="WIyWlLk6GJQsqaUBKTNV-1" source="AZhpOWYJOb6j5qODkit--34" target="AZhpOWYJOb6j5qODkit--56" edge="1">
          <mxGeometry width="50" height="50" relative="1" as="geometry">
            <mxPoint x="-820" y="470" as="sourcePoint" />
            <mxPoint x="-770" y="420" as="targetPoint" />
          </mxGeometry>
        </mxCell>
        <mxCell id="AZhpOWYJOb6j5qODkit--66" value="" style="endArrow=classic;html=1;rounded=0;entryX=0;entryY=0.5;entryDx=0;entryDy=0;exitX=1;exitY=0.5;exitDx=0;exitDy=0;" parent="WIyWlLk6GJQsqaUBKTNV-1" source="AZhpOWYJOb6j5qODkit--34" target="AZhpOWYJOb6j5qODkit--58" edge="1">
          <mxGeometry width="50" height="50" relative="1" as="geometry">
            <mxPoint x="-820" y="470" as="sourcePoint" />
            <mxPoint x="-770" y="420" as="targetPoint" />
          </mxGeometry>
        </mxCell>
        <mxCell id="AZhpOWYJOb6j5qODkit--67" value="&lt;b&gt;&lt;font style=&quot;font-size: 15px;&quot;&gt;Data Management Platfom&lt;/font&gt;&lt;/b&gt;" style="text;strokeColor=none;align=center;fillColor=none;html=1;verticalAlign=middle;whiteSpace=wrap;rounded=0;" parent="WIyWlLk6GJQsqaUBKTNV-1" vertex="1">
          <mxGeometry x="-780" y="250" width="260" height="30" as="geometry" />
        </mxCell>
        <mxCell id="AZhpOWYJOb6j5qODkit--68" value="&lt;b&gt;&lt;font style=&quot;font-size: 21px;&quot;&gt;Source&lt;/font&gt;&lt;/b&gt;" style="text;strokeColor=none;align=center;fillColor=none;html=1;verticalAlign=middle;whiteSpace=wrap;rounded=0;" parent="WIyWlLk6GJQsqaUBKTNV-1" vertex="1">
          <mxGeometry x="-1310" y="180" width="60" height="30" as="geometry" />
        </mxCell>
        <mxCell id="AZhpOWYJOb6j5qODkit--70" value="&lt;b&gt;&lt;font style=&quot;font-size: 21px;&quot;&gt;Storage&lt;/font&gt;&lt;/b&gt;" style="text;strokeColor=none;align=center;fillColor=none;html=1;verticalAlign=middle;whiteSpace=wrap;rounded=0;" parent="WIyWlLk6GJQsqaUBKTNV-1" vertex="1">
          <mxGeometry x="-830" y="170" width="60" height="30" as="geometry" />
        </mxCell>
        <mxCell id="AZhpOWYJOb6j5qODkit--71" value="&lt;b&gt;&lt;font style=&quot;font-size: 21px;&quot;&gt;Business&lt;/font&gt;&lt;/b&gt;" style="text;strokeColor=none;align=center;fillColor=none;html=1;verticalAlign=middle;whiteSpace=wrap;rounded=0;" parent="WIyWlLk6GJQsqaUBKTNV-1" vertex="1">
          <mxGeometry x="-390.25" y="180" width="60.25" height="30" as="geometry" />
        </mxCell>
        <mxCell id="AZhpOWYJOb6j5qODkit--72" value="&lt;b&gt;Bi Dashboards&lt;/b&gt;" style="text;strokeColor=none;align=center;fillColor=none;html=1;verticalAlign=middle;whiteSpace=wrap;rounded=0;" parent="WIyWlLk6GJQsqaUBKTNV-1" vertex="1">
          <mxGeometry x="-401.92999999999995" y="230" width="90.25" height="30" as="geometry" />
        </mxCell>
        <mxCell id="AZhpOWYJOb6j5qODkit--73" value="&lt;b&gt;Data mining&lt;/b&gt;" style="text;strokeColor=none;align=center;fillColor=none;html=1;verticalAlign=middle;whiteSpace=wrap;rounded=0;" parent="WIyWlLk6GJQsqaUBKTNV-1" vertex="1">
          <mxGeometry x="-418.66999999999996" y="370" width="123.74" height="30" as="geometry" />
        </mxCell>
        <mxCell id="AZhpOWYJOb6j5qODkit--74" value="&lt;b&gt;Excel Reports&lt;/b&gt;" style="text;strokeColor=none;align=center;fillColor=none;html=1;verticalAlign=middle;whiteSpace=wrap;rounded=0;" parent="WIyWlLk6GJQsqaUBKTNV-1" vertex="1">
          <mxGeometry x="-418.66999999999996" y="509.5" width="123.74" height="30" as="geometry" />
        </mxCell>
        <mxCell id="SMmSjSj3IEES6-w9Nfag-0" value="SparkJob" style="text;strokeColor=none;align=center;fillColor=none;html=1;verticalAlign=middle;whiteSpace=wrap;rounded=0;" parent="WIyWlLk6GJQsqaUBKTNV-1" vertex="1">
          <mxGeometry x="-830" y="490" width="60" height="30" as="geometry" />
        </mxCell>
        <mxCell id="SMmSjSj3IEES6-w9Nfag-1" value="SparkJob" style="text;strokeColor=none;align=center;fillColor=none;html=1;verticalAlign=middle;whiteSpace=wrap;rounded=0;" parent="WIyWlLk6GJQsqaUBKTNV-1" vertex="1">
          <mxGeometry x="-930" y="340" width="60" height="30" as="geometry" />
        </mxCell>
        <mxCell id="SMmSjSj3IEES6-w9Nfag-2" value="ELT" style="text;strokeColor=none;align=center;fillColor=none;html=1;verticalAlign=middle;whiteSpace=wrap;rounded=0;" parent="WIyWlLk6GJQsqaUBKTNV-1" vertex="1">
          <mxGeometry x="-1170" y="270" width="60" height="30" as="geometry" />
        </mxCell>
        <mxCell id="SMmSjSj3IEES6-w9Nfag-3" value="ETL" style="text;strokeColor=none;align=center;fillColor=none;html=1;verticalAlign=middle;whiteSpace=wrap;rounded=0;" parent="WIyWlLk6GJQsqaUBKTNV-1" vertex="1">
          <mxGeometry x="-1170" y="417.08000000000004" width="60" height="30" as="geometry" />
        </mxCell>
        <mxCell id="SMmSjSj3IEES6-w9Nfag-4" value="ETL" style="text;strokeColor=none;align=center;fillColor=none;html=1;verticalAlign=middle;whiteSpace=wrap;rounded=0;" parent="WIyWlLk6GJQsqaUBKTNV-1" vertex="1">
          <mxGeometry x="-1170" y="555" width="60" height="30" as="geometry" />
        </mxCell>
      </root>
    </mxGraphModel>
  </diagram>
</mxfile>
